%TF.GenerationSoftware,KiCad,Pcbnew,(6.0.5)*%
%TF.CreationDate,2023-06-09T12:11:34-05:00*%
%TF.ProjectId,pcchips_apic,70636368-6970-4735-9f61-7069632e6b69,rev?*%
%TF.SameCoordinates,Original*%
%TF.FileFunction,Legend,Top*%
%TF.FilePolarity,Positive*%
%FSLAX46Y46*%
G04 Gerber Fmt 4.6, Leading zero omitted, Abs format (unit mm)*
G04 Created by KiCad (PCBNEW (6.0.5)) date 2023-06-09 12:11:34*
%MOMM*%
%LPD*%
G01*
G04 APERTURE LIST*
%ADD10C,0.152400*%
%ADD11C,0.304800*%
%ADD12C,0.150000*%
%ADD13C,0.120000*%
%ADD14C,0.310000*%
G04 APERTURE END LIST*
D10*
X104281904Y-80850714D02*
X104476666Y-81396047D01*
X104671428Y-80850714D01*
X105489428Y-80578047D02*
X105956857Y-80578047D01*
X105723142Y-81396047D02*
X105723142Y-80578047D01*
X106229523Y-81396047D02*
X106229523Y-80578047D01*
X106580095Y-81396047D02*
X106580095Y-80967571D01*
X106541142Y-80889666D01*
X106463238Y-80850714D01*
X106346380Y-80850714D01*
X106268476Y-80889666D01*
X106229523Y-80928619D01*
X106969619Y-81396047D02*
X106969619Y-80850714D01*
X106969619Y-80578047D02*
X106930666Y-80617000D01*
X106969619Y-80655952D01*
X107008571Y-80617000D01*
X106969619Y-80578047D01*
X106969619Y-80655952D01*
X107320190Y-81357095D02*
X107398095Y-81396047D01*
X107553904Y-81396047D01*
X107631809Y-81357095D01*
X107670761Y-81279190D01*
X107670761Y-81240238D01*
X107631809Y-81162333D01*
X107553904Y-81123380D01*
X107437047Y-81123380D01*
X107359142Y-81084428D01*
X107320190Y-81006523D01*
X107320190Y-80967571D01*
X107359142Y-80889666D01*
X107437047Y-80850714D01*
X107553904Y-80850714D01*
X107631809Y-80889666D01*
X108605619Y-81357095D02*
X108683523Y-81396047D01*
X108839333Y-81396047D01*
X108917238Y-81357095D01*
X108956190Y-81279190D01*
X108956190Y-81240238D01*
X108917238Y-81162333D01*
X108839333Y-81123380D01*
X108722476Y-81123380D01*
X108644571Y-81084428D01*
X108605619Y-81006523D01*
X108605619Y-80967571D01*
X108644571Y-80889666D01*
X108722476Y-80850714D01*
X108839333Y-80850714D01*
X108917238Y-80889666D01*
X109306761Y-81396047D02*
X109306761Y-80850714D01*
X109306761Y-80578047D02*
X109267809Y-80617000D01*
X109306761Y-80655952D01*
X109345714Y-80617000D01*
X109306761Y-80578047D01*
X109306761Y-80655952D01*
X110046857Y-81396047D02*
X110046857Y-80578047D01*
X110046857Y-81357095D02*
X109968952Y-81396047D01*
X109813142Y-81396047D01*
X109735238Y-81357095D01*
X109696285Y-81318142D01*
X109657333Y-81240238D01*
X109657333Y-81006523D01*
X109696285Y-80928619D01*
X109735238Y-80889666D01*
X109813142Y-80850714D01*
X109968952Y-80850714D01*
X110046857Y-80889666D01*
X110748000Y-81357095D02*
X110670095Y-81396047D01*
X110514285Y-81396047D01*
X110436380Y-81357095D01*
X110397428Y-81279190D01*
X110397428Y-80967571D01*
X110436380Y-80889666D01*
X110514285Y-80850714D01*
X110670095Y-80850714D01*
X110748000Y-80889666D01*
X110786952Y-80967571D01*
X110786952Y-81045476D01*
X110397428Y-81123380D01*
X111643904Y-80850714D02*
X111955523Y-80850714D01*
X111760761Y-80578047D02*
X111760761Y-81279190D01*
X111799714Y-81357095D01*
X111877619Y-81396047D01*
X111955523Y-81396047D01*
X112345047Y-81396047D02*
X112267142Y-81357095D01*
X112228190Y-81318142D01*
X112189238Y-81240238D01*
X112189238Y-81006523D01*
X112228190Y-80928619D01*
X112267142Y-80889666D01*
X112345047Y-80850714D01*
X112461904Y-80850714D01*
X112539809Y-80889666D01*
X112578761Y-80928619D01*
X112617714Y-81006523D01*
X112617714Y-81240238D01*
X112578761Y-81318142D01*
X112539809Y-81357095D01*
X112461904Y-81396047D01*
X112345047Y-81396047D01*
X112890380Y-80850714D02*
X113046190Y-81396047D01*
X113202000Y-81006523D01*
X113357809Y-81396047D01*
X113513619Y-80850714D01*
X114175809Y-81396047D02*
X114175809Y-80967571D01*
X114136857Y-80889666D01*
X114058952Y-80850714D01*
X113903142Y-80850714D01*
X113825238Y-80889666D01*
X114175809Y-81357095D02*
X114097904Y-81396047D01*
X113903142Y-81396047D01*
X113825238Y-81357095D01*
X113786285Y-81279190D01*
X113786285Y-81201285D01*
X113825238Y-81123380D01*
X113903142Y-81084428D01*
X114097904Y-81084428D01*
X114175809Y-81045476D01*
X114565333Y-81396047D02*
X114565333Y-80850714D01*
X114565333Y-81006523D02*
X114604285Y-80928619D01*
X114643238Y-80889666D01*
X114721142Y-80850714D01*
X114799047Y-80850714D01*
X115422285Y-81396047D02*
X115422285Y-80578047D01*
X115422285Y-81357095D02*
X115344380Y-81396047D01*
X115188571Y-81396047D01*
X115110666Y-81357095D01*
X115071714Y-81318142D01*
X115032761Y-81240238D01*
X115032761Y-81006523D01*
X115071714Y-80928619D01*
X115110666Y-80889666D01*
X115188571Y-80850714D01*
X115344380Y-80850714D01*
X115422285Y-80889666D01*
X115772857Y-81357095D02*
X115850761Y-81396047D01*
X116006571Y-81396047D01*
X116084476Y-81357095D01*
X116123428Y-81279190D01*
X116123428Y-81240238D01*
X116084476Y-81162333D01*
X116006571Y-81123380D01*
X115889714Y-81123380D01*
X115811809Y-81084428D01*
X115772857Y-81006523D01*
X115772857Y-80967571D01*
X115811809Y-80889666D01*
X115889714Y-80850714D01*
X116006571Y-80850714D01*
X116084476Y-80889666D01*
X117097238Y-81396047D02*
X117097238Y-80850714D01*
X117097238Y-80928619D02*
X117136190Y-80889666D01*
X117214095Y-80850714D01*
X117330952Y-80850714D01*
X117408857Y-80889666D01*
X117447809Y-80967571D01*
X117447809Y-81396047D01*
X117447809Y-80967571D02*
X117486761Y-80889666D01*
X117564666Y-80850714D01*
X117681523Y-80850714D01*
X117759428Y-80889666D01*
X117798380Y-80967571D01*
X117798380Y-81396047D01*
X118499523Y-81357095D02*
X118421619Y-81396047D01*
X118265809Y-81396047D01*
X118187904Y-81357095D01*
X118148952Y-81279190D01*
X118148952Y-80967571D01*
X118187904Y-80889666D01*
X118265809Y-80850714D01*
X118421619Y-80850714D01*
X118499523Y-80889666D01*
X118538476Y-80967571D01*
X118538476Y-81045476D01*
X118148952Y-81123380D01*
X119239619Y-81396047D02*
X119239619Y-80578047D01*
X119239619Y-81357095D02*
X119161714Y-81396047D01*
X119005904Y-81396047D01*
X118927999Y-81357095D01*
X118889047Y-81318142D01*
X118850095Y-81240238D01*
X118850095Y-81006523D01*
X118889047Y-80928619D01*
X118927999Y-80889666D01*
X119005904Y-80850714D01*
X119161714Y-80850714D01*
X119239619Y-80889666D01*
X119629142Y-81396047D02*
X119629142Y-80850714D01*
X119629142Y-80578047D02*
X119590190Y-80617000D01*
X119629142Y-80655952D01*
X119668095Y-80617000D01*
X119629142Y-80578047D01*
X119629142Y-80655952D01*
X120135523Y-81396047D02*
X120057619Y-81357095D01*
X120018666Y-81318142D01*
X119979714Y-81240238D01*
X119979714Y-81006523D01*
X120018666Y-80928619D01*
X120057619Y-80889666D01*
X120135523Y-80850714D01*
X120252380Y-80850714D01*
X120330285Y-80889666D01*
X120369238Y-80928619D01*
X120408190Y-81006523D01*
X120408190Y-81240238D01*
X120369238Y-81318142D01*
X120330285Y-81357095D01*
X120252380Y-81396047D01*
X120135523Y-81396047D01*
X121109333Y-81357095D02*
X121031428Y-81396047D01*
X120875619Y-81396047D01*
X120797714Y-81357095D01*
X120758761Y-81318142D01*
X120719809Y-81240238D01*
X120719809Y-81006523D01*
X120758761Y-80928619D01*
X120797714Y-80889666D01*
X120875619Y-80850714D01*
X121031428Y-80850714D01*
X121109333Y-80889666D01*
X121459904Y-81396047D02*
X121459904Y-80850714D01*
X121459904Y-81006523D02*
X121498857Y-80928619D01*
X121537809Y-80889666D01*
X121615714Y-80850714D01*
X121693619Y-80850714D01*
X122277904Y-81357095D02*
X122200000Y-81396047D01*
X122044190Y-81396047D01*
X121966285Y-81357095D01*
X121927333Y-81279190D01*
X121927333Y-80967571D01*
X121966285Y-80889666D01*
X122044190Y-80850714D01*
X122200000Y-80850714D01*
X122277904Y-80889666D01*
X122316857Y-80967571D01*
X122316857Y-81045476D01*
X121927333Y-81123380D01*
X123290666Y-81396047D02*
X123290666Y-80850714D01*
X123290666Y-80928619D02*
X123329619Y-80889666D01*
X123407523Y-80850714D01*
X123524380Y-80850714D01*
X123602285Y-80889666D01*
X123641238Y-80967571D01*
X123641238Y-81396047D01*
X123641238Y-80967571D02*
X123680190Y-80889666D01*
X123758095Y-80850714D01*
X123874952Y-80850714D01*
X123952857Y-80889666D01*
X123991809Y-80967571D01*
X123991809Y-81396047D01*
X124498190Y-81396047D02*
X124420285Y-81357095D01*
X124381333Y-81318142D01*
X124342380Y-81240238D01*
X124342380Y-81006523D01*
X124381333Y-80928619D01*
X124420285Y-80889666D01*
X124498190Y-80850714D01*
X124615047Y-80850714D01*
X124692952Y-80889666D01*
X124731904Y-80928619D01*
X124770857Y-81006523D01*
X124770857Y-81240238D01*
X124731904Y-81318142D01*
X124692952Y-81357095D01*
X124615047Y-81396047D01*
X124498190Y-81396047D01*
X125004571Y-80850714D02*
X125316190Y-80850714D01*
X125121428Y-80578047D02*
X125121428Y-81279190D01*
X125160380Y-81357095D01*
X125238285Y-81396047D01*
X125316190Y-81396047D01*
X125588857Y-81396047D02*
X125588857Y-80578047D01*
X125939428Y-81396047D02*
X125939428Y-80967571D01*
X125900476Y-80889666D01*
X125822571Y-80850714D01*
X125705714Y-80850714D01*
X125627809Y-80889666D01*
X125588857Y-80928619D01*
X126640571Y-81357095D02*
X126562666Y-81396047D01*
X126406857Y-81396047D01*
X126328952Y-81357095D01*
X126290000Y-81279190D01*
X126290000Y-80967571D01*
X126328952Y-80889666D01*
X126406857Y-80850714D01*
X126562666Y-80850714D01*
X126640571Y-80889666D01*
X126679523Y-80967571D01*
X126679523Y-81045476D01*
X126290000Y-81123380D01*
X127030095Y-81396047D02*
X127030095Y-80850714D01*
X127030095Y-81006523D02*
X127069047Y-80928619D01*
X127108000Y-80889666D01*
X127185904Y-80850714D01*
X127263809Y-80850714D01*
X127536476Y-81396047D02*
X127536476Y-80578047D01*
X127536476Y-80889666D02*
X127614380Y-80850714D01*
X127770190Y-80850714D01*
X127848095Y-80889666D01*
X127887047Y-80928619D01*
X127926000Y-81006523D01*
X127926000Y-81240238D01*
X127887047Y-81318142D01*
X127848095Y-81357095D01*
X127770190Y-81396047D01*
X127614380Y-81396047D01*
X127536476Y-81357095D01*
X128393428Y-81396047D02*
X128315523Y-81357095D01*
X128276571Y-81318142D01*
X128237619Y-81240238D01*
X128237619Y-81006523D01*
X128276571Y-80928619D01*
X128315523Y-80889666D01*
X128393428Y-80850714D01*
X128510285Y-80850714D01*
X128588190Y-80889666D01*
X128627142Y-80928619D01*
X128666095Y-81006523D01*
X128666095Y-81240238D01*
X128627142Y-81318142D01*
X128588190Y-81357095D01*
X128510285Y-81396047D01*
X128393428Y-81396047D01*
X129367238Y-81396047D02*
X129367238Y-80967571D01*
X129328285Y-80889666D01*
X129250380Y-80850714D01*
X129094571Y-80850714D01*
X129016666Y-80889666D01*
X129367238Y-81357095D02*
X129289333Y-81396047D01*
X129094571Y-81396047D01*
X129016666Y-81357095D01*
X128977714Y-81279190D01*
X128977714Y-81201285D01*
X129016666Y-81123380D01*
X129094571Y-81084428D01*
X129289333Y-81084428D01*
X129367238Y-81045476D01*
X129756761Y-81396047D02*
X129756761Y-80850714D01*
X129756761Y-81006523D02*
X129795714Y-80928619D01*
X129834666Y-80889666D01*
X129912571Y-80850714D01*
X129990476Y-80850714D01*
X130613714Y-81396047D02*
X130613714Y-80578047D01*
X130613714Y-81357095D02*
X130535809Y-81396047D01*
X130380000Y-81396047D01*
X130302095Y-81357095D01*
X130263142Y-81318142D01*
X130224190Y-81240238D01*
X130224190Y-81006523D01*
X130263142Y-80928619D01*
X130302095Y-80889666D01*
X130380000Y-80850714D01*
X130535809Y-80850714D01*
X130613714Y-80889666D01*
X131548571Y-80850714D02*
X131743333Y-81396047D01*
X131938095Y-80850714D01*
D11*
X113501714Y-68187751D02*
X113356571Y-68115180D01*
X113284000Y-68042608D01*
X113211428Y-67897465D01*
X113211428Y-67824894D01*
X113284000Y-67679751D01*
X113356571Y-67607180D01*
X113501714Y-67534608D01*
X113792000Y-67534608D01*
X113937142Y-67607180D01*
X114009714Y-67679751D01*
X114082285Y-67824894D01*
X114082285Y-67897465D01*
X114009714Y-68042608D01*
X113937142Y-68115180D01*
X113792000Y-68187751D01*
X113501714Y-68187751D01*
X113356571Y-68260322D01*
X113284000Y-68332894D01*
X113211428Y-68478037D01*
X113211428Y-68768322D01*
X113284000Y-68913465D01*
X113356571Y-68986037D01*
X113501714Y-69058608D01*
X113792000Y-69058608D01*
X113937142Y-68986037D01*
X114009714Y-68913465D01*
X114082285Y-68768322D01*
X114082285Y-68478037D01*
X114009714Y-68332894D01*
X113937142Y-68260322D01*
X113792000Y-68187751D01*
X114662857Y-67679751D02*
X114735428Y-67607180D01*
X114880571Y-67534608D01*
X115243428Y-67534608D01*
X115388571Y-67607180D01*
X115461142Y-67679751D01*
X115533714Y-67824894D01*
X115533714Y-67970037D01*
X115461142Y-68187751D01*
X114590285Y-69058608D01*
X115533714Y-69058608D01*
X116477142Y-67534608D02*
X116622285Y-67534608D01*
X116767428Y-67607180D01*
X116840000Y-67679751D01*
X116912571Y-67824894D01*
X116985142Y-68115180D01*
X116985142Y-68478037D01*
X116912571Y-68768322D01*
X116840000Y-68913465D01*
X116767428Y-68986037D01*
X116622285Y-69058608D01*
X116477142Y-69058608D01*
X116332000Y-68986037D01*
X116259428Y-68913465D01*
X116186857Y-68768322D01*
X116114285Y-68478037D01*
X116114285Y-68115180D01*
X116186857Y-67824894D01*
X116259428Y-67679751D01*
X116332000Y-67607180D01*
X116477142Y-67534608D01*
X117710857Y-69058608D02*
X118001142Y-69058608D01*
X118146285Y-68986037D01*
X118218857Y-68913465D01*
X118364000Y-68695751D01*
X118436571Y-68405465D01*
X118436571Y-67824894D01*
X118364000Y-67679751D01*
X118291428Y-67607180D01*
X118146285Y-67534608D01*
X117856000Y-67534608D01*
X117710857Y-67607180D01*
X117638285Y-67679751D01*
X117565714Y-67824894D01*
X117565714Y-68187751D01*
X117638285Y-68332894D01*
X117710857Y-68405465D01*
X117856000Y-68478037D01*
X118146285Y-68478037D01*
X118291428Y-68405465D01*
X118364000Y-68332894D01*
X118436571Y-68187751D01*
X118944571Y-67534608D02*
X119888000Y-67534608D01*
X119380000Y-68115180D01*
X119597714Y-68115180D01*
X119742857Y-68187751D01*
X119815428Y-68260322D01*
X119888000Y-68405465D01*
X119888000Y-68768322D01*
X119815428Y-68913465D01*
X119742857Y-68986037D01*
X119597714Y-69058608D01*
X119162285Y-69058608D01*
X119017142Y-68986037D01*
X118944571Y-68913465D01*
X120468571Y-68623180D02*
X121194285Y-68623180D01*
X120323428Y-69058608D02*
X120831428Y-67534608D01*
X121339428Y-69058608D01*
X121774857Y-68623180D02*
X122500571Y-68623180D01*
X121629714Y-69058608D02*
X122137714Y-67534608D01*
X122645714Y-69058608D01*
X115606285Y-71076820D02*
X116332000Y-71076820D01*
X115461142Y-71512248D02*
X115969142Y-69988248D01*
X116477142Y-71512248D01*
X116985142Y-71512248D02*
X116985142Y-69988248D01*
X117565714Y-69988248D01*
X117710857Y-70060820D01*
X117783428Y-70133391D01*
X117856000Y-70278534D01*
X117856000Y-70496248D01*
X117783428Y-70641391D01*
X117710857Y-70713962D01*
X117565714Y-70786534D01*
X116985142Y-70786534D01*
X118509142Y-71512248D02*
X118509142Y-69988248D01*
X120105714Y-71367105D02*
X120033142Y-71439677D01*
X119815428Y-71512248D01*
X119670285Y-71512248D01*
X119452571Y-71439677D01*
X119307428Y-71294534D01*
X119234857Y-71149391D01*
X119162285Y-70859105D01*
X119162285Y-70641391D01*
X119234857Y-70351105D01*
X119307428Y-70205962D01*
X119452571Y-70060820D01*
X119670285Y-69988248D01*
X119815428Y-69988248D01*
X120033142Y-70060820D01*
X120105714Y-70133391D01*
D12*
%TO.C,U1*%
X125476095Y-64222380D02*
X125476095Y-65031904D01*
X125523714Y-65127142D01*
X125571333Y-65174761D01*
X125666571Y-65222380D01*
X125857047Y-65222380D01*
X125952285Y-65174761D01*
X125999904Y-65127142D01*
X126047523Y-65031904D01*
X126047523Y-64222380D01*
X127047523Y-65222380D02*
X126476095Y-65222380D01*
X126761809Y-65222380D02*
X126761809Y-64222380D01*
X126666571Y-64365238D01*
X126571333Y-64460476D01*
X126476095Y-64508095D01*
%TO.C,C3*%
X131659333Y-60047142D02*
X131611714Y-60094761D01*
X131468857Y-60142380D01*
X131373619Y-60142380D01*
X131230761Y-60094761D01*
X131135523Y-59999523D01*
X131087904Y-59904285D01*
X131040285Y-59713809D01*
X131040285Y-59570952D01*
X131087904Y-59380476D01*
X131135523Y-59285238D01*
X131230761Y-59190000D01*
X131373619Y-59142380D01*
X131468857Y-59142380D01*
X131611714Y-59190000D01*
X131659333Y-59237619D01*
X131992666Y-59142380D02*
X132611714Y-59142380D01*
X132278380Y-59523333D01*
X132421238Y-59523333D01*
X132516476Y-59570952D01*
X132564095Y-59618571D01*
X132611714Y-59713809D01*
X132611714Y-59951904D01*
X132564095Y-60047142D01*
X132516476Y-60094761D01*
X132421238Y-60142380D01*
X132135523Y-60142380D01*
X132040285Y-60094761D01*
X131992666Y-60047142D01*
%TO.C,C4*%
X137501333Y-77065142D02*
X137453714Y-77112761D01*
X137310857Y-77160380D01*
X137215619Y-77160380D01*
X137072761Y-77112761D01*
X136977523Y-77017523D01*
X136929904Y-76922285D01*
X136882285Y-76731809D01*
X136882285Y-76588952D01*
X136929904Y-76398476D01*
X136977523Y-76303238D01*
X137072761Y-76208000D01*
X137215619Y-76160380D01*
X137310857Y-76160380D01*
X137453714Y-76208000D01*
X137501333Y-76255619D01*
X138358476Y-76493714D02*
X138358476Y-77160380D01*
X138120380Y-76112761D02*
X137882285Y-76827047D01*
X138501333Y-76827047D01*
%TO.C,.*%
X101854000Y-80367142D02*
X101901619Y-80414761D01*
X101854000Y-80462380D01*
X101806380Y-80414761D01*
X101854000Y-80367142D01*
X101854000Y-80462380D01*
%TO.C,R1*%
X114133333Y-58110380D02*
X113800000Y-57634190D01*
X113561904Y-58110380D02*
X113561904Y-57110380D01*
X113942857Y-57110380D01*
X114038095Y-57158000D01*
X114085714Y-57205619D01*
X114133333Y-57300857D01*
X114133333Y-57443714D01*
X114085714Y-57538952D01*
X114038095Y-57586571D01*
X113942857Y-57634190D01*
X113561904Y-57634190D01*
X115085714Y-58110380D02*
X114514285Y-58110380D01*
X114800000Y-58110380D02*
X114800000Y-57110380D01*
X114704761Y-57253238D01*
X114609523Y-57348476D01*
X114514285Y-57396095D01*
%TO.C,R5*%
X119467333Y-58110380D02*
X119134000Y-57634190D01*
X118895904Y-58110380D02*
X118895904Y-57110380D01*
X119276857Y-57110380D01*
X119372095Y-57158000D01*
X119419714Y-57205619D01*
X119467333Y-57300857D01*
X119467333Y-57443714D01*
X119419714Y-57538952D01*
X119372095Y-57586571D01*
X119276857Y-57634190D01*
X118895904Y-57634190D01*
X120372095Y-57110380D02*
X119895904Y-57110380D01*
X119848285Y-57586571D01*
X119895904Y-57538952D01*
X119991142Y-57491333D01*
X120229238Y-57491333D01*
X120324476Y-57538952D01*
X120372095Y-57586571D01*
X120419714Y-57681809D01*
X120419714Y-57919904D01*
X120372095Y-58015142D01*
X120324476Y-58062761D01*
X120229238Y-58110380D01*
X119991142Y-58110380D01*
X119895904Y-58062761D01*
X119848285Y-58015142D01*
%TO.C,C1*%
X105243333Y-59031142D02*
X105195714Y-59078761D01*
X105052857Y-59126380D01*
X104957619Y-59126380D01*
X104814761Y-59078761D01*
X104719523Y-58983523D01*
X104671904Y-58888285D01*
X104624285Y-58697809D01*
X104624285Y-58554952D01*
X104671904Y-58364476D01*
X104719523Y-58269238D01*
X104814761Y-58174000D01*
X104957619Y-58126380D01*
X105052857Y-58126380D01*
X105195714Y-58174000D01*
X105243333Y-58221619D01*
X106195714Y-59126380D02*
X105624285Y-59126380D01*
X105910000Y-59126380D02*
X105910000Y-58126380D01*
X105814761Y-58269238D01*
X105719523Y-58364476D01*
X105624285Y-58412095D01*
D13*
%TO.C,U1*%
X127360000Y-62420000D02*
X127860000Y-62970000D01*
X127860000Y-75920000D02*
X108360000Y-75920000D01*
X108360000Y-75920000D02*
X108360000Y-62420000D01*
X108360000Y-62420000D02*
X127360000Y-62420000D01*
X127860000Y-62970000D02*
X127860000Y-75920000D01*
D14*
X127265000Y-63070000D02*
G75*
G03*
X127265000Y-63070000I-155000J0D01*
G01*
D13*
%TO.C,C3*%
X130450000Y-60401252D02*
X130450000Y-58978748D01*
X128630000Y-60401252D02*
X128630000Y-58978748D01*
%TO.C,C4*%
X134726000Y-77419252D02*
X134726000Y-75996748D01*
X136546000Y-77419252D02*
X136546000Y-75996748D01*
%TO.C,R1*%
X111471064Y-56748000D02*
X110016936Y-56748000D01*
X111471064Y-58568000D02*
X110016936Y-58568000D01*
%TO.C,R5*%
X124171064Y-58568000D02*
X122716936Y-58568000D01*
X124171064Y-56748000D02*
X122716936Y-56748000D01*
%TO.C,C1*%
X106121252Y-59796000D02*
X104698748Y-59796000D01*
X106121252Y-61616000D02*
X104698748Y-61616000D01*
%TD*%
M02*
