%TF.GenerationSoftware,KiCad,Pcbnew,(6.0.5)*%
%TF.CreationDate,2023-06-09T12:11:34-05:00*%
%TF.ProjectId,pcchips_apic,70636368-6970-4735-9f61-7069632e6b69,rev?*%
%TF.SameCoordinates,Original*%
%TF.FileFunction,Copper,L2,Bot*%
%TF.FilePolarity,Positive*%
%FSLAX46Y46*%
G04 Gerber Fmt 4.6, Leading zero omitted, Abs format (unit mm)*
G04 Created by KiCad (PCBNEW (6.0.5)) date 2023-06-09 12:11:34*
%MOMM*%
%LPD*%
G01*
G04 APERTURE LIST*
G04 Aperture macros list*
%AMRoundRect*
0 Rectangle with rounded corners*
0 $1 Rounding radius*
0 $2 $3 $4 $5 $6 $7 $8 $9 X,Y pos of 4 corners*
0 Add a 4 corners polygon primitive as box body*
4,1,4,$2,$3,$4,$5,$6,$7,$8,$9,$2,$3,0*
0 Add four circle primitives for the rounded corners*
1,1,$1+$1,$2,$3*
1,1,$1+$1,$4,$5*
1,1,$1+$1,$6,$7*
1,1,$1+$1,$8,$9*
0 Add four rect primitives between the rounded corners*
20,1,$1+$1,$2,$3,$4,$5,0*
20,1,$1+$1,$4,$5,$6,$7,0*
20,1,$1+$1,$6,$7,$8,$9,0*
20,1,$1+$1,$8,$9,$2,$3,0*%
G04 Aperture macros list end*
%TA.AperFunction,SMDPad,CuDef*%
%ADD10RoundRect,0.250000X-0.250000X-3.500000X0.250000X-3.500000X0.250000X3.500000X-0.250000X3.500000X0*%
%TD*%
%TA.AperFunction,SMDPad,CuDef*%
%ADD11RoundRect,0.250000X0.650000X-0.412500X0.650000X0.412500X-0.650000X0.412500X-0.650000X-0.412500X0*%
%TD*%
%TA.AperFunction,SMDPad,CuDef*%
%ADD12RoundRect,0.250000X0.625000X-0.400000X0.625000X0.400000X-0.625000X0.400000X-0.625000X-0.400000X0*%
%TD*%
%TA.AperFunction,ViaPad*%
%ADD13C,0.600000*%
%TD*%
%TA.AperFunction,ViaPad*%
%ADD14C,0.900000*%
%TD*%
%TA.AperFunction,Conductor*%
%ADD15C,0.150000*%
%TD*%
G04 APERTURE END LIST*
D10*
%TO.P,.,26,Pin_26*%
%TO.N,unconnected-(J1-Pad26)*%
X133122000Y-85542000D03*
%TO.P,.,27,Pin_27*%
%TO.N,/APIC_CLK*%
X131852000Y-85542000D03*
%TO.P,.,28,Pin_28*%
%TO.N,GND*%
X130582000Y-85542000D03*
%TO.P,.,29,Pin_29*%
%TO.N,/PCI_CLK*%
X129312000Y-85542000D03*
%TO.P,.,30,Pin_30*%
%TO.N,GND*%
X128042000Y-85542000D03*
%TO.P,.,31,Pin_31*%
%TO.N,/APIC_D0*%
X126772000Y-85542000D03*
%TO.P,.,32,Pin_32*%
%TO.N,/APIC_D1*%
X125502000Y-85542000D03*
%TO.P,.,33,Pin_33*%
%TO.N,/~{SMI_OUT}*%
X124232000Y-85542000D03*
%TO.P,.,34,Pin_34*%
%TO.N,/~{APIC_ACK2}*%
X122962000Y-85542000D03*
%TO.P,.,35,Pin_35*%
%TO.N,/~{APIC_REQ}*%
X121692000Y-85542000D03*
%TO.P,.,36,Pin_36*%
%TO.N,/~{APIC_ACK1}*%
X120422000Y-85542000D03*
%TO.P,.,37,Pin_37*%
%TO.N,/~{WR}*%
X119152000Y-85542000D03*
%TO.P,.,38,Pin_38*%
%TO.N,/~{RD}*%
X117882000Y-85542000D03*
%TO.P,.,39,Pin_39*%
%TO.N,/A0*%
X116612000Y-85542000D03*
%TO.P,.,40,Pin_40*%
%TO.N,/A1*%
X115342000Y-85542000D03*
%TO.P,.,41,Pin_41*%
%TO.N,/~{D{slash}I}*%
X114072000Y-85542000D03*
%TO.P,.,42,Pin_42*%
%TO.N,/INTIN0*%
X112802000Y-85542000D03*
%TO.P,.,43,Pin_43*%
%TO.N,/INTIN14*%
X111532000Y-85542000D03*
%TO.P,.,44,Pin_44*%
%TO.N,GND*%
X110262000Y-85542000D03*
%TO.P,.,45,Pin_45*%
%TO.N,/INTIN15*%
X108992000Y-85542000D03*
%TO.P,.,46,Pin_46*%
%TO.N,/INTIN12*%
X107722000Y-85542000D03*
%TO.P,.,47,Pin_47*%
%TO.N,/INTIN11*%
X106452000Y-85542000D03*
%TO.P,.,48,Pin_48*%
%TO.N,/INTIN10*%
X105182000Y-85542000D03*
%TO.P,.,49,Pin_49*%
%TO.N,/INTIN3*%
X103912000Y-85542000D03*
%TO.P,.,50,Pin_50*%
%TO.N,/INTIN4*%
X102642000Y-85542000D03*
%TD*%
D11*
%TO.P,C2,1*%
%TO.N,VCC*%
X114554000Y-68872500D03*
%TO.P,C2,2*%
%TO.N,GND*%
X114554000Y-65747500D03*
%TD*%
D12*
%TO.P,R3,1*%
%TO.N,/INTIN21*%
X118110000Y-74714000D03*
%TO.P,R3,2*%
%TO.N,VCC*%
X118110000Y-71614000D03*
%TD*%
%TO.P,R4,1*%
%TO.N,/INTIN22*%
X121666000Y-74702000D03*
%TO.P,R4,2*%
%TO.N,VCC*%
X121666000Y-71602000D03*
%TD*%
%TO.P,R2,1*%
%TO.N,/INTIN20*%
X114554000Y-74702000D03*
%TO.P,R2,2*%
%TO.N,VCC*%
X114554000Y-71602000D03*
%TD*%
D13*
%TO.N,/INTIN15*%
X108992000Y-68554000D03*
%TO.N,GND*%
X133350000Y-79248000D03*
X105410000Y-60706000D03*
X129540000Y-56642000D03*
X128016000Y-77978000D03*
X114554000Y-64262000D03*
X109728000Y-75438000D03*
%TO.N,VCC*%
X121412000Y-70104000D03*
X117856000Y-70104000D03*
X115316000Y-70358000D03*
%TO.N,GND*%
X129286000Y-76200000D03*
X135890000Y-73660000D03*
%TO.N,/INTIN20*%
X114554000Y-73406000D03*
%TO.N,/INTIN21*%
X118110000Y-73406000D03*
%TO.N,/INTIN22*%
X121666000Y-73406000D03*
D14*
%TO.N,/APIC_CLK*%
X131826000Y-80264000D03*
%TO.N,/PCI_CLK*%
X126492000Y-62738000D03*
%TO.N,/APIC_D0*%
X124460000Y-62992000D03*
%TO.N,/APIC_D1*%
X123444000Y-62738000D03*
%TO.N,/~{SMI_OUT}*%
X122428000Y-62992000D03*
%TO.N,/~{APIC_ACK2}*%
X120396000Y-62738000D03*
%TO.N,/~{APIC_REQ}*%
X119380000Y-62992000D03*
%TO.N,/~{RD}*%
X116332000Y-62738000D03*
%TO.N,/A0*%
X115316000Y-62992000D03*
%TO.N,/A1*%
X114300000Y-62738000D03*
%TO.N,/~{D{slash}I}*%
X113284000Y-62992000D03*
%TO.N,/INTIN14*%
X110236000Y-62738000D03*
%TO.N,/INTIN12*%
X108712000Y-65024000D03*
%TO.N,/INTIN11*%
X108712000Y-66294000D03*
%TO.N,/INTIN10*%
X105182000Y-67538000D03*
%TO.N,/INTIN3*%
X104140000Y-68326000D03*
%TO.N,/INTIN4*%
X102870000Y-69342000D03*
%TO.N,/~{APIC_ACK1}*%
X118364000Y-62738000D03*
%TO.N,/~{WR}*%
X117348000Y-62992000D03*
%TO.N,/INTIN0*%
X111252000Y-62992000D03*
%TD*%
D15*
%TO.N,/INTIN14*%
X111506000Y-76200000D02*
X111532000Y-76226000D01*
X111506000Y-64262000D02*
X111506000Y-76200000D01*
X110236000Y-62992000D02*
X111506000Y-64262000D01*
X110236000Y-62738000D02*
X110236000Y-62992000D01*
%TO.N,/INTIN0*%
X111760000Y-63500000D02*
X112014000Y-63754000D01*
X112014000Y-63754000D02*
X112014000Y-74930000D01*
X112802000Y-75718000D02*
X112014000Y-74930000D01*
X112802000Y-76734000D02*
X112802000Y-75718000D01*
%TO.N,/~{D{slash}I}*%
X114072000Y-76480000D02*
X112522000Y-74930000D01*
X112522000Y-67056000D02*
X112522000Y-63754000D01*
X114072000Y-77242000D02*
X114072000Y-76480000D01*
X112522000Y-74930000D02*
X112522000Y-67056000D01*
%TO.N,/A1*%
X113030000Y-74930000D02*
X113030000Y-67310000D01*
X115342000Y-77750000D02*
X115342000Y-77242000D01*
X113030000Y-67310000D02*
X113030000Y-64516000D01*
X115342000Y-77242000D02*
X113030000Y-74930000D01*
%TO.N,/INTIN15*%
X108992000Y-85542000D02*
X108992000Y-68554000D01*
%TO.N,VCC*%
X115062000Y-70104000D02*
X115316000Y-70358000D01*
X114554000Y-70104000D02*
X115062000Y-70104000D01*
X114554000Y-70104000D02*
X114554000Y-68872500D01*
X114554000Y-71602000D02*
X114554000Y-70104000D01*
X118110000Y-70358000D02*
X117856000Y-70104000D01*
X118110000Y-71614000D02*
X118110000Y-70358000D01*
X121666000Y-70358000D02*
X121412000Y-70104000D01*
X121666000Y-71602000D02*
X121666000Y-70358000D01*
%TO.N,/INTIN20*%
X114554000Y-73406000D02*
X114554000Y-74702000D01*
%TO.N,/INTIN21*%
X118110000Y-73406000D02*
X118110000Y-74714000D01*
%TO.N,/INTIN22*%
X121666000Y-73406000D02*
X121666000Y-74702000D01*
%TO.N,/APIC_CLK*%
X131826000Y-85516000D02*
X131852000Y-85542000D01*
X131826000Y-80264000D02*
X131826000Y-85516000D01*
%TO.N,/PCI_CLK*%
X126492000Y-75692000D02*
X126746000Y-75946000D01*
X129312000Y-78512000D02*
X126746000Y-75946000D01*
X126492000Y-62738000D02*
X126492000Y-75692000D01*
X129312000Y-85542000D02*
X129312000Y-78512000D01*
%TO.N,/APIC_D0*%
X126772000Y-85542000D02*
X126772000Y-76988000D01*
X126772000Y-76988000D02*
X125222000Y-75438000D01*
X125222000Y-68834000D02*
X124841000Y-68453000D01*
X124460000Y-62992000D02*
X124460000Y-68072000D01*
X124460000Y-68072000D02*
X124841000Y-68453000D01*
X125222000Y-75438000D02*
X125222000Y-68834000D01*
%TO.N,/APIC_D1*%
X125502000Y-76734000D02*
X124714000Y-75946000D01*
X123444000Y-68072000D02*
X123444000Y-62738000D01*
X124714000Y-75946000D02*
X124714000Y-69342000D01*
X124714000Y-69342000D02*
X123444000Y-68072000D01*
X125502000Y-85542000D02*
X125502000Y-76734000D01*
%TO.N,/~{SMI_OUT}*%
X122428000Y-68072000D02*
X122428000Y-62992000D01*
X124206000Y-85516000D02*
X124206000Y-69850000D01*
X124232000Y-85542000D02*
X124206000Y-85516000D01*
X124206000Y-69850000D02*
X122428000Y-68072000D01*
%TO.N,/~{APIC_ACK2}*%
X123698000Y-70358000D02*
X120396000Y-67056000D01*
X122962000Y-76682000D02*
X123698000Y-75946000D01*
X120396000Y-67056000D02*
X120396000Y-62738000D01*
X122962000Y-85542000D02*
X122962000Y-76682000D01*
X123698000Y-75946000D02*
X123698000Y-70358000D01*
%TO.N,/~{APIC_REQ}*%
X121692000Y-85542000D02*
X121692000Y-77190000D01*
X119380000Y-66802000D02*
X119380000Y-62992000D01*
X121692000Y-77190000D02*
X123190000Y-75692000D01*
X123190000Y-70612000D02*
X119380000Y-66802000D01*
X123190000Y-75692000D02*
X123190000Y-70612000D01*
%TO.N,/~{RD}*%
X116586000Y-64008000D02*
X116332000Y-63754000D01*
X116586000Y-77978000D02*
X116586000Y-64008000D01*
X117882000Y-85542000D02*
X117882000Y-79274000D01*
X117882000Y-79274000D02*
X116586000Y-77978000D01*
X116332000Y-63754000D02*
X116332000Y-62738000D01*
%TO.N,/A0*%
X116078000Y-78740000D02*
X116078000Y-64516000D01*
X115316000Y-63754000D02*
X115316000Y-62992000D01*
X116612000Y-85542000D02*
X116586000Y-85516000D01*
X116586000Y-79248000D02*
X116078000Y-78740000D01*
X116586000Y-85516000D02*
X116586000Y-79248000D01*
X116078000Y-64516000D02*
X115316000Y-63754000D01*
%TO.N,/A1*%
X115342000Y-85542000D02*
X115342000Y-77750000D01*
X114300000Y-63246000D02*
X114300000Y-62738000D01*
X113030000Y-64516000D02*
X114300000Y-63246000D01*
%TO.N,/~{D{slash}I}*%
X112522000Y-63754000D02*
X113284000Y-62992000D01*
X114072000Y-85542000D02*
X114072000Y-77242000D01*
%TO.N,/INTIN14*%
X111532000Y-85542000D02*
X111532000Y-76226000D01*
%TO.N,/INTIN12*%
X107722000Y-85542000D02*
X107722000Y-68554000D01*
X109474000Y-65786000D02*
X108712000Y-65024000D01*
X107722000Y-68554000D02*
X109474000Y-66802000D01*
X109474000Y-66802000D02*
X109474000Y-65786000D01*
%TO.N,/INTIN11*%
X106452000Y-85542000D02*
X106452000Y-68554000D01*
X106452000Y-68554000D02*
X108712000Y-66294000D01*
%TO.N,/INTIN10*%
X105182000Y-85542000D02*
X105182000Y-67538000D01*
%TO.N,/INTIN3*%
X103912000Y-85542000D02*
X103912000Y-68554000D01*
X103912000Y-68554000D02*
X104140000Y-68326000D01*
%TO.N,/INTIN4*%
X102642000Y-69570000D02*
X102870000Y-69342000D01*
X102642000Y-85542000D02*
X102642000Y-69570000D01*
%TO.N,/~{APIC_ACK1}*%
X120142000Y-70358000D02*
X118364000Y-68580000D01*
X120422000Y-85542000D02*
X120422000Y-76226000D01*
X118364000Y-68580000D02*
X118364000Y-62738000D01*
X120422000Y-76226000D02*
X120142000Y-75946000D01*
X120142000Y-75946000D02*
X120142000Y-70358000D01*
%TO.N,/~{WR}*%
X119634000Y-70612000D02*
X117348000Y-68326000D01*
X119152000Y-85542000D02*
X119152000Y-76428000D01*
X117348000Y-68326000D02*
X117348000Y-62992000D01*
X119152000Y-76428000D02*
X119634000Y-75946000D01*
X119634000Y-75946000D02*
X119634000Y-70612000D01*
%TO.N,/INTIN0*%
X112802000Y-85542000D02*
X112802000Y-76734000D01*
X111760000Y-63500000D02*
X111252000Y-62992000D01*
%TD*%
%TA.AperFunction,Conductor*%
%TO.N,GND*%
G36*
X138879621Y-55138502D02*
G01*
X138926114Y-55192158D01*
X138937500Y-55244500D01*
X138937500Y-81664569D01*
X138917498Y-81732690D01*
X138863842Y-81779183D01*
X138812355Y-81790565D01*
X134189804Y-81821799D01*
X134121551Y-81802258D01*
X134074697Y-81748917D01*
X134069431Y-81735679D01*
X134065871Y-81725007D01*
X134065867Y-81724997D01*
X134063550Y-81718054D01*
X133970478Y-81567652D01*
X133845303Y-81442695D01*
X133756974Y-81388248D01*
X133700968Y-81353725D01*
X133700966Y-81353724D01*
X133694738Y-81349885D01*
X133567662Y-81307736D01*
X133533389Y-81296368D01*
X133533387Y-81296368D01*
X133526861Y-81294203D01*
X133520025Y-81293503D01*
X133520022Y-81293502D01*
X133476969Y-81289091D01*
X133422400Y-81283500D01*
X132821600Y-81283500D01*
X132818354Y-81283837D01*
X132818350Y-81283837D01*
X132722692Y-81293762D01*
X132722688Y-81293763D01*
X132715834Y-81294474D01*
X132709292Y-81296657D01*
X132709290Y-81296657D01*
X132575377Y-81341334D01*
X132504427Y-81343919D01*
X132443343Y-81307736D01*
X132411518Y-81244272D01*
X132409500Y-81221811D01*
X132409500Y-81085980D01*
X132429502Y-81017859D01*
X132457925Y-80986693D01*
X132490199Y-80961477D01*
X132494225Y-80956813D01*
X132608994Y-80823852D01*
X132608995Y-80823850D01*
X132613023Y-80819184D01*
X132705870Y-80655744D01*
X132765203Y-80477382D01*
X132788762Y-80290892D01*
X132789138Y-80264000D01*
X132770795Y-80076926D01*
X132716465Y-79896977D01*
X132628218Y-79731008D01*
X132509415Y-79585340D01*
X132455603Y-79540823D01*
X132369329Y-79469450D01*
X132369324Y-79469447D01*
X132364580Y-79465522D01*
X132359161Y-79462592D01*
X132359158Y-79462590D01*
X132289671Y-79425019D01*
X132199231Y-79376119D01*
X132019666Y-79320534D01*
X132013541Y-79319890D01*
X132013540Y-79319890D01*
X131838852Y-79301529D01*
X131838851Y-79301529D01*
X131832724Y-79300885D01*
X131755673Y-79307897D01*
X131651665Y-79317363D01*
X131651662Y-79317364D01*
X131645526Y-79317922D01*
X131639620Y-79319660D01*
X131639616Y-79319661D01*
X131506278Y-79358905D01*
X131465202Y-79370994D01*
X131298621Y-79458080D01*
X131152128Y-79575864D01*
X131148170Y-79580582D01*
X131148167Y-79580584D01*
X131060797Y-79684708D01*
X131031302Y-79719859D01*
X131028338Y-79725251D01*
X131028335Y-79725255D01*
X131022176Y-79736459D01*
X130940746Y-79884580D01*
X130883909Y-80063752D01*
X130862956Y-80250552D01*
X130878685Y-80437865D01*
X130930497Y-80618555D01*
X130933312Y-80624032D01*
X130933313Y-80624035D01*
X131013603Y-80780263D01*
X131016418Y-80785740D01*
X131020241Y-80790564D01*
X131020244Y-80790568D01*
X131046625Y-80823852D01*
X131133177Y-80933052D01*
X131137870Y-80937046D01*
X131137871Y-80937047D01*
X131198163Y-80988359D01*
X131237076Y-81047741D01*
X131242500Y-81084313D01*
X131242500Y-81204979D01*
X131222498Y-81273100D01*
X131168842Y-81319593D01*
X131098568Y-81329697D01*
X131076833Y-81324572D01*
X130993293Y-81296863D01*
X130979914Y-81293995D01*
X130885562Y-81284328D01*
X130879145Y-81284000D01*
X130854115Y-81284000D01*
X130838876Y-81288475D01*
X130837671Y-81289865D01*
X130836000Y-81297548D01*
X130836000Y-81844459D01*
X130328000Y-81847892D01*
X130328000Y-81302116D01*
X130323525Y-81286877D01*
X130322135Y-81285672D01*
X130314452Y-81284001D01*
X130284905Y-81284001D01*
X130278386Y-81284338D01*
X130182794Y-81294257D01*
X130169400Y-81297149D01*
X130061376Y-81333188D01*
X129990426Y-81335772D01*
X129929342Y-81299588D01*
X129897518Y-81236124D01*
X129895500Y-81213664D01*
X129895500Y-78558503D01*
X129896578Y-78542056D01*
X129899457Y-78520188D01*
X129900535Y-78512000D01*
X129880481Y-78359676D01*
X129821686Y-78217733D01*
X129786225Y-78171519D01*
X129733180Y-78102389D01*
X129728157Y-78095843D01*
X129704097Y-78077381D01*
X129691707Y-78066514D01*
X127112405Y-75487212D01*
X127078379Y-75424900D01*
X127075500Y-75398117D01*
X127075500Y-63559980D01*
X127095502Y-63491859D01*
X127123925Y-63460693D01*
X127156199Y-63435477D01*
X127160225Y-63430813D01*
X127274994Y-63297852D01*
X127274995Y-63297850D01*
X127279023Y-63293184D01*
X127371870Y-63129744D01*
X127431203Y-62951382D01*
X127454762Y-62764892D01*
X127455138Y-62738000D01*
X127436795Y-62550926D01*
X127382465Y-62370977D01*
X127294218Y-62205008D01*
X127175415Y-62059340D01*
X127121603Y-62014823D01*
X127035329Y-61943450D01*
X127035324Y-61943447D01*
X127030580Y-61939522D01*
X127025161Y-61936592D01*
X127025158Y-61936590D01*
X126955671Y-61899019D01*
X126865231Y-61850119D01*
X126685666Y-61794534D01*
X126679541Y-61793890D01*
X126679540Y-61793890D01*
X126504852Y-61775529D01*
X126504851Y-61775529D01*
X126498724Y-61774885D01*
X126421673Y-61781897D01*
X126317665Y-61791363D01*
X126317662Y-61791364D01*
X126311526Y-61791922D01*
X126305620Y-61793660D01*
X126305616Y-61793661D01*
X126172278Y-61832905D01*
X126131202Y-61844994D01*
X125964621Y-61932080D01*
X125818128Y-62049864D01*
X125814170Y-62054582D01*
X125814167Y-62054584D01*
X125770143Y-62107050D01*
X125697302Y-62193859D01*
X125694338Y-62199251D01*
X125694335Y-62199255D01*
X125688176Y-62210459D01*
X125606746Y-62358580D01*
X125604885Y-62364447D01*
X125604884Y-62364449D01*
X125578425Y-62447859D01*
X125549909Y-62537752D01*
X125548336Y-62537253D01*
X125518395Y-62592719D01*
X125456248Y-62627043D01*
X125385408Y-62622319D01*
X125328368Y-62580047D01*
X125317621Y-62563206D01*
X125265116Y-62464459D01*
X125262218Y-62459008D01*
X125143415Y-62313340D01*
X125089603Y-62268823D01*
X125003329Y-62197450D01*
X125003324Y-62197447D01*
X124998580Y-62193522D01*
X124993161Y-62190592D01*
X124993158Y-62190590D01*
X124923671Y-62153019D01*
X124833231Y-62104119D01*
X124653666Y-62048534D01*
X124647541Y-62047890D01*
X124647540Y-62047890D01*
X124472852Y-62029529D01*
X124472851Y-62029529D01*
X124466724Y-62028885D01*
X124389673Y-62035897D01*
X124285665Y-62045363D01*
X124285662Y-62045364D01*
X124279526Y-62045922D01*
X124273616Y-62047661D01*
X124273613Y-62047662D01*
X124219635Y-62063548D01*
X124148638Y-62063592D01*
X124103746Y-62039759D01*
X123987329Y-61943450D01*
X123987324Y-61943447D01*
X123982580Y-61939522D01*
X123977161Y-61936592D01*
X123977158Y-61936590D01*
X123907671Y-61899019D01*
X123817231Y-61850119D01*
X123637666Y-61794534D01*
X123631541Y-61793890D01*
X123631540Y-61793890D01*
X123456852Y-61775529D01*
X123456851Y-61775529D01*
X123450724Y-61774885D01*
X123373673Y-61781897D01*
X123269665Y-61791363D01*
X123269662Y-61791364D01*
X123263526Y-61791922D01*
X123257620Y-61793660D01*
X123257616Y-61793661D01*
X123124278Y-61832905D01*
X123083202Y-61844994D01*
X122916621Y-61932080D01*
X122782264Y-62040106D01*
X122716643Y-62067202D01*
X122666055Y-62062274D01*
X122627556Y-62050357D01*
X122627554Y-62050357D01*
X122621666Y-62048534D01*
X122615541Y-62047890D01*
X122615540Y-62047890D01*
X122440852Y-62029529D01*
X122440851Y-62029529D01*
X122434724Y-62028885D01*
X122357673Y-62035897D01*
X122253665Y-62045363D01*
X122253662Y-62045364D01*
X122247526Y-62045922D01*
X122241620Y-62047660D01*
X122241616Y-62047661D01*
X122175222Y-62067202D01*
X122067202Y-62098994D01*
X121900621Y-62186080D01*
X121754128Y-62303864D01*
X121750170Y-62308582D01*
X121750167Y-62308584D01*
X121692864Y-62376876D01*
X121633302Y-62447859D01*
X121630338Y-62453251D01*
X121630335Y-62453255D01*
X121568804Y-62565180D01*
X121518458Y-62615239D01*
X121449041Y-62630132D01*
X121382592Y-62605131D01*
X121340208Y-62548174D01*
X121337767Y-62540897D01*
X121336818Y-62537752D01*
X121286465Y-62370977D01*
X121198218Y-62205008D01*
X121079415Y-62059340D01*
X121025603Y-62014823D01*
X120939329Y-61943450D01*
X120939324Y-61943447D01*
X120934580Y-61939522D01*
X120929161Y-61936592D01*
X120929158Y-61936590D01*
X120859671Y-61899019D01*
X120769231Y-61850119D01*
X120589666Y-61794534D01*
X120583541Y-61793890D01*
X120583540Y-61793890D01*
X120408852Y-61775529D01*
X120408851Y-61775529D01*
X120402724Y-61774885D01*
X120325673Y-61781897D01*
X120221665Y-61791363D01*
X120221662Y-61791364D01*
X120215526Y-61791922D01*
X120209620Y-61793660D01*
X120209616Y-61793661D01*
X120076278Y-61832905D01*
X120035202Y-61844994D01*
X119868621Y-61932080D01*
X119734264Y-62040106D01*
X119668643Y-62067202D01*
X119618055Y-62062274D01*
X119579556Y-62050357D01*
X119579554Y-62050357D01*
X119573666Y-62048534D01*
X119567541Y-62047890D01*
X119567540Y-62047890D01*
X119392852Y-62029529D01*
X119392851Y-62029529D01*
X119386724Y-62028885D01*
X119309673Y-62035897D01*
X119205665Y-62045363D01*
X119205662Y-62045364D01*
X119199526Y-62045922D01*
X119193616Y-62047661D01*
X119193613Y-62047662D01*
X119139635Y-62063548D01*
X119068638Y-62063592D01*
X119023746Y-62039759D01*
X118907329Y-61943450D01*
X118907324Y-61943447D01*
X118902580Y-61939522D01*
X118897161Y-61936592D01*
X118897158Y-61936590D01*
X118827671Y-61899019D01*
X118737231Y-61850119D01*
X118557666Y-61794534D01*
X118551541Y-61793890D01*
X118551540Y-61793890D01*
X118376852Y-61775529D01*
X118376851Y-61775529D01*
X118370724Y-61774885D01*
X118293673Y-61781897D01*
X118189665Y-61791363D01*
X118189662Y-61791364D01*
X118183526Y-61791922D01*
X118177620Y-61793660D01*
X118177616Y-61793661D01*
X118044278Y-61832905D01*
X118003202Y-61844994D01*
X117836621Y-61932080D01*
X117702264Y-62040106D01*
X117636643Y-62067202D01*
X117586055Y-62062274D01*
X117547556Y-62050357D01*
X117547554Y-62050357D01*
X117541666Y-62048534D01*
X117535541Y-62047890D01*
X117535540Y-62047890D01*
X117360852Y-62029529D01*
X117360851Y-62029529D01*
X117354724Y-62028885D01*
X117277673Y-62035897D01*
X117173665Y-62045363D01*
X117173662Y-62045364D01*
X117167526Y-62045922D01*
X117161616Y-62047661D01*
X117161613Y-62047662D01*
X117107635Y-62063548D01*
X117036638Y-62063592D01*
X116991746Y-62039759D01*
X116875329Y-61943450D01*
X116875324Y-61943447D01*
X116870580Y-61939522D01*
X116865161Y-61936592D01*
X116865158Y-61936590D01*
X116795671Y-61899019D01*
X116705231Y-61850119D01*
X116525666Y-61794534D01*
X116519541Y-61793890D01*
X116519540Y-61793890D01*
X116344852Y-61775529D01*
X116344851Y-61775529D01*
X116338724Y-61774885D01*
X116261673Y-61781897D01*
X116157665Y-61791363D01*
X116157662Y-61791364D01*
X116151526Y-61791922D01*
X116145620Y-61793660D01*
X116145616Y-61793661D01*
X116012278Y-61832905D01*
X115971202Y-61844994D01*
X115804621Y-61932080D01*
X115670264Y-62040106D01*
X115604643Y-62067202D01*
X115554055Y-62062274D01*
X115515556Y-62050357D01*
X115515554Y-62050357D01*
X115509666Y-62048534D01*
X115503541Y-62047890D01*
X115503540Y-62047890D01*
X115328852Y-62029529D01*
X115328851Y-62029529D01*
X115322724Y-62028885D01*
X115245673Y-62035897D01*
X115141665Y-62045363D01*
X115141662Y-62045364D01*
X115135526Y-62045922D01*
X115129616Y-62047661D01*
X115129613Y-62047662D01*
X115075635Y-62063548D01*
X115004638Y-62063592D01*
X114959746Y-62039759D01*
X114843329Y-61943450D01*
X114843324Y-61943447D01*
X114838580Y-61939522D01*
X114833161Y-61936592D01*
X114833158Y-61936590D01*
X114763671Y-61899019D01*
X114673231Y-61850119D01*
X114493666Y-61794534D01*
X114487541Y-61793890D01*
X114487540Y-61793890D01*
X114312852Y-61775529D01*
X114312851Y-61775529D01*
X114306724Y-61774885D01*
X114229673Y-61781897D01*
X114125665Y-61791363D01*
X114125662Y-61791364D01*
X114119526Y-61791922D01*
X114113620Y-61793660D01*
X114113616Y-61793661D01*
X113980278Y-61832905D01*
X113939202Y-61844994D01*
X113772621Y-61932080D01*
X113638264Y-62040106D01*
X113572643Y-62067202D01*
X113522055Y-62062274D01*
X113483556Y-62050357D01*
X113483554Y-62050357D01*
X113477666Y-62048534D01*
X113471541Y-62047890D01*
X113471540Y-62047890D01*
X113296852Y-62029529D01*
X113296851Y-62029529D01*
X113290724Y-62028885D01*
X113213673Y-62035897D01*
X113109665Y-62045363D01*
X113109662Y-62045364D01*
X113103526Y-62045922D01*
X113097620Y-62047660D01*
X113097616Y-62047661D01*
X113031222Y-62067202D01*
X112923202Y-62098994D01*
X112756621Y-62186080D01*
X112610128Y-62303864D01*
X112606170Y-62308582D01*
X112606167Y-62308584D01*
X112548864Y-62376876D01*
X112489302Y-62447859D01*
X112486338Y-62453251D01*
X112486335Y-62453255D01*
X112424804Y-62565180D01*
X112398746Y-62612580D01*
X112388597Y-62644572D01*
X112348936Y-62703455D01*
X112283734Y-62731548D01*
X112213694Y-62719931D01*
X112161054Y-62672292D01*
X112147875Y-62642894D01*
X112144247Y-62630879D01*
X112144247Y-62630878D01*
X112142465Y-62624977D01*
X112054218Y-62459008D01*
X111935415Y-62313340D01*
X111881603Y-62268823D01*
X111795329Y-62197450D01*
X111795324Y-62197447D01*
X111790580Y-62193522D01*
X111785161Y-62190592D01*
X111785158Y-62190590D01*
X111715671Y-62153019D01*
X111625231Y-62104119D01*
X111445666Y-62048534D01*
X111439541Y-62047890D01*
X111439540Y-62047890D01*
X111264852Y-62029529D01*
X111264851Y-62029529D01*
X111258724Y-62028885D01*
X111181673Y-62035897D01*
X111077665Y-62045363D01*
X111077662Y-62045364D01*
X111071526Y-62045922D01*
X111065616Y-62047661D01*
X111065613Y-62047662D01*
X111011635Y-62063548D01*
X110940638Y-62063592D01*
X110895746Y-62039759D01*
X110779329Y-61943450D01*
X110779324Y-61943447D01*
X110774580Y-61939522D01*
X110769161Y-61936592D01*
X110769158Y-61936590D01*
X110699671Y-61899019D01*
X110609231Y-61850119D01*
X110429666Y-61794534D01*
X110423541Y-61793890D01*
X110423540Y-61793890D01*
X110248852Y-61775529D01*
X110248851Y-61775529D01*
X110242724Y-61774885D01*
X110165673Y-61781897D01*
X110061665Y-61791363D01*
X110061662Y-61791364D01*
X110055526Y-61791922D01*
X110049620Y-61793660D01*
X110049616Y-61793661D01*
X109916278Y-61832905D01*
X109875202Y-61844994D01*
X109708621Y-61932080D01*
X109562128Y-62049864D01*
X109558170Y-62054582D01*
X109558167Y-62054584D01*
X109514143Y-62107050D01*
X109441302Y-62193859D01*
X109438338Y-62199251D01*
X109438335Y-62199255D01*
X109432176Y-62210459D01*
X109350746Y-62358580D01*
X109293909Y-62537752D01*
X109272956Y-62724552D01*
X109288685Y-62911865D01*
X109340497Y-63092555D01*
X109343312Y-63098032D01*
X109343313Y-63098035D01*
X109398482Y-63205382D01*
X109426418Y-63259740D01*
X109430241Y-63264564D01*
X109430244Y-63264568D01*
X109520064Y-63377891D01*
X109543177Y-63407052D01*
X109547871Y-63411047D01*
X109677936Y-63521741D01*
X109686324Y-63528880D01*
X109691702Y-63531886D01*
X109691704Y-63531887D01*
X109738988Y-63558313D01*
X109850409Y-63620584D01*
X109856269Y-63622488D01*
X110023319Y-63676766D01*
X110023322Y-63676767D01*
X110029180Y-63678670D01*
X110057809Y-63682084D01*
X110063402Y-63682751D01*
X110128675Y-63710679D01*
X110137577Y-63718770D01*
X110885595Y-64466788D01*
X110919621Y-64529100D01*
X110922500Y-64555883D01*
X110922500Y-76153497D01*
X110921422Y-76169944D01*
X110917465Y-76200000D01*
X110922500Y-76238244D01*
X110937519Y-76352324D01*
X110940678Y-76359951D01*
X110942817Y-76367933D01*
X110941421Y-76368307D01*
X110948500Y-76403899D01*
X110948500Y-81213603D01*
X110928498Y-81281724D01*
X110874842Y-81328217D01*
X110804568Y-81338321D01*
X110782832Y-81333196D01*
X110673290Y-81296862D01*
X110659914Y-81293995D01*
X110565562Y-81284328D01*
X110559145Y-81284000D01*
X110534115Y-81284000D01*
X110518876Y-81288475D01*
X110517671Y-81289865D01*
X110516000Y-81297548D01*
X110516000Y-81981757D01*
X110008000Y-81985189D01*
X110008000Y-81302116D01*
X110003525Y-81286877D01*
X110002135Y-81285672D01*
X109994452Y-81284001D01*
X109964905Y-81284001D01*
X109958386Y-81284338D01*
X109862794Y-81294257D01*
X109849400Y-81297149D01*
X109741376Y-81333188D01*
X109670426Y-81335772D01*
X109609342Y-81299588D01*
X109577518Y-81236124D01*
X109575500Y-81213664D01*
X109575500Y-69168854D01*
X109595502Y-69100733D01*
X109606236Y-69087737D01*
X109605637Y-69087235D01*
X109610161Y-69081843D01*
X109615266Y-69076982D01*
X109715643Y-68925902D01*
X109762233Y-68803255D01*
X109777555Y-68762920D01*
X109777556Y-68762918D01*
X109780055Y-68756338D01*
X109790548Y-68681676D01*
X109804748Y-68580639D01*
X109804748Y-68580636D01*
X109805299Y-68576717D01*
X109805616Y-68554000D01*
X109785397Y-68373745D01*
X109764209Y-68312900D01*
X109728064Y-68209106D01*
X109728062Y-68209103D01*
X109725745Y-68202448D01*
X109681644Y-68131871D01*
X109633359Y-68054598D01*
X109629626Y-68048624D01*
X109528292Y-67946580D01*
X109506778Y-67924915D01*
X109506774Y-67924912D01*
X109501815Y-67919918D01*
X109438509Y-67879743D01*
X109391712Y-67826356D01*
X109381206Y-67756141D01*
X109410329Y-67691392D01*
X109416929Y-67684264D01*
X109853707Y-67247486D01*
X109866098Y-67236618D01*
X109883611Y-67223180D01*
X109890157Y-67218157D01*
X109931369Y-67164449D01*
X109975294Y-67107204D01*
X109978656Y-67102823D01*
X109978656Y-67102822D01*
X109983686Y-67096268D01*
X109986845Y-67088641D01*
X109986847Y-67088638D01*
X110039321Y-66961954D01*
X110039322Y-66961951D01*
X110042481Y-66954324D01*
X110062535Y-66802000D01*
X110058578Y-66771944D01*
X110057500Y-66755497D01*
X110057500Y-65832503D01*
X110058578Y-65816056D01*
X110061457Y-65794188D01*
X110062535Y-65786000D01*
X110042481Y-65633676D01*
X109983686Y-65491733D01*
X109913640Y-65400446D01*
X109913637Y-65400443D01*
X109890157Y-65369843D01*
X109866106Y-65351388D01*
X109853715Y-65340521D01*
X109705997Y-65192803D01*
X109671971Y-65130491D01*
X109670085Y-65087917D01*
X109674322Y-65054374D01*
X109674762Y-65050892D01*
X109675138Y-65024000D01*
X109656795Y-64836926D01*
X109602465Y-64656977D01*
X109514218Y-64491008D01*
X109395415Y-64345340D01*
X109341603Y-64300823D01*
X109255329Y-64229450D01*
X109255324Y-64229447D01*
X109250580Y-64225522D01*
X109245161Y-64222592D01*
X109245158Y-64222590D01*
X109175671Y-64185019D01*
X109085231Y-64136119D01*
X108905666Y-64080534D01*
X108899541Y-64079890D01*
X108899540Y-64079890D01*
X108724852Y-64061529D01*
X108724851Y-64061529D01*
X108718724Y-64060885D01*
X108641673Y-64067897D01*
X108537665Y-64077363D01*
X108537662Y-64077364D01*
X108531526Y-64077922D01*
X108525620Y-64079660D01*
X108525616Y-64079661D01*
X108392278Y-64118905D01*
X108351202Y-64130994D01*
X108184621Y-64218080D01*
X108038128Y-64335864D01*
X108034170Y-64340582D01*
X108034167Y-64340584D01*
X108016277Y-64361905D01*
X107917302Y-64479859D01*
X107914338Y-64485251D01*
X107914335Y-64485255D01*
X107874894Y-64556999D01*
X107826746Y-64644580D01*
X107769909Y-64823752D01*
X107748956Y-65010552D01*
X107764685Y-65197865D01*
X107816497Y-65378555D01*
X107819312Y-65384032D01*
X107819313Y-65384035D01*
X107899603Y-65540263D01*
X107902418Y-65545740D01*
X107906244Y-65550567D01*
X107929014Y-65579296D01*
X107955651Y-65645106D01*
X107942480Y-65714870D01*
X107926792Y-65738549D01*
X107917302Y-65749859D01*
X107914338Y-65755251D01*
X107914335Y-65755255D01*
X107871868Y-65832503D01*
X107826746Y-65914580D01*
X107769909Y-66093752D01*
X107748956Y-66280552D01*
X107749472Y-66286695D01*
X107755783Y-66361848D01*
X107741552Y-66431404D01*
X107719320Y-66461487D01*
X106336861Y-67843946D01*
X106274549Y-67877972D01*
X106203734Y-67872907D01*
X106146898Y-67830360D01*
X106122087Y-67763840D01*
X106122760Y-67739059D01*
X106134947Y-67642584D01*
X106144762Y-67564892D01*
X106145138Y-67538000D01*
X106126795Y-67350926D01*
X106121811Y-67334416D01*
X106103991Y-67275395D01*
X106072465Y-67170977D01*
X105984218Y-67005008D01*
X105865415Y-66859340D01*
X105810979Y-66814307D01*
X105725329Y-66743450D01*
X105725324Y-66743447D01*
X105720580Y-66739522D01*
X105715161Y-66736592D01*
X105715158Y-66736590D01*
X105645671Y-66699019D01*
X105555231Y-66650119D01*
X105375666Y-66594534D01*
X105369541Y-66593890D01*
X105369540Y-66593890D01*
X105194852Y-66575529D01*
X105194851Y-66575529D01*
X105188724Y-66574885D01*
X105111673Y-66581897D01*
X105007665Y-66591363D01*
X105007662Y-66591364D01*
X105001526Y-66591922D01*
X104995620Y-66593660D01*
X104995616Y-66593661D01*
X104862278Y-66632905D01*
X104821202Y-66644994D01*
X104654621Y-66732080D01*
X104508128Y-66849864D01*
X104504170Y-66854582D01*
X104504167Y-66854584D01*
X104459663Y-66907622D01*
X104387302Y-66993859D01*
X104384338Y-66999251D01*
X104384335Y-66999255D01*
X104335197Y-67088638D01*
X104296746Y-67158580D01*
X104294885Y-67164447D01*
X104294884Y-67164449D01*
X104259646Y-67275532D01*
X104219982Y-67334416D01*
X104154780Y-67362508D01*
X104147245Y-67362940D01*
X104146724Y-67362885D01*
X104054092Y-67371315D01*
X103965665Y-67379363D01*
X103965662Y-67379364D01*
X103959526Y-67379922D01*
X103953620Y-67381660D01*
X103953616Y-67381661D01*
X103820278Y-67420905D01*
X103779202Y-67432994D01*
X103612621Y-67520080D01*
X103466128Y-67637864D01*
X103462170Y-67642582D01*
X103462167Y-67642584D01*
X103414725Y-67699124D01*
X103345302Y-67781859D01*
X103342338Y-67787251D01*
X103342335Y-67787255D01*
X103291489Y-67879745D01*
X103254746Y-67946580D01*
X103197909Y-68125752D01*
X103197223Y-68131871D01*
X103180051Y-68284957D01*
X103152580Y-68350424D01*
X103094076Y-68390646D01*
X103041667Y-68396222D01*
X102894411Y-68380744D01*
X102882852Y-68379529D01*
X102882851Y-68379529D01*
X102876724Y-68378885D01*
X102799673Y-68385897D01*
X102695665Y-68395363D01*
X102695662Y-68395364D01*
X102689526Y-68395922D01*
X102683620Y-68397660D01*
X102683616Y-68397661D01*
X102550518Y-68436834D01*
X102509202Y-68448994D01*
X102342621Y-68536080D01*
X102196128Y-68653864D01*
X102192170Y-68658582D01*
X102192167Y-68658584D01*
X102115992Y-68749366D01*
X102075302Y-68797859D01*
X102072338Y-68803251D01*
X102072335Y-68803255D01*
X102008532Y-68919314D01*
X101984746Y-68962580D01*
X101927909Y-69141752D01*
X101906956Y-69328552D01*
X101907472Y-69334696D01*
X101915513Y-69430450D01*
X101922685Y-69515865D01*
X101974497Y-69696555D01*
X101977312Y-69702032D01*
X101977313Y-69702035D01*
X102044567Y-69832897D01*
X102058500Y-69890491D01*
X102058500Y-77725560D01*
X102038498Y-77793681D01*
X101984842Y-77840174D01*
X101914568Y-77850278D01*
X101849988Y-77820784D01*
X101817483Y-77777010D01*
X101817416Y-77776860D01*
X101814949Y-77768229D01*
X101810161Y-77760641D01*
X101810158Y-77760634D01*
X101799170Y-77743220D01*
X101791030Y-77728135D01*
X101789859Y-77725560D01*
X101778792Y-77701218D01*
X101762030Y-77681765D01*
X101750927Y-77666761D01*
X101737224Y-77645042D01*
X101730499Y-77639103D01*
X101730496Y-77639099D01*
X101715062Y-77625468D01*
X101703018Y-77613276D01*
X101689573Y-77597673D01*
X101689570Y-77597671D01*
X101683713Y-77590873D01*
X101662165Y-77576906D01*
X101647291Y-77565615D01*
X101634783Y-77554569D01*
X101634782Y-77554568D01*
X101628049Y-77548622D01*
X101601287Y-77536057D01*
X101586309Y-77527737D01*
X101569017Y-77516529D01*
X101569012Y-77516527D01*
X101561485Y-77511648D01*
X101552892Y-77509078D01*
X101552887Y-77509076D01*
X101536880Y-77504289D01*
X101519436Y-77497628D01*
X101504324Y-77490533D01*
X101504322Y-77490532D01*
X101496200Y-77486719D01*
X101487333Y-77485338D01*
X101487332Y-77485338D01*
X101476773Y-77483694D01*
X101466983Y-77482170D01*
X101450268Y-77478387D01*
X101430534Y-77472485D01*
X101430528Y-77472484D01*
X101421934Y-77469914D01*
X101412963Y-77469859D01*
X101412962Y-77469859D01*
X101402903Y-77469798D01*
X101387494Y-77469704D01*
X101386711Y-77469671D01*
X101385614Y-77469500D01*
X101354623Y-77469500D01*
X101353853Y-77469498D01*
X101280215Y-77469048D01*
X101280214Y-77469048D01*
X101276279Y-77469024D01*
X101274935Y-77469408D01*
X101273590Y-77469500D01*
X96900500Y-77469500D01*
X96832379Y-77449498D01*
X96785886Y-77395842D01*
X96774500Y-77343500D01*
X96774500Y-55244500D01*
X96794502Y-55176379D01*
X96848158Y-55129886D01*
X96900500Y-55118500D01*
X138811500Y-55118500D01*
X138879621Y-55138502D01*
G37*
%TD.AperFunction*%
%TA.AperFunction,Conductor*%
G36*
X127564012Y-77589659D02*
G01*
X127570595Y-77595788D01*
X128691595Y-78716788D01*
X128725621Y-78779100D01*
X128728500Y-78805883D01*
X128728500Y-81213603D01*
X128708498Y-81281724D01*
X128654842Y-81328217D01*
X128584568Y-81338321D01*
X128562832Y-81333196D01*
X128453290Y-81296862D01*
X128439914Y-81293995D01*
X128345562Y-81284328D01*
X128339145Y-81284000D01*
X128314115Y-81284000D01*
X128298876Y-81288475D01*
X128297671Y-81289865D01*
X128296000Y-81297548D01*
X128296000Y-81861622D01*
X127788000Y-81865054D01*
X127788000Y-81302116D01*
X127783525Y-81286877D01*
X127782135Y-81285672D01*
X127774452Y-81284001D01*
X127744905Y-81284001D01*
X127738386Y-81284338D01*
X127642794Y-81294257D01*
X127629400Y-81297149D01*
X127521376Y-81333188D01*
X127450426Y-81335772D01*
X127389342Y-81299588D01*
X127357518Y-81236124D01*
X127355500Y-81213664D01*
X127355500Y-77684883D01*
X127375502Y-77616762D01*
X127429158Y-77570269D01*
X127499432Y-77560165D01*
X127564012Y-77589659D01*
G37*
%TD.AperFunction*%
%TA.AperFunction,Conductor*%
G36*
X114667477Y-63807882D02*
G01*
X114724313Y-63850429D01*
X114745151Y-63893324D01*
X114746441Y-63898140D01*
X114747519Y-63906324D01*
X114806314Y-64048267D01*
X114899843Y-64170157D01*
X114906389Y-64175180D01*
X114923898Y-64188615D01*
X114936289Y-64199483D01*
X115098711Y-64361905D01*
X115132737Y-64424217D01*
X115127672Y-64495032D01*
X115085125Y-64551868D01*
X115018605Y-64576679D01*
X115009616Y-64577000D01*
X114826115Y-64577000D01*
X114810876Y-64581475D01*
X114809671Y-64582865D01*
X114808000Y-64590548D01*
X114808000Y-66899884D01*
X114812475Y-66915123D01*
X114813865Y-66916328D01*
X114821548Y-66917999D01*
X115251095Y-66917999D01*
X115257614Y-66917662D01*
X115355497Y-66907506D01*
X115425318Y-66920371D01*
X115477100Y-66968942D01*
X115494500Y-67032833D01*
X115494500Y-67586531D01*
X115474498Y-67654652D01*
X115420842Y-67701145D01*
X115355658Y-67711875D01*
X115254400Y-67701500D01*
X113853600Y-67701500D01*
X113850356Y-67701837D01*
X113850348Y-67701837D01*
X113752503Y-67711989D01*
X113682682Y-67699124D01*
X113630900Y-67650553D01*
X113613500Y-67586662D01*
X113613500Y-67032966D01*
X113633502Y-66964845D01*
X113687158Y-66918352D01*
X113752342Y-66907622D01*
X113850438Y-66917672D01*
X113856854Y-66918000D01*
X114281885Y-66918000D01*
X114297124Y-66913525D01*
X114298329Y-66912135D01*
X114300000Y-66904452D01*
X114300000Y-64595116D01*
X114295525Y-64579877D01*
X114294135Y-64578672D01*
X114286452Y-64577001D01*
X114098382Y-64577001D01*
X114030261Y-64556999D01*
X113983768Y-64503343D01*
X113973664Y-64433069D01*
X114003158Y-64368489D01*
X114009287Y-64361906D01*
X114534350Y-63836843D01*
X114596662Y-63802817D01*
X114667477Y-63807882D01*
G37*
%TD.AperFunction*%
%TD*%
M02*
