%TF.GenerationSoftware,KiCad,Pcbnew,(6.0.5)*%
%TF.CreationDate,2023-06-09T12:11:34-05:00*%
%TF.ProjectId,pcchips_apic,70636368-6970-4735-9f61-7069632e6b69,rev?*%
%TF.SameCoordinates,Original*%
%TF.FileFunction,Copper,L1,Top*%
%TF.FilePolarity,Positive*%
%FSLAX46Y46*%
G04 Gerber Fmt 4.6, Leading zero omitted, Abs format (unit mm)*
G04 Created by KiCad (PCBNEW (6.0.5)) date 2023-06-09 12:11:34*
%MOMM*%
%LPD*%
G01*
G04 APERTURE LIST*
G04 Aperture macros list*
%AMRoundRect*
0 Rectangle with rounded corners*
0 $1 Rounding radius*
0 $2 $3 $4 $5 $6 $7 $8 $9 X,Y pos of 4 corners*
0 Add a 4 corners polygon primitive as box body*
4,1,4,$2,$3,$4,$5,$6,$7,$8,$9,$2,$3,0*
0 Add four circle primitives for the rounded corners*
1,1,$1+$1,$2,$3*
1,1,$1+$1,$4,$5*
1,1,$1+$1,$6,$7*
1,1,$1+$1,$8,$9*
0 Add four rect primitives between the rounded corners*
20,1,$1+$1,$2,$3,$4,$5,0*
20,1,$1+$1,$4,$5,$6,$7,0*
20,1,$1+$1,$6,$7,$8,$9,0*
20,1,$1+$1,$8,$9,$2,$3,0*%
G04 Aperture macros list end*
%TA.AperFunction,SMDPad,CuDef*%
%ADD10RoundRect,0.125000X-0.125000X-1.125000X0.125000X-1.125000X0.125000X1.125000X-0.125000X1.125000X0*%
%TD*%
%TA.AperFunction,SMDPad,CuDef*%
%ADD11RoundRect,0.125000X1.125000X-0.125000X1.125000X0.125000X-1.125000X0.125000X-1.125000X-0.125000X0*%
%TD*%
%TA.AperFunction,SMDPad,CuDef*%
%ADD12RoundRect,0.125000X0.125000X1.125000X-0.125000X1.125000X-0.125000X-1.125000X0.125000X-1.125000X0*%
%TD*%
%TA.AperFunction,SMDPad,CuDef*%
%ADD13RoundRect,0.125000X-1.125000X0.125000X-1.125000X-0.125000X1.125000X-0.125000X1.125000X0.125000X0*%
%TD*%
%TA.AperFunction,SMDPad,CuDef*%
%ADD14RoundRect,0.250000X0.650000X-0.412500X0.650000X0.412500X-0.650000X0.412500X-0.650000X-0.412500X0*%
%TD*%
%TA.AperFunction,SMDPad,CuDef*%
%ADD15RoundRect,0.250000X-0.250000X-3.500000X0.250000X-3.500000X0.250000X3.500000X-0.250000X3.500000X0*%
%TD*%
%TA.AperFunction,SMDPad,CuDef*%
%ADD16RoundRect,0.250000X0.400000X0.625000X-0.400000X0.625000X-0.400000X-0.625000X0.400000X-0.625000X0*%
%TD*%
%TA.AperFunction,SMDPad,CuDef*%
%ADD17RoundRect,0.250000X0.412500X0.650000X-0.412500X0.650000X-0.412500X-0.650000X0.412500X-0.650000X0*%
%TD*%
%TA.AperFunction,ViaPad*%
%ADD18C,0.600000*%
%TD*%
%TA.AperFunction,ViaPad*%
%ADD19C,0.900000*%
%TD*%
%TA.AperFunction,Conductor*%
%ADD20C,0.150000*%
%TD*%
%TA.AperFunction,Conductor*%
%ADD21C,0.400000*%
%TD*%
G04 APERTURE END LIST*
D10*
%TO.P,U1,1,GND*%
%TO.N,GND*%
X127110000Y-60920000D03*
%TO.P,U1,2,PCICLK*%
%TO.N,/PCI_CLK*%
X126110000Y-60920000D03*
%TO.P,U1,3,~{TESTIN}*%
%TO.N,/~{TEST_IN}*%
X125110000Y-60920000D03*
%TO.P,U1,4,APICD0*%
%TO.N,/APIC_D0*%
X124110000Y-60920000D03*
%TO.P,U1,5,APICD1*%
%TO.N,/APIC_D1*%
X123110000Y-60920000D03*
%TO.P,U1,6,~{SMIOUT}*%
%TO.N,/~{SMI_OUT}*%
X122110000Y-60920000D03*
%TO.P,U1,7*%
%TO.N,N/C*%
X121110000Y-60920000D03*
%TO.P,U1,8,~{APICACK2}*%
%TO.N,/~{APIC_ACK2}*%
X120110000Y-60920000D03*
%TO.P,U1,9,~{APICREQ}*%
%TO.N,/~{APIC_REQ}*%
X119110000Y-60920000D03*
%TO.P,U1,10,~{APICACK1}*%
%TO.N,/~{APIC_ACK1}*%
X118110000Y-60920000D03*
%TO.P,U1,11,~{WR}*%
%TO.N,/~{WR}*%
X117110000Y-60920000D03*
%TO.P,U1,12,~{RD}*%
%TO.N,/~{RD}*%
X116110000Y-60920000D03*
%TO.P,U1,13,A0*%
%TO.N,/A0*%
X115110000Y-60920000D03*
%TO.P,U1,14,A1*%
%TO.N,/A1*%
X114110000Y-60920000D03*
%TO.P,U1,15,~{D/I}*%
%TO.N,/~{D{slash}I}*%
X113110000Y-60920000D03*
%TO.P,U1,16,INTIN13*%
%TO.N,/INTIN13*%
X112110000Y-60920000D03*
%TO.P,U1,17,INTIN0*%
%TO.N,/INTIN0*%
X111110000Y-60920000D03*
%TO.P,U1,18,INTIN14*%
%TO.N,/INTIN14*%
X110110000Y-60920000D03*
%TO.P,U1,19,VCC*%
%TO.N,VCC*%
X109110000Y-60920000D03*
D11*
%TO.P,U1,20*%
%TO.N,N/C*%
X106860000Y-63170000D03*
%TO.P,U1,21,INTIN15*%
%TO.N,/INTIN15*%
X106860000Y-64170000D03*
%TO.P,U1,22,INTIN12*%
%TO.N,/INTIN12*%
X106860000Y-65170000D03*
%TO.P,U1,23,INTIN11*%
%TO.N,/INTIN11*%
X106860000Y-66170000D03*
%TO.P,U1,24,INTIN10*%
%TO.N,/INTIN10*%
X106860000Y-67170000D03*
%TO.P,U1,25,INTIN3*%
%TO.N,/INTIN3*%
X106860000Y-68170000D03*
%TO.P,U1,26,INTIN4*%
%TO.N,/INTIN4*%
X106860000Y-69170000D03*
%TO.P,U1,27,INTIN5*%
%TO.N,/INTIN5*%
X106860000Y-70170000D03*
%TO.P,U1,28,INTIN6*%
%TO.N,/INTIN6*%
X106860000Y-71170000D03*
%TO.P,U1,29,INTIN7*%
%TO.N,/INTIN7*%
X106860000Y-72170000D03*
%TO.P,U1,30,INTIN9*%
%TO.N,/INTIN9*%
X106860000Y-73170000D03*
%TO.P,U1,31,INTIN8*%
%TO.N,/INTIN8*%
X106860000Y-74170000D03*
%TO.P,U1,32*%
%TO.N,N/C*%
X106860000Y-75170000D03*
D12*
%TO.P,U1,33,GND*%
%TO.N,GND*%
X109110000Y-77470000D03*
%TO.P,U1,34,INTIN1*%
%TO.N,/INTIN1*%
X110110000Y-77470000D03*
%TO.P,U1,35,INTIN2*%
%TO.N,/INTIN2*%
X111110000Y-77470000D03*
%TO.P,U1,36*%
%TO.N,N/C*%
X112110000Y-77470000D03*
%TO.P,U1,37,INTIN16*%
%TO.N,/INTIN16*%
X113110000Y-77470000D03*
%TO.P,U1,38,INTIN17*%
%TO.N,/INTIN17*%
X114110000Y-77470000D03*
%TO.P,U1,39,INTIN18*%
%TO.N,/INTIN18*%
X115110000Y-77470000D03*
%TO.P,U1,40,INTIN19*%
%TO.N,/INTIN19*%
X116110000Y-77470000D03*
%TO.P,U1,41,INTIN20*%
%TO.N,/INTIN20*%
X117110000Y-77470000D03*
%TO.P,U1,42,INTIN21*%
%TO.N,/INTIN21*%
X118110000Y-77470000D03*
%TO.P,U1,43,INTIN22*%
%TO.N,/INTIN22*%
X119110000Y-77470000D03*
%TO.P,U1,44,INTIN23/~{SMI}*%
%TO.N,/INTIN23*%
X120110000Y-77470000D03*
%TO.P,U1,45*%
%TO.N,N/C*%
X121110000Y-77470000D03*
%TO.P,U1,46*%
X122110000Y-77470000D03*
%TO.P,U1,47*%
X123110000Y-77470000D03*
%TO.P,U1,48*%
X124110000Y-77470000D03*
%TO.P,U1,49*%
X125110000Y-77470000D03*
%TO.P,U1,50,D7*%
%TO.N,/D7*%
X126110000Y-77470000D03*
%TO.P,U1,51,VCC*%
%TO.N,VCC*%
X127110000Y-77470000D03*
D13*
%TO.P,U1,52,GND*%
%TO.N,GND*%
X129360000Y-75220000D03*
%TO.P,U1,53,D6*%
%TO.N,/D6*%
X129360000Y-74220000D03*
%TO.P,U1,54,D5*%
%TO.N,/D5*%
X129360000Y-73220000D03*
%TO.P,U1,55,D4*%
%TO.N,/D4*%
X129360000Y-72220000D03*
%TO.P,U1,56,D3*%
%TO.N,/D3*%
X129360000Y-71220000D03*
%TO.P,U1,57,D2*%
%TO.N,/D2*%
X129360000Y-70220000D03*
%TO.P,U1,58,D1*%
%TO.N,/D1*%
X129360000Y-69220000D03*
%TO.P,U1,59,D0*%
%TO.N,/D0*%
X129360000Y-68220000D03*
%TO.P,U1,60,RESET*%
%TO.N,/RST*%
X129360000Y-67220000D03*
%TO.P,U1,61,~{CS}*%
%TO.N,/~{CS}*%
X129360000Y-66220000D03*
%TO.P,U1,62,APICCLK*%
%TO.N,/APIC_CLK*%
X129360000Y-65220000D03*
%TO.P,U1,63*%
%TO.N,N/C*%
X129360000Y-64220000D03*
%TO.P,U1,64,VCC*%
%TO.N,VCC*%
X129360000Y-63220000D03*
%TD*%
D14*
%TO.P,C3,1*%
%TO.N,VCC*%
X129540000Y-61252500D03*
%TO.P,C3,2*%
%TO.N,GND*%
X129540000Y-58127500D03*
%TD*%
%TO.P,C4,1*%
%TO.N,VCC*%
X135636000Y-78270500D03*
%TO.P,C4,2*%
%TO.N,GND*%
X135636000Y-75145500D03*
%TD*%
D15*
%TO.P,.,1,Pin_1*%
%TO.N,/INTIN5*%
X102642000Y-85542000D03*
%TO.P,.,2,Pin_2*%
%TO.N,/INTIN6*%
X103912000Y-85542000D03*
%TO.P,.,3,Pin_3*%
%TO.N,/INTIN7*%
X105182000Y-85542000D03*
%TO.P,.,4,Pin_4*%
%TO.N,/INTIN9*%
X106452000Y-85542000D03*
%TO.P,.,5,Pin_5*%
%TO.N,/INTIN8*%
X107722000Y-85542000D03*
%TO.P,.,6,Pin_6*%
%TO.N,GND*%
X108992000Y-85542000D03*
%TO.P,.,7,Pin_7*%
%TO.N,/INTIN1*%
X110262000Y-85542000D03*
%TO.P,.,8,Pin_8*%
%TO.N,/INTIN2*%
X111532000Y-85542000D03*
%TO.P,.,9,Pin_9*%
%TO.N,/INTIN16*%
X112802000Y-85542000D03*
%TO.P,.,10,Pin_10*%
%TO.N,/INTIN17*%
X114072000Y-85542000D03*
%TO.P,.,11,Pin_11*%
%TO.N,/INTIN18*%
X115342000Y-85542000D03*
%TO.P,.,12,Pin_12*%
%TO.N,/INTIN19*%
X116612000Y-85542000D03*
%TO.P,.,13,Pin_13*%
%TO.N,/INTIN23*%
X117882000Y-85542000D03*
%TO.P,.,14,Pin_14*%
%TO.N,/D7*%
X119152000Y-85542000D03*
%TO.P,.,15,Pin_15*%
%TO.N,/D6*%
X120422000Y-85542000D03*
%TO.P,.,16,Pin_16*%
%TO.N,/D5*%
X121692000Y-85542000D03*
%TO.P,.,17,Pin_17*%
%TO.N,/D4*%
X122962000Y-85542000D03*
%TO.P,.,18,Pin_18*%
%TO.N,/D3*%
X124232000Y-85542000D03*
%TO.P,.,19,Pin_19*%
%TO.N,/D2*%
X125502000Y-85542000D03*
%TO.P,.,20,Pin_20*%
%TO.N,/D1*%
X126772000Y-85542000D03*
%TO.P,.,21,Pin_21*%
%TO.N,/D0*%
X128042000Y-85542000D03*
%TO.P,.,22,Pin_22*%
%TO.N,/RST*%
X129312000Y-85542000D03*
%TO.P,.,23,Pin_23*%
%TO.N,/~{CS}*%
X130582000Y-85542000D03*
%TO.P,.,24,Pin_24*%
%TO.N,GND*%
X131852000Y-85542000D03*
%TO.P,.,25,Pin_25*%
%TO.N,VCC*%
X133122000Y-85542000D03*
%TD*%
D16*
%TO.P,R1,1*%
%TO.N,/INTIN13*%
X112294000Y-57658000D03*
%TO.P,R1,2*%
%TO.N,VCC*%
X109194000Y-57658000D03*
%TD*%
%TO.P,R5,1*%
%TO.N,/~{TEST_IN}*%
X124994000Y-57658000D03*
%TO.P,R5,2*%
%TO.N,VCC*%
X121894000Y-57658000D03*
%TD*%
D17*
%TO.P,C1,1*%
%TO.N,VCC*%
X106972500Y-60706000D03*
%TO.P,C1,2*%
%TO.N,GND*%
X103847500Y-60706000D03*
%TD*%
D18*
%TO.N,/INTIN15*%
X108992000Y-68554000D03*
%TO.N,GND*%
X133350000Y-79248000D03*
X105410000Y-60706000D03*
X129540000Y-56642000D03*
X128016000Y-77978000D03*
X114554000Y-64262000D03*
X109728000Y-75438000D03*
%TO.N,VCC*%
X121412000Y-70104000D03*
X117856000Y-70104000D03*
X115316000Y-70358000D03*
%TO.N,GND*%
X129286000Y-76200000D03*
X135890000Y-73660000D03*
%TO.N,/INTIN20*%
X114554000Y-73406000D03*
%TO.N,/INTIN21*%
X118110000Y-73406000D03*
%TO.N,/INTIN22*%
X121666000Y-73406000D03*
D19*
%TO.N,/APIC_CLK*%
X131826000Y-80264000D03*
%TO.N,/PCI_CLK*%
X126492000Y-62738000D03*
%TO.N,/APIC_D0*%
X124460000Y-62992000D03*
%TO.N,/APIC_D1*%
X123444000Y-62738000D03*
%TO.N,/~{SMI_OUT}*%
X122428000Y-62992000D03*
%TO.N,/~{APIC_ACK2}*%
X120396000Y-62738000D03*
%TO.N,/~{APIC_REQ}*%
X119380000Y-62992000D03*
%TO.N,/~{RD}*%
X116332000Y-62738000D03*
%TO.N,/A0*%
X115316000Y-62992000D03*
%TO.N,/A1*%
X114300000Y-62738000D03*
%TO.N,/~{D{slash}I}*%
X113284000Y-62992000D03*
%TO.N,/INTIN14*%
X110236000Y-62738000D03*
%TO.N,/INTIN12*%
X108712000Y-65024000D03*
%TO.N,/INTIN11*%
X108712000Y-66294000D03*
%TO.N,/INTIN10*%
X105182000Y-67538000D03*
%TO.N,/INTIN3*%
X104140000Y-68326000D03*
%TO.N,/INTIN4*%
X102870000Y-69342000D03*
%TO.N,/~{APIC_ACK1}*%
X118364000Y-62738000D03*
%TO.N,/~{WR}*%
X117348000Y-62992000D03*
%TO.N,/INTIN0*%
X111252000Y-62992000D03*
%TD*%
D20*
%TO.N,/INTIN23*%
X117882000Y-79984000D02*
X117882000Y-85542000D01*
X119634000Y-79502000D02*
X118364000Y-79502000D01*
X118364000Y-79502000D02*
X117882000Y-79984000D01*
X120110000Y-79026000D02*
X119634000Y-79502000D01*
X120110000Y-77470000D02*
X120110000Y-79026000D01*
%TO.N,/INTIN15*%
X109474000Y-68072000D02*
X108992000Y-68554000D01*
X109058000Y-64170000D02*
X109474000Y-64586000D01*
X109474000Y-64586000D02*
X109474000Y-68072000D01*
%TO.N,VCC*%
X108896000Y-60706000D02*
X109110000Y-60920000D01*
D21*
X106972500Y-60706000D02*
X108896000Y-60706000D01*
%TO.N,GND*%
X105410000Y-60706000D02*
X103847500Y-60706000D01*
%TO.N,VCC*%
X135636000Y-80010000D02*
X135636000Y-78270500D01*
X133122000Y-82524000D02*
X135636000Y-80010000D01*
D20*
X133122000Y-85542000D02*
X133122000Y-82524000D01*
%TO.N,GND*%
X108992000Y-77588000D02*
X109110000Y-77470000D01*
D21*
X108992000Y-85542000D02*
X108992000Y-77588000D01*
X133350000Y-80264000D02*
X133350000Y-79248000D01*
D20*
X131852000Y-85542000D02*
X131852000Y-81762000D01*
D21*
X131852000Y-81762000D02*
X133350000Y-80264000D01*
D20*
%TO.N,/INTIN5*%
X106806000Y-70116000D02*
X106860000Y-70170000D01*
X104394000Y-70116000D02*
X106806000Y-70116000D01*
X102642000Y-71868000D02*
X104394000Y-70116000D01*
X102642000Y-85542000D02*
X102642000Y-71868000D01*
%TO.N,GND*%
X127110000Y-60557500D02*
X127110000Y-60920000D01*
D21*
X129540000Y-58127500D02*
X127110000Y-60557500D01*
X129540000Y-58127500D02*
X129540000Y-56642000D01*
X128016000Y-77470000D02*
X129286000Y-76200000D01*
X128016000Y-77978000D02*
X128016000Y-77470000D01*
X114554000Y-70612000D02*
X109728000Y-75438000D01*
X114554000Y-64262000D02*
X114554000Y-70612000D01*
X109110000Y-76056000D02*
X109728000Y-75438000D01*
X109110000Y-77470000D02*
X109110000Y-76056000D01*
D20*
X129360000Y-76126000D02*
X129286000Y-76200000D01*
D21*
X129360000Y-75220000D02*
X129360000Y-76126000D01*
X135636000Y-73914000D02*
X135890000Y-73660000D01*
X135636000Y-75145500D02*
X135636000Y-73914000D01*
D20*
%TO.N,/~{TEST_IN}*%
X125110000Y-60920000D02*
X125110000Y-57774000D01*
X125110000Y-57774000D02*
X124994000Y-57658000D01*
%TO.N,/INTIN13*%
X112110000Y-57842000D02*
X112294000Y-57658000D01*
X112110000Y-60920000D02*
X112110000Y-57842000D01*
%TO.N,/INTIN22*%
X119110000Y-75962000D02*
X121666000Y-73406000D01*
X119110000Y-77470000D02*
X119110000Y-75962000D01*
%TO.N,/INTIN21*%
X118110000Y-77470000D02*
X118110000Y-73406000D01*
%TO.N,/INTIN20*%
X117110000Y-75962000D02*
X114554000Y-73406000D01*
X117110000Y-77470000D02*
X117110000Y-75962000D01*
%TO.N,/INTIN6*%
X103848000Y-71170000D02*
X106860000Y-71170000D01*
X103124000Y-71894000D02*
X103848000Y-71170000D01*
X103912000Y-79286000D02*
X103124000Y-78498000D01*
X103912000Y-85542000D02*
X103912000Y-79286000D01*
X103124000Y-78498000D02*
X103124000Y-71894000D01*
%TO.N,/INTIN7*%
X103632000Y-72656000D02*
X104140000Y-72148000D01*
X104140000Y-72148000D02*
X106838000Y-72148000D01*
X105182000Y-85542000D02*
X105182000Y-79286000D01*
X103632000Y-77736000D02*
X103632000Y-72656000D01*
X105182000Y-79286000D02*
X103632000Y-77736000D01*
X106838000Y-72148000D02*
X106860000Y-72170000D01*
%TO.N,/INTIN9*%
X106854000Y-73164000D02*
X106860000Y-73170000D01*
X104140000Y-73418000D02*
X104394000Y-73164000D01*
X106452000Y-85542000D02*
X106452000Y-79286000D01*
X104394000Y-73164000D02*
X106854000Y-73164000D01*
X106452000Y-79286000D02*
X104140000Y-76974000D01*
X104140000Y-76974000D02*
X104140000Y-73418000D01*
%TO.N,/INTIN8*%
X107722000Y-85542000D02*
X107722000Y-79286000D01*
X107722000Y-79286000D02*
X104648000Y-76212000D01*
X104648000Y-76212000D02*
X104648000Y-74942000D01*
X104648000Y-74942000D02*
X105420000Y-74170000D01*
X105420000Y-74170000D02*
X106860000Y-74170000D01*
%TO.N,/INTIN1*%
X110262000Y-85542000D02*
X110262000Y-78626000D01*
%TO.N,/INTIN2*%
X111110000Y-78864000D02*
X111110000Y-77470000D01*
X111532000Y-79286000D02*
X111110000Y-78864000D01*
X111532000Y-85542000D02*
X111532000Y-79286000D01*
%TO.N,/INTIN16*%
X112802000Y-79234000D02*
X113110000Y-78926000D01*
X113110000Y-78926000D02*
X113110000Y-77470000D01*
X112802000Y-85542000D02*
X112802000Y-79234000D01*
%TO.N,/INTIN17*%
X114072000Y-85542000D02*
X114072000Y-78512000D01*
%TO.N,/INTIN18*%
X115342000Y-79286000D02*
X115062000Y-79006000D01*
X115342000Y-85542000D02*
X115342000Y-79286000D01*
X115062000Y-77518000D02*
X115110000Y-77470000D01*
X115062000Y-79006000D02*
X115062000Y-77518000D01*
%TO.N,/INTIN19*%
X116078000Y-78752000D02*
X116078000Y-77502000D01*
X116078000Y-77502000D02*
X116110000Y-77470000D01*
X116612000Y-79286000D02*
X116078000Y-78752000D01*
X116612000Y-85542000D02*
X116612000Y-79286000D01*
%TO.N,/D7*%
X125730000Y-79006000D02*
X120650000Y-79006000D01*
X119152000Y-80504000D02*
X119152000Y-85542000D01*
X120650000Y-79006000D02*
X119152000Y-80504000D01*
X126110000Y-78626000D02*
X125730000Y-79006000D01*
X126110000Y-77470000D02*
X126110000Y-78626000D01*
%TO.N,/D6*%
X129360000Y-74220000D02*
X130596000Y-74220000D01*
X120764538Y-79282520D02*
X120422000Y-79625058D01*
X120422000Y-79625058D02*
X120422000Y-85542000D01*
X127485480Y-79282520D02*
X120764538Y-79282520D01*
X131064000Y-74688000D02*
X131064000Y-75704000D01*
X131064000Y-75704000D02*
X127485480Y-79282520D01*
X130596000Y-74220000D02*
X131064000Y-74688000D01*
%TO.N,/D5*%
X121666000Y-79768000D02*
X121874960Y-79559040D01*
X121666000Y-85516000D02*
X121666000Y-79768000D01*
X131340520Y-75818538D02*
X131340520Y-73682520D01*
X127600018Y-79559040D02*
X131340520Y-75818538D01*
X121692000Y-85542000D02*
X121666000Y-85516000D01*
X131340520Y-73694520D02*
X131185000Y-73539000D01*
X131340520Y-73682520D02*
X131197000Y-73539000D01*
X131197000Y-73539000D02*
X131185000Y-73539000D01*
X131185000Y-73539000D02*
X130866000Y-73220000D01*
X130866000Y-73220000D02*
X129360000Y-73220000D01*
X121874960Y-79559040D02*
X127600018Y-79559040D01*
%TO.N,/D4*%
X122936000Y-82397455D02*
X122936000Y-80010000D01*
X122962000Y-85542000D02*
X122962000Y-82423455D01*
X122962000Y-82423455D02*
X122936000Y-82397455D01*
X131617040Y-72943040D02*
X130894000Y-72220000D01*
X123110440Y-79835560D02*
X127714556Y-79835560D01*
X131617040Y-75933076D02*
X131617040Y-72943040D01*
X127714556Y-79835560D02*
X131617040Y-75933076D01*
X130894000Y-72220000D02*
X129360000Y-72220000D01*
X122936000Y-80010000D02*
X123110440Y-79835560D01*
%TO.N,/D3*%
X131893560Y-76047614D02*
X131893560Y-72203560D01*
X131893560Y-72203560D02*
X130910000Y-71220000D01*
X124232000Y-80746000D02*
X124865920Y-80112080D01*
X127829094Y-80112080D02*
X131893560Y-76047614D01*
X124865920Y-80112080D02*
X127829094Y-80112080D01*
X130910000Y-71220000D02*
X129360000Y-71220000D01*
X124232000Y-85542000D02*
X124232000Y-80746000D01*
%TO.N,/D2*%
X132170080Y-71464080D02*
X130926000Y-70220000D01*
X130926000Y-70220000D02*
X129360000Y-70220000D01*
X132170080Y-76162152D02*
X132170080Y-71464080D01*
X125502000Y-81000000D02*
X126113400Y-80388600D01*
X126113400Y-80388600D02*
X127943632Y-80388600D01*
X125502000Y-85542000D02*
X125502000Y-81000000D01*
X127943632Y-80388600D02*
X132170080Y-76162152D01*
%TO.N,/D1*%
X130942000Y-69220000D02*
X129360000Y-69220000D01*
X126772000Y-81000000D02*
X127000000Y-80772000D01*
X132446600Y-70724600D02*
X130942000Y-69220000D01*
X132446600Y-76276690D02*
X132446600Y-70724600D01*
X126772000Y-85542000D02*
X126772000Y-81000000D01*
X127951290Y-80772000D02*
X132446600Y-76276690D01*
X127000000Y-80772000D02*
X127951290Y-80772000D01*
%TO.N,/D0*%
X132723120Y-69985120D02*
X130958000Y-68220000D01*
X132723120Y-76391228D02*
X132723120Y-69985120D01*
X128042000Y-81072348D02*
X132723120Y-76391228D01*
X130958000Y-68220000D02*
X129360000Y-68220000D01*
X128042000Y-85542000D02*
X128042000Y-81072348D01*
%TO.N,/RST*%
X129312000Y-80193406D02*
X132999640Y-76505766D01*
X130974000Y-67220000D02*
X129360000Y-67220000D01*
X132999640Y-69245640D02*
X130974000Y-67220000D01*
X129312000Y-85542000D02*
X129312000Y-80193406D01*
X132999640Y-76505766D02*
X132999640Y-69245640D01*
%TO.N,/~{CS}*%
X130582000Y-79314464D02*
X133276160Y-76620304D01*
X130990000Y-66220000D02*
X129360000Y-66220000D01*
X133276160Y-68506160D02*
X130990000Y-66220000D01*
X130582000Y-85542000D02*
X130582000Y-79314464D01*
X133276160Y-76620304D02*
X133276160Y-68506160D01*
%TO.N,/APIC_CLK*%
X131826000Y-78486000D02*
X131826000Y-80264000D01*
X133604000Y-67818000D02*
X133604000Y-76708000D01*
X131006000Y-65220000D02*
X133604000Y-67818000D01*
X133604000Y-76708000D02*
X131826000Y-78486000D01*
X129360000Y-65220000D02*
X131006000Y-65220000D01*
%TO.N,/PCI_CLK*%
X126110000Y-60920000D02*
X126110000Y-62356000D01*
X126110000Y-62356000D02*
X126492000Y-62738000D01*
%TO.N,/APIC_D0*%
X124206000Y-61016000D02*
X124206000Y-62738000D01*
X124110000Y-60920000D02*
X124206000Y-61016000D01*
X124206000Y-62738000D02*
X124460000Y-62992000D01*
%TO.N,/APIC_D1*%
X123110000Y-60920000D02*
X123110000Y-62404000D01*
X123110000Y-62404000D02*
X123444000Y-62738000D01*
%TO.N,/~{SMI_OUT}*%
X122110000Y-62674000D02*
X122428000Y-62992000D01*
X122110000Y-60920000D02*
X122110000Y-62674000D01*
%TO.N,/~{APIC_ACK2}*%
X120110000Y-60920000D02*
X120110000Y-62452000D01*
X120110000Y-62452000D02*
X120396000Y-62738000D01*
%TO.N,/~{APIC_REQ}*%
X119110000Y-62722000D02*
X119380000Y-62992000D01*
X119110000Y-60920000D02*
X119110000Y-62722000D01*
%TO.N,/~{RD}*%
X116110000Y-60920000D02*
X116110000Y-62516000D01*
X116110000Y-62516000D02*
X116332000Y-62738000D01*
%TO.N,/A0*%
X115110000Y-62786000D02*
X115316000Y-62992000D01*
X115110000Y-60920000D02*
X115110000Y-62786000D01*
%TO.N,/A1*%
X114110000Y-60920000D02*
X114110000Y-62548000D01*
X114110000Y-62548000D02*
X114300000Y-62738000D01*
%TO.N,/~{D{slash}I}*%
X113110000Y-62818000D02*
X113284000Y-62992000D01*
X113110000Y-60920000D02*
X113110000Y-62818000D01*
%TO.N,/INTIN14*%
X110110000Y-60920000D02*
X110110000Y-62612000D01*
X110110000Y-62612000D02*
X110236000Y-62738000D01*
%TO.N,/INTIN15*%
X106860000Y-64170000D02*
X109058000Y-64170000D01*
%TO.N,/INTIN12*%
X108566000Y-65170000D02*
X108712000Y-65024000D01*
X106860000Y-65170000D02*
X108566000Y-65170000D01*
%TO.N,/INTIN11*%
X106984000Y-66294000D02*
X106860000Y-66170000D01*
X108712000Y-66294000D02*
X106984000Y-66294000D01*
%TO.N,/INTIN10*%
X105182000Y-67538000D02*
X105550000Y-67170000D01*
X105550000Y-67170000D02*
X106860000Y-67170000D01*
%TO.N,/INTIN3*%
X106704000Y-68326000D02*
X106860000Y-68170000D01*
X104140000Y-68326000D02*
X106704000Y-68326000D01*
%TO.N,/INTIN4*%
X106688000Y-69342000D02*
X106860000Y-69170000D01*
X102870000Y-69342000D02*
X106688000Y-69342000D01*
%TO.N,/~{APIC_ACK1}*%
X118110000Y-60920000D02*
X118110000Y-62484000D01*
X118110000Y-62484000D02*
X118364000Y-62738000D01*
%TO.N,/~{WR}*%
X117110000Y-62754000D02*
X117348000Y-62992000D01*
X117110000Y-60920000D02*
X117110000Y-62754000D01*
%TO.N,/INTIN0*%
X111252000Y-62992000D02*
X111110000Y-62850000D01*
X111110000Y-60920000D02*
X111110000Y-62850000D01*
%TD*%
%TA.AperFunction,Conductor*%
%TO.N,VCC*%
G36*
X138879621Y-55138502D02*
G01*
X138926114Y-55192158D01*
X138937500Y-55244500D01*
X138937500Y-81664569D01*
X138917498Y-81732690D01*
X138863842Y-81779183D01*
X138812355Y-81790565D01*
X135018243Y-81816201D01*
X134189278Y-81821802D01*
X134121024Y-81802261D01*
X134074170Y-81748920D01*
X134068903Y-81735681D01*
X134065409Y-81725209D01*
X134059242Y-81712043D01*
X133973937Y-81574193D01*
X133964901Y-81562792D01*
X133850171Y-81448261D01*
X133838760Y-81439249D01*
X133700757Y-81354184D01*
X133687574Y-81348036D01*
X133566281Y-81307805D01*
X133507921Y-81267374D01*
X133480684Y-81201810D01*
X133493217Y-81131929D01*
X133516853Y-81099117D01*
X133830520Y-80785450D01*
X133836785Y-80779596D01*
X133837238Y-80779201D01*
X133880385Y-80741561D01*
X133917129Y-80689280D01*
X133921061Y-80683986D01*
X133955791Y-80639693D01*
X133960476Y-80633718D01*
X133963599Y-80626802D01*
X133964983Y-80624516D01*
X133973357Y-80609835D01*
X133974622Y-80607475D01*
X133978990Y-80601261D01*
X134002203Y-80541723D01*
X134004759Y-80535642D01*
X134019047Y-80504000D01*
X134031045Y-80477427D01*
X134032429Y-80469960D01*
X134033230Y-80467405D01*
X134037859Y-80451152D01*
X134038522Y-80448572D01*
X134041282Y-80441491D01*
X134049622Y-80378139D01*
X134050653Y-80371632D01*
X134060912Y-80316280D01*
X134062296Y-80308814D01*
X134058709Y-80246608D01*
X134058500Y-80239354D01*
X134058500Y-79678132D01*
X134071983Y-79622400D01*
X134073643Y-79619902D01*
X134090930Y-79574396D01*
X134135555Y-79456920D01*
X134135556Y-79456918D01*
X134138055Y-79450338D01*
X134139035Y-79443366D01*
X134162748Y-79274639D01*
X134162748Y-79274636D01*
X134163299Y-79270717D01*
X134163616Y-79248000D01*
X134163174Y-79244063D01*
X134162981Y-79240111D01*
X134164879Y-79240018D01*
X134175818Y-79177598D01*
X134223934Y-79125394D01*
X134292637Y-79107490D01*
X134360112Y-79129572D01*
X134387517Y-79155166D01*
X134393096Y-79162205D01*
X134507829Y-79276739D01*
X134519240Y-79285751D01*
X134657243Y-79370816D01*
X134670424Y-79376963D01*
X134824710Y-79428138D01*
X134838086Y-79431005D01*
X134932438Y-79440672D01*
X134938854Y-79441000D01*
X135363885Y-79441000D01*
X135379124Y-79436525D01*
X135380329Y-79435135D01*
X135382000Y-79427452D01*
X135382000Y-79422884D01*
X135890000Y-79422884D01*
X135894475Y-79438123D01*
X135895865Y-79439328D01*
X135903548Y-79440999D01*
X136333095Y-79440999D01*
X136339614Y-79440662D01*
X136435206Y-79430743D01*
X136448600Y-79427851D01*
X136602784Y-79376412D01*
X136615962Y-79370239D01*
X136753807Y-79284937D01*
X136765208Y-79275901D01*
X136879739Y-79161171D01*
X136888751Y-79149760D01*
X136973816Y-79011757D01*
X136979963Y-78998576D01*
X137031138Y-78844290D01*
X137034005Y-78830914D01*
X137043672Y-78736562D01*
X137044000Y-78730146D01*
X137044000Y-78542615D01*
X137039525Y-78527376D01*
X137038135Y-78526171D01*
X137030452Y-78524500D01*
X135908115Y-78524500D01*
X135892876Y-78528975D01*
X135891671Y-78530365D01*
X135890000Y-78538048D01*
X135890000Y-79422884D01*
X135382000Y-79422884D01*
X135382000Y-78542615D01*
X135377525Y-78527376D01*
X135376135Y-78526171D01*
X135368452Y-78524500D01*
X134246116Y-78524500D01*
X134230877Y-78528975D01*
X134229672Y-78530365D01*
X134228001Y-78538048D01*
X134228001Y-78687891D01*
X134207999Y-78756012D01*
X134154343Y-78802505D01*
X134084069Y-78812609D01*
X134019489Y-78783115D01*
X133995147Y-78754661D01*
X133987626Y-78742624D01*
X133972799Y-78727693D01*
X133864778Y-78618915D01*
X133864774Y-78618912D01*
X133859815Y-78613918D01*
X133848697Y-78606862D01*
X133747459Y-78542615D01*
X133706666Y-78516727D01*
X133677463Y-78506328D01*
X133542425Y-78458243D01*
X133542420Y-78458242D01*
X133535790Y-78455881D01*
X133528802Y-78455048D01*
X133528799Y-78455047D01*
X133405698Y-78440368D01*
X133355680Y-78434404D01*
X133348677Y-78435140D01*
X133348676Y-78435140D01*
X133182288Y-78452628D01*
X133182286Y-78452629D01*
X133175288Y-78453364D01*
X133003579Y-78511818D01*
X132934254Y-78554467D01*
X132865757Y-78573125D01*
X132798043Y-78551787D01*
X132752614Y-78497227D01*
X132743894Y-78426768D01*
X132779140Y-78358054D01*
X133138809Y-77998385D01*
X134228000Y-77998385D01*
X134232475Y-78013624D01*
X134233865Y-78014829D01*
X134241548Y-78016500D01*
X135363885Y-78016500D01*
X135379124Y-78012025D01*
X135380329Y-78010635D01*
X135382000Y-78002952D01*
X135382000Y-77998385D01*
X135890000Y-77998385D01*
X135894475Y-78013624D01*
X135895865Y-78014829D01*
X135903548Y-78016500D01*
X137025884Y-78016500D01*
X137041123Y-78012025D01*
X137042328Y-78010635D01*
X137043999Y-78002952D01*
X137043999Y-77810905D01*
X137043662Y-77804386D01*
X137033743Y-77708794D01*
X137030851Y-77695400D01*
X136979412Y-77541216D01*
X136973239Y-77528038D01*
X136887937Y-77390193D01*
X136878901Y-77378792D01*
X136764171Y-77264261D01*
X136752760Y-77255249D01*
X136614757Y-77170184D01*
X136601576Y-77164037D01*
X136447290Y-77112862D01*
X136433914Y-77109995D01*
X136339562Y-77100328D01*
X136333145Y-77100000D01*
X135908115Y-77100000D01*
X135892876Y-77104475D01*
X135891671Y-77105865D01*
X135890000Y-77113548D01*
X135890000Y-77998385D01*
X135382000Y-77998385D01*
X135382000Y-77118116D01*
X135377525Y-77102877D01*
X135376135Y-77101672D01*
X135368452Y-77100001D01*
X134938905Y-77100001D01*
X134932386Y-77100338D01*
X134836794Y-77110257D01*
X134823400Y-77113149D01*
X134669216Y-77164588D01*
X134656038Y-77170761D01*
X134518193Y-77256063D01*
X134506792Y-77265099D01*
X134392261Y-77379829D01*
X134383249Y-77391240D01*
X134298184Y-77529243D01*
X134292037Y-77542424D01*
X134240862Y-77696710D01*
X134237995Y-77710086D01*
X134228328Y-77804438D01*
X134228000Y-77810855D01*
X134228000Y-77998385D01*
X133138809Y-77998385D01*
X133983711Y-77153483D01*
X133996102Y-77142615D01*
X134013611Y-77129180D01*
X134013612Y-77129179D01*
X134020157Y-77124157D01*
X134043637Y-77093557D01*
X134043640Y-77093554D01*
X134113686Y-77002267D01*
X134172481Y-76860324D01*
X134192535Y-76708000D01*
X134188578Y-76677942D01*
X134187500Y-76661497D01*
X134187500Y-76136491D01*
X134207502Y-76068370D01*
X134261158Y-76021877D01*
X134331432Y-76011773D01*
X134396012Y-76041267D01*
X134402518Y-76047318D01*
X134477763Y-76122432D01*
X134512697Y-76157305D01*
X134518927Y-76161145D01*
X134518928Y-76161146D01*
X134656090Y-76245694D01*
X134663262Y-76250115D01*
X134743005Y-76276564D01*
X134824611Y-76303632D01*
X134824613Y-76303632D01*
X134831139Y-76305797D01*
X134837975Y-76306497D01*
X134837978Y-76306498D01*
X134881031Y-76310909D01*
X134935600Y-76316500D01*
X136336400Y-76316500D01*
X136339646Y-76316163D01*
X136339650Y-76316163D01*
X136435308Y-76306238D01*
X136435312Y-76306237D01*
X136442166Y-76305526D01*
X136448702Y-76303345D01*
X136448704Y-76303345D01*
X136580806Y-76259272D01*
X136609946Y-76249550D01*
X136760348Y-76156478D01*
X136885305Y-76031303D01*
X136897344Y-76011773D01*
X136974275Y-75886968D01*
X136974276Y-75886966D01*
X136978115Y-75880738D01*
X137017009Y-75763477D01*
X137031632Y-75719389D01*
X137031632Y-75719387D01*
X137033797Y-75712861D01*
X137034979Y-75701330D01*
X137044172Y-75611598D01*
X137044500Y-75608400D01*
X137044500Y-74682600D01*
X137043193Y-74670000D01*
X137034238Y-74583692D01*
X137034237Y-74583688D01*
X137033526Y-74576834D01*
X136977550Y-74409054D01*
X136884478Y-74258652D01*
X136856047Y-74230270D01*
X136764483Y-74138866D01*
X136759303Y-74133695D01*
X136698602Y-74096278D01*
X136651108Y-74043505D01*
X136639685Y-73973434D01*
X136646930Y-73944274D01*
X136648654Y-73939737D01*
X136678055Y-73862338D01*
X136693380Y-73753297D01*
X136702748Y-73686639D01*
X136702748Y-73686636D01*
X136703299Y-73682717D01*
X136703452Y-73671738D01*
X136703561Y-73663962D01*
X136703561Y-73663957D01*
X136703616Y-73660000D01*
X136683397Y-73479745D01*
X136664041Y-73424162D01*
X136626064Y-73315106D01*
X136626062Y-73315103D01*
X136623745Y-73308448D01*
X136527626Y-73154624D01*
X136513941Y-73140843D01*
X136404778Y-73030915D01*
X136404774Y-73030912D01*
X136399815Y-73025918D01*
X136388697Y-73018862D01*
X136325186Y-72978557D01*
X136246666Y-72928727D01*
X136217463Y-72918328D01*
X136082425Y-72870243D01*
X136082420Y-72870242D01*
X136075790Y-72867881D01*
X136068802Y-72867048D01*
X136068799Y-72867047D01*
X135945698Y-72852368D01*
X135895680Y-72846404D01*
X135888677Y-72847140D01*
X135888676Y-72847140D01*
X135722288Y-72864628D01*
X135722286Y-72864629D01*
X135715288Y-72865364D01*
X135543579Y-72923818D01*
X135537575Y-72927512D01*
X135395095Y-73015166D01*
X135395092Y-73015168D01*
X135389088Y-73018862D01*
X135384053Y-73023793D01*
X135384050Y-73023795D01*
X135264525Y-73140843D01*
X135259493Y-73145771D01*
X135161235Y-73298238D01*
X135158826Y-73304858D01*
X135158824Y-73304861D01*
X135122086Y-73405798D01*
X135104251Y-73435481D01*
X135105615Y-73436439D01*
X135068872Y-73488719D01*
X135064939Y-73494014D01*
X135025524Y-73544282D01*
X135022401Y-73551198D01*
X135021017Y-73553484D01*
X135012643Y-73568165D01*
X135011378Y-73570525D01*
X135007010Y-73576739D01*
X135004250Y-73583818D01*
X135004249Y-73583820D01*
X134983798Y-73636275D01*
X134981247Y-73642344D01*
X134954955Y-73700573D01*
X134953571Y-73708040D01*
X134952770Y-73710595D01*
X134948141Y-73726848D01*
X134947478Y-73729428D01*
X134944718Y-73736509D01*
X134938448Y-73784139D01*
X134936379Y-73799852D01*
X134935347Y-73806368D01*
X134928853Y-73841407D01*
X134923704Y-73869186D01*
X134923944Y-73873349D01*
X134900205Y-73938704D01*
X134843737Y-73981737D01*
X134831891Y-73985261D01*
X134829834Y-73985474D01*
X134823301Y-73987654D01*
X134823299Y-73987654D01*
X134702866Y-74027834D01*
X134662054Y-74041450D01*
X134511652Y-74134522D01*
X134506479Y-74139704D01*
X134402673Y-74243691D01*
X134340390Y-74277770D01*
X134269570Y-74272767D01*
X134212698Y-74230270D01*
X134187829Y-74163771D01*
X134187500Y-74154673D01*
X134187500Y-67864503D01*
X134188578Y-67848056D01*
X134191457Y-67826188D01*
X134192535Y-67818000D01*
X134172481Y-67665676D01*
X134168416Y-67655861D01*
X134147705Y-67605861D01*
X134113686Y-67523733D01*
X134043640Y-67432446D01*
X134043637Y-67432443D01*
X134042725Y-67431255D01*
X134025184Y-67408394D01*
X134025183Y-67408393D01*
X134020157Y-67401843D01*
X133996106Y-67383388D01*
X133983715Y-67372521D01*
X131451486Y-64840293D01*
X131440618Y-64827902D01*
X131427180Y-64810389D01*
X131422157Y-64803843D01*
X131300267Y-64710314D01*
X131170936Y-64656743D01*
X131115655Y-64612194D01*
X131093234Y-64544831D01*
X131098157Y-64505183D01*
X131108111Y-64470920D01*
X131113878Y-64451072D01*
X131113879Y-64451067D01*
X131115674Y-64444889D01*
X131117306Y-64424151D01*
X131118307Y-64411438D01*
X131118308Y-64411425D01*
X131118500Y-64408979D01*
X131118499Y-64031022D01*
X131115674Y-63995111D01*
X131071018Y-63841407D01*
X131036859Y-63783646D01*
X131019400Y-63714831D01*
X131036860Y-63655367D01*
X131066522Y-63605213D01*
X131072768Y-63590780D01*
X131102804Y-63487395D01*
X131102764Y-63473295D01*
X131095494Y-63470000D01*
X130622352Y-63470000D01*
X130597552Y-63466471D01*
X130597404Y-63467279D01*
X130591074Y-63466123D01*
X130584889Y-63464326D01*
X130572238Y-63463330D01*
X130551438Y-63461693D01*
X130551425Y-63461692D01*
X130548979Y-63461500D01*
X129360722Y-63461500D01*
X128171022Y-63461501D01*
X128160269Y-63462347D01*
X128141528Y-63463821D01*
X128141526Y-63463821D01*
X128135111Y-63464326D01*
X128128931Y-63466122D01*
X128122593Y-63467279D01*
X128122446Y-63466472D01*
X128097648Y-63470000D01*
X127630257Y-63470000D01*
X127616726Y-63473973D01*
X127615591Y-63481871D01*
X127647232Y-63590780D01*
X127653478Y-63605213D01*
X127683140Y-63655367D01*
X127700600Y-63724183D01*
X127683141Y-63783646D01*
X127648982Y-63841407D01*
X127646771Y-63849017D01*
X127607702Y-63983492D01*
X127604326Y-63995111D01*
X127603821Y-64001530D01*
X127601693Y-64028562D01*
X127601692Y-64028575D01*
X127601500Y-64031021D01*
X127601501Y-64408978D01*
X127601695Y-64411438D01*
X127601695Y-64411443D01*
X127603772Y-64437844D01*
X127604326Y-64444889D01*
X127648982Y-64598593D01*
X127671715Y-64637032D01*
X127682850Y-64655861D01*
X127700309Y-64724677D01*
X127682850Y-64784138D01*
X127648982Y-64841407D01*
X127646771Y-64849017D01*
X127607702Y-64983492D01*
X127604326Y-64995111D01*
X127603821Y-65001530D01*
X127601693Y-65028562D01*
X127601692Y-65028575D01*
X127601500Y-65031021D01*
X127601501Y-65408978D01*
X127604326Y-65444889D01*
X127648982Y-65598593D01*
X127653016Y-65605414D01*
X127682850Y-65655861D01*
X127700309Y-65724677D01*
X127682850Y-65784138D01*
X127648982Y-65841407D01*
X127646771Y-65849017D01*
X127607702Y-65983492D01*
X127604326Y-65995111D01*
X127603821Y-66001530D01*
X127601693Y-66028562D01*
X127601692Y-66028575D01*
X127601500Y-66031021D01*
X127601501Y-66408978D01*
X127604326Y-66444889D01*
X127648982Y-66598593D01*
X127653016Y-66605414D01*
X127682850Y-66655861D01*
X127700309Y-66724677D01*
X127682850Y-66784138D01*
X127648982Y-66841407D01*
X127604326Y-66995111D01*
X127603821Y-67001530D01*
X127601693Y-67028562D01*
X127601692Y-67028575D01*
X127601500Y-67031021D01*
X127601501Y-67408978D01*
X127601695Y-67411443D01*
X127603615Y-67435848D01*
X127604326Y-67444889D01*
X127648982Y-67598593D01*
X127653016Y-67605414D01*
X127682850Y-67655861D01*
X127700309Y-67724677D01*
X127682850Y-67784138D01*
X127648982Y-67841407D01*
X127646771Y-67849017D01*
X127616721Y-67952449D01*
X127604326Y-67995111D01*
X127603821Y-68001530D01*
X127601693Y-68028562D01*
X127601692Y-68028575D01*
X127601500Y-68031021D01*
X127601501Y-68408978D01*
X127604326Y-68444889D01*
X127648982Y-68598593D01*
X127653016Y-68605414D01*
X127682850Y-68655861D01*
X127700309Y-68724677D01*
X127682850Y-68784138D01*
X127648982Y-68841407D01*
X127646771Y-68849017D01*
X127615345Y-68957185D01*
X127604326Y-68995111D01*
X127603821Y-69001530D01*
X127601693Y-69028562D01*
X127601692Y-69028575D01*
X127601500Y-69031021D01*
X127601501Y-69408978D01*
X127604326Y-69444889D01*
X127648982Y-69598593D01*
X127653016Y-69605414D01*
X127682850Y-69655861D01*
X127700309Y-69724677D01*
X127682850Y-69784138D01*
X127648982Y-69841407D01*
X127646771Y-69849017D01*
X127607701Y-69983496D01*
X127604326Y-69995111D01*
X127603821Y-70001530D01*
X127601693Y-70028562D01*
X127601692Y-70028575D01*
X127601500Y-70031021D01*
X127601501Y-70408978D01*
X127604326Y-70444889D01*
X127648982Y-70598593D01*
X127678930Y-70649232D01*
X127682850Y-70655861D01*
X127700309Y-70724677D01*
X127682850Y-70784138D01*
X127648982Y-70841407D01*
X127646771Y-70849017D01*
X127607701Y-70983496D01*
X127604326Y-70995111D01*
X127603821Y-71001530D01*
X127601693Y-71028562D01*
X127601692Y-71028575D01*
X127601500Y-71031021D01*
X127601501Y-71408978D01*
X127601695Y-71411443D01*
X127603026Y-71428359D01*
X127604326Y-71444889D01*
X127648982Y-71598593D01*
X127653016Y-71605414D01*
X127682850Y-71655861D01*
X127700309Y-71724677D01*
X127682850Y-71784138D01*
X127648982Y-71841407D01*
X127646771Y-71849017D01*
X127607701Y-71983496D01*
X127604326Y-71995111D01*
X127603821Y-72001530D01*
X127601693Y-72028562D01*
X127601692Y-72028575D01*
X127601500Y-72031021D01*
X127601501Y-72408978D01*
X127604326Y-72444889D01*
X127648982Y-72598593D01*
X127656100Y-72610628D01*
X127682850Y-72655861D01*
X127700309Y-72724677D01*
X127682850Y-72784138D01*
X127648982Y-72841407D01*
X127646771Y-72849017D01*
X127607701Y-72983496D01*
X127604326Y-72995111D01*
X127603821Y-73001530D01*
X127601693Y-73028562D01*
X127601692Y-73028575D01*
X127601500Y-73031021D01*
X127601501Y-73408978D01*
X127604326Y-73444889D01*
X127648982Y-73598593D01*
X127673083Y-73639345D01*
X127682850Y-73655861D01*
X127700309Y-73724677D01*
X127682850Y-73784138D01*
X127648982Y-73841407D01*
X127646771Y-73849017D01*
X127606493Y-73987654D01*
X127604326Y-73995111D01*
X127603821Y-74001530D01*
X127601693Y-74028562D01*
X127601692Y-74028575D01*
X127601500Y-74031021D01*
X127601501Y-74408978D01*
X127604326Y-74444889D01*
X127648982Y-74598593D01*
X127653016Y-74605414D01*
X127682850Y-74655861D01*
X127700309Y-74724677D01*
X127682850Y-74784138D01*
X127648982Y-74841407D01*
X127646771Y-74849017D01*
X127607701Y-74983496D01*
X127604326Y-74995111D01*
X127603821Y-75001530D01*
X127601693Y-75028562D01*
X127601692Y-75028575D01*
X127601500Y-75031021D01*
X127601501Y-75408978D01*
X127604326Y-75444889D01*
X127606121Y-75451067D01*
X127643127Y-75578439D01*
X127647242Y-75592603D01*
X127648982Y-75598593D01*
X127648015Y-75598874D01*
X127655843Y-75662322D01*
X127625061Y-75726299D01*
X127564578Y-75763477D01*
X127493596Y-75762054D01*
X127481461Y-75757528D01*
X127480773Y-75757230D01*
X127377395Y-75727196D01*
X127363295Y-75727236D01*
X127360000Y-75734506D01*
X127360000Y-77173977D01*
X127348837Y-77225828D01*
X127334955Y-77256573D01*
X127333571Y-77264037D01*
X127332778Y-77266569D01*
X127328141Y-77282848D01*
X127327478Y-77285428D01*
X127324718Y-77292509D01*
X127323727Y-77300040D01*
X127323726Y-77300042D01*
X127316379Y-77355852D01*
X127315348Y-77362359D01*
X127303704Y-77425186D01*
X127304141Y-77432766D01*
X127304141Y-77432767D01*
X127307291Y-77487392D01*
X127307500Y-77494646D01*
X127307500Y-77547710D01*
X127291341Y-77602598D01*
X127294183Y-77604009D01*
X127291054Y-77610312D01*
X127287235Y-77616238D01*
X127279644Y-77637095D01*
X127237551Y-77694265D01*
X127171230Y-77719604D01*
X127161243Y-77720000D01*
X126994500Y-77720000D01*
X126926379Y-77699998D01*
X126879886Y-77646342D01*
X126868500Y-77594000D01*
X126868499Y-76283496D01*
X126868499Y-76281022D01*
X126865674Y-76245111D01*
X126863877Y-76238925D01*
X126862721Y-76232593D01*
X126863528Y-76232446D01*
X126860000Y-76207648D01*
X126860000Y-75740257D01*
X126856027Y-75726726D01*
X126848129Y-75725591D01*
X126739220Y-75757232D01*
X126724789Y-75763477D01*
X126674633Y-75793140D01*
X126605817Y-75810600D01*
X126546353Y-75793141D01*
X126546352Y-75793140D01*
X126488593Y-75758982D01*
X126480983Y-75756771D01*
X126341072Y-75716122D01*
X126341069Y-75716121D01*
X126334889Y-75714326D01*
X126322238Y-75713330D01*
X126301438Y-75711693D01*
X126301425Y-75711692D01*
X126298979Y-75711500D01*
X126110115Y-75711500D01*
X125921022Y-75711501D01*
X125913234Y-75712114D01*
X125891526Y-75713821D01*
X125891523Y-75713822D01*
X125885111Y-75714326D01*
X125815652Y-75734506D01*
X125739021Y-75756770D01*
X125731407Y-75758982D01*
X125724585Y-75763016D01*
X125724586Y-75763016D01*
X125674139Y-75792850D01*
X125605323Y-75810309D01*
X125545861Y-75792850D01*
X125495414Y-75763016D01*
X125495415Y-75763016D01*
X125488593Y-75758982D01*
X125480983Y-75756771D01*
X125341072Y-75716122D01*
X125341069Y-75716121D01*
X125334889Y-75714326D01*
X125322238Y-75713330D01*
X125301438Y-75711693D01*
X125301425Y-75711692D01*
X125298979Y-75711500D01*
X125110115Y-75711500D01*
X124921022Y-75711501D01*
X124913234Y-75712114D01*
X124891526Y-75713821D01*
X124891523Y-75713822D01*
X124885111Y-75714326D01*
X124815652Y-75734506D01*
X124739021Y-75756770D01*
X124731407Y-75758982D01*
X124724585Y-75763016D01*
X124724586Y-75763016D01*
X124674139Y-75792850D01*
X124605323Y-75810309D01*
X124545861Y-75792850D01*
X124495414Y-75763016D01*
X124495415Y-75763016D01*
X124488593Y-75758982D01*
X124480983Y-75756771D01*
X124341072Y-75716122D01*
X124341069Y-75716121D01*
X124334889Y-75714326D01*
X124322238Y-75713330D01*
X124301438Y-75711693D01*
X124301425Y-75711692D01*
X124298979Y-75711500D01*
X124110115Y-75711500D01*
X123921022Y-75711501D01*
X123913234Y-75712114D01*
X123891526Y-75713821D01*
X123891523Y-75713822D01*
X123885111Y-75714326D01*
X123815652Y-75734506D01*
X123739021Y-75756770D01*
X123731407Y-75758982D01*
X123724585Y-75763016D01*
X123724586Y-75763016D01*
X123674139Y-75792850D01*
X123605323Y-75810309D01*
X123545861Y-75792850D01*
X123495414Y-75763016D01*
X123495415Y-75763016D01*
X123488593Y-75758982D01*
X123480983Y-75756771D01*
X123341072Y-75716122D01*
X123341069Y-75716121D01*
X123334889Y-75714326D01*
X123322238Y-75713330D01*
X123301438Y-75711693D01*
X123301425Y-75711692D01*
X123298979Y-75711500D01*
X123110115Y-75711500D01*
X122921022Y-75711501D01*
X122913234Y-75712114D01*
X122891526Y-75713821D01*
X122891523Y-75713822D01*
X122885111Y-75714326D01*
X122815652Y-75734506D01*
X122739021Y-75756770D01*
X122731407Y-75758982D01*
X122724585Y-75763016D01*
X122724586Y-75763016D01*
X122674139Y-75792850D01*
X122605323Y-75810309D01*
X122545861Y-75792850D01*
X122495414Y-75763016D01*
X122495415Y-75763016D01*
X122488593Y-75758982D01*
X122480983Y-75756771D01*
X122341072Y-75716122D01*
X122341069Y-75716121D01*
X122334889Y-75714326D01*
X122322238Y-75713330D01*
X122301438Y-75711693D01*
X122301425Y-75711692D01*
X122298979Y-75711500D01*
X122110115Y-75711500D01*
X121921022Y-75711501D01*
X121913234Y-75712114D01*
X121891526Y-75713821D01*
X121891523Y-75713822D01*
X121885111Y-75714326D01*
X121815652Y-75734506D01*
X121739021Y-75756770D01*
X121731407Y-75758982D01*
X121724585Y-75763016D01*
X121724586Y-75763016D01*
X121674139Y-75792850D01*
X121605323Y-75810309D01*
X121545861Y-75792850D01*
X121495414Y-75763016D01*
X121495415Y-75763016D01*
X121488593Y-75758982D01*
X121480983Y-75756771D01*
X121341072Y-75716122D01*
X121341069Y-75716121D01*
X121334889Y-75714326D01*
X121322238Y-75713330D01*
X121301438Y-75711693D01*
X121301425Y-75711692D01*
X121298979Y-75711500D01*
X121110115Y-75711500D01*
X120921022Y-75711501D01*
X120913234Y-75712114D01*
X120891526Y-75713821D01*
X120891523Y-75713822D01*
X120885111Y-75714326D01*
X120815652Y-75734506D01*
X120739021Y-75756770D01*
X120731407Y-75758982D01*
X120724585Y-75763016D01*
X120724586Y-75763016D01*
X120674139Y-75792850D01*
X120605323Y-75810309D01*
X120545861Y-75792850D01*
X120495414Y-75763016D01*
X120495415Y-75763016D01*
X120488593Y-75758982D01*
X120480984Y-75756771D01*
X120480981Y-75756770D01*
X120424142Y-75740257D01*
X120421683Y-75739543D01*
X120361849Y-75701330D01*
X120332171Y-75636834D01*
X120342074Y-75566531D01*
X120367742Y-75529451D01*
X121648386Y-74248807D01*
X121710698Y-74214781D01*
X121726060Y-74212421D01*
X121829600Y-74202998D01*
X121836302Y-74200820D01*
X121836304Y-74200820D01*
X121995409Y-74149124D01*
X121995412Y-74149123D01*
X122002108Y-74146947D01*
X122157912Y-74054069D01*
X122289266Y-73928982D01*
X122389643Y-73777902D01*
X122441132Y-73642358D01*
X122451555Y-73614920D01*
X122451556Y-73614918D01*
X122454055Y-73608338D01*
X122457501Y-73583820D01*
X122478748Y-73432639D01*
X122478748Y-73432636D01*
X122479299Y-73428717D01*
X122479616Y-73406000D01*
X122459397Y-73225745D01*
X122457080Y-73219091D01*
X122402064Y-73061106D01*
X122402062Y-73061103D01*
X122399745Y-73054448D01*
X122375199Y-73015166D01*
X122307359Y-72906598D01*
X122303626Y-72900624D01*
X122289941Y-72886843D01*
X122180778Y-72776915D01*
X122180774Y-72776912D01*
X122175815Y-72771918D01*
X122164697Y-72764862D01*
X122094005Y-72720000D01*
X122022666Y-72674727D01*
X121969684Y-72655861D01*
X121858425Y-72616243D01*
X121858420Y-72616242D01*
X121851790Y-72613881D01*
X121844802Y-72613048D01*
X121844799Y-72613047D01*
X121721698Y-72598368D01*
X121671680Y-72592404D01*
X121664677Y-72593140D01*
X121664676Y-72593140D01*
X121498288Y-72610628D01*
X121498286Y-72610629D01*
X121491288Y-72611364D01*
X121319579Y-72669818D01*
X121313575Y-72673512D01*
X121171095Y-72761166D01*
X121171092Y-72761168D01*
X121165088Y-72764862D01*
X121160053Y-72769793D01*
X121160050Y-72769795D01*
X121040525Y-72886843D01*
X121035493Y-72891771D01*
X120937235Y-73044238D01*
X120934826Y-73050858D01*
X120934824Y-73050861D01*
X120894883Y-73160598D01*
X120875197Y-73214685D01*
X120874314Y-73221675D01*
X120857913Y-73351502D01*
X120829531Y-73416579D01*
X120822002Y-73424805D01*
X118908595Y-75338212D01*
X118846283Y-75372238D01*
X118775468Y-75367173D01*
X118718632Y-75324626D01*
X118693821Y-75258106D01*
X118693500Y-75249117D01*
X118693500Y-74020854D01*
X118713502Y-73952733D01*
X118724236Y-73939737D01*
X118723637Y-73939235D01*
X118728161Y-73933843D01*
X118733266Y-73928982D01*
X118833643Y-73777902D01*
X118885132Y-73642358D01*
X118895555Y-73614920D01*
X118895556Y-73614918D01*
X118898055Y-73608338D01*
X118901501Y-73583820D01*
X118922748Y-73432639D01*
X118922748Y-73432636D01*
X118923299Y-73428717D01*
X118923616Y-73406000D01*
X118903397Y-73225745D01*
X118901080Y-73219091D01*
X118846064Y-73061106D01*
X118846062Y-73061103D01*
X118843745Y-73054448D01*
X118819199Y-73015166D01*
X118751359Y-72906598D01*
X118747626Y-72900624D01*
X118733941Y-72886843D01*
X118624778Y-72776915D01*
X118624774Y-72776912D01*
X118619815Y-72771918D01*
X118608697Y-72764862D01*
X118538005Y-72720000D01*
X118466666Y-72674727D01*
X118413684Y-72655861D01*
X118302425Y-72616243D01*
X118302420Y-72616242D01*
X118295790Y-72613881D01*
X118288802Y-72613048D01*
X118288799Y-72613047D01*
X118165698Y-72598368D01*
X118115680Y-72592404D01*
X118108677Y-72593140D01*
X118108676Y-72593140D01*
X117942288Y-72610628D01*
X117942286Y-72610629D01*
X117935288Y-72611364D01*
X117763579Y-72669818D01*
X117757575Y-72673512D01*
X117615095Y-72761166D01*
X117615092Y-72761168D01*
X117609088Y-72764862D01*
X117604053Y-72769793D01*
X117604050Y-72769795D01*
X117484525Y-72886843D01*
X117479493Y-72891771D01*
X117381235Y-73044238D01*
X117378826Y-73050858D01*
X117378824Y-73050861D01*
X117338883Y-73160598D01*
X117319197Y-73214685D01*
X117296463Y-73394640D01*
X117314163Y-73575160D01*
X117371418Y-73747273D01*
X117375065Y-73753295D01*
X117375066Y-73753297D01*
X117461730Y-73896398D01*
X117461733Y-73896401D01*
X117465380Y-73902424D01*
X117491138Y-73929097D01*
X117524069Y-73991991D01*
X117526500Y-74016622D01*
X117526500Y-75249117D01*
X117506498Y-75317238D01*
X117452842Y-75363731D01*
X117382568Y-75373835D01*
X117317988Y-75344341D01*
X117311405Y-75338212D01*
X115397355Y-73424162D01*
X115363329Y-73361850D01*
X115361235Y-73349112D01*
X115348182Y-73232744D01*
X115347397Y-73225745D01*
X115345080Y-73219091D01*
X115290064Y-73061106D01*
X115290062Y-73061103D01*
X115287745Y-73054448D01*
X115263199Y-73015166D01*
X115195359Y-72906598D01*
X115191626Y-72900624D01*
X115177941Y-72886843D01*
X115068778Y-72776915D01*
X115068774Y-72776912D01*
X115063815Y-72771918D01*
X115052697Y-72764862D01*
X114982005Y-72720000D01*
X114910666Y-72674727D01*
X114857684Y-72655861D01*
X114746425Y-72616243D01*
X114746420Y-72616242D01*
X114739790Y-72613881D01*
X114732802Y-72613048D01*
X114732799Y-72613047D01*
X114609698Y-72598368D01*
X114559680Y-72592404D01*
X114552677Y-72593140D01*
X114552676Y-72593140D01*
X114386288Y-72610628D01*
X114386286Y-72610629D01*
X114379288Y-72611364D01*
X114207579Y-72669818D01*
X114201575Y-72673512D01*
X114059095Y-72761166D01*
X114059092Y-72761168D01*
X114053088Y-72764862D01*
X114048053Y-72769793D01*
X114048050Y-72769795D01*
X113928525Y-72886843D01*
X113923493Y-72891771D01*
X113825235Y-73044238D01*
X113822826Y-73050858D01*
X113822824Y-73050861D01*
X113782883Y-73160598D01*
X113763197Y-73214685D01*
X113740463Y-73394640D01*
X113758163Y-73575160D01*
X113815418Y-73747273D01*
X113819065Y-73753295D01*
X113819066Y-73753297D01*
X113905731Y-73896398D01*
X113909380Y-73902424D01*
X113914269Y-73907487D01*
X113914270Y-73907488D01*
X113957963Y-73952733D01*
X114035382Y-74032902D01*
X114187159Y-74132222D01*
X114193763Y-74134678D01*
X114193765Y-74134679D01*
X114350558Y-74192990D01*
X114350560Y-74192990D01*
X114357168Y-74195448D01*
X114500786Y-74214611D01*
X114565662Y-74243447D01*
X114573216Y-74250409D01*
X115852258Y-75529451D01*
X115886284Y-75591763D01*
X115881219Y-75662578D01*
X115838672Y-75719414D01*
X115798317Y-75739542D01*
X115795858Y-75740257D01*
X115739019Y-75756770D01*
X115739016Y-75756771D01*
X115731407Y-75758982D01*
X115724585Y-75763016D01*
X115724586Y-75763016D01*
X115674139Y-75792850D01*
X115605323Y-75810309D01*
X115545861Y-75792850D01*
X115495414Y-75763016D01*
X115495415Y-75763016D01*
X115488593Y-75758982D01*
X115480983Y-75756771D01*
X115341072Y-75716122D01*
X115341069Y-75716121D01*
X115334889Y-75714326D01*
X115322238Y-75713330D01*
X115301438Y-75711693D01*
X115301425Y-75711692D01*
X115298979Y-75711500D01*
X115110115Y-75711500D01*
X114921022Y-75711501D01*
X114913234Y-75712114D01*
X114891526Y-75713821D01*
X114891523Y-75713822D01*
X114885111Y-75714326D01*
X114815652Y-75734506D01*
X114739021Y-75756770D01*
X114731407Y-75758982D01*
X114724585Y-75763016D01*
X114724586Y-75763016D01*
X114674139Y-75792850D01*
X114605323Y-75810309D01*
X114545861Y-75792850D01*
X114495414Y-75763016D01*
X114495415Y-75763016D01*
X114488593Y-75758982D01*
X114480983Y-75756771D01*
X114341072Y-75716122D01*
X114341069Y-75716121D01*
X114334889Y-75714326D01*
X114322238Y-75713330D01*
X114301438Y-75711693D01*
X114301425Y-75711692D01*
X114298979Y-75711500D01*
X114110115Y-75711500D01*
X113921022Y-75711501D01*
X113913234Y-75712114D01*
X113891526Y-75713821D01*
X113891523Y-75713822D01*
X113885111Y-75714326D01*
X113815652Y-75734506D01*
X113739021Y-75756770D01*
X113731407Y-75758982D01*
X113724585Y-75763016D01*
X113724586Y-75763016D01*
X113674139Y-75792850D01*
X113605323Y-75810309D01*
X113545861Y-75792850D01*
X113495414Y-75763016D01*
X113495415Y-75763016D01*
X113488593Y-75758982D01*
X113480983Y-75756771D01*
X113341072Y-75716122D01*
X113341069Y-75716121D01*
X113334889Y-75714326D01*
X113322238Y-75713330D01*
X113301438Y-75711693D01*
X113301425Y-75711692D01*
X113298979Y-75711500D01*
X113110115Y-75711500D01*
X112921022Y-75711501D01*
X112913234Y-75712114D01*
X112891526Y-75713821D01*
X112891523Y-75713822D01*
X112885111Y-75714326D01*
X112815652Y-75734506D01*
X112739021Y-75756770D01*
X112731407Y-75758982D01*
X112724585Y-75763016D01*
X112724586Y-75763016D01*
X112674139Y-75792850D01*
X112605323Y-75810309D01*
X112545861Y-75792850D01*
X112495414Y-75763016D01*
X112495415Y-75763016D01*
X112488593Y-75758982D01*
X112480983Y-75756771D01*
X112341072Y-75716122D01*
X112341069Y-75716121D01*
X112334889Y-75714326D01*
X112322238Y-75713330D01*
X112301438Y-75711693D01*
X112301425Y-75711692D01*
X112298979Y-75711500D01*
X112110115Y-75711500D01*
X111921022Y-75711501D01*
X111913234Y-75712114D01*
X111891526Y-75713821D01*
X111891523Y-75713822D01*
X111885111Y-75714326D01*
X111815652Y-75734506D01*
X111739021Y-75756770D01*
X111731407Y-75758982D01*
X111724585Y-75763016D01*
X111724586Y-75763016D01*
X111674139Y-75792850D01*
X111605323Y-75810309D01*
X111545861Y-75792850D01*
X111495414Y-75763016D01*
X111495415Y-75763016D01*
X111488593Y-75758982D01*
X111480983Y-75756771D01*
X111341072Y-75716122D01*
X111341069Y-75716121D01*
X111334889Y-75714326D01*
X111322238Y-75713330D01*
X111301438Y-75711693D01*
X111301425Y-75711692D01*
X111298979Y-75711500D01*
X111110115Y-75711500D01*
X110921022Y-75711501D01*
X110913234Y-75712114D01*
X110891526Y-75713821D01*
X110891523Y-75713822D01*
X110885111Y-75714326D01*
X110748211Y-75754100D01*
X110677214Y-75753897D01*
X110617598Y-75715344D01*
X110588289Y-75650679D01*
X110598593Y-75580434D01*
X110623962Y-75544008D01*
X115034520Y-71133450D01*
X115040785Y-71127596D01*
X115078660Y-71094555D01*
X115084385Y-71089561D01*
X115121114Y-71037300D01*
X115125046Y-71032005D01*
X115153975Y-70995111D01*
X115164477Y-70981718D01*
X115167602Y-70974796D01*
X115168964Y-70972548D01*
X115177368Y-70957815D01*
X115178622Y-70955476D01*
X115182990Y-70949261D01*
X115185749Y-70942185D01*
X115185751Y-70942181D01*
X115206200Y-70889731D01*
X115208749Y-70883666D01*
X115235045Y-70825427D01*
X115236429Y-70817962D01*
X115237226Y-70815418D01*
X115241859Y-70799152D01*
X115242521Y-70796572D01*
X115245282Y-70789491D01*
X115253622Y-70726143D01*
X115254653Y-70719629D01*
X115263852Y-70670000D01*
X115266296Y-70656813D01*
X115262709Y-70594602D01*
X115262500Y-70587349D01*
X115262500Y-64692132D01*
X115275983Y-64636400D01*
X115277643Y-64633902D01*
X115285890Y-64612194D01*
X115339555Y-64470920D01*
X115339556Y-64470918D01*
X115342055Y-64464338D01*
X115343035Y-64457366D01*
X115366748Y-64288639D01*
X115366748Y-64288636D01*
X115367299Y-64284717D01*
X115367616Y-64262000D01*
X115347397Y-64081745D01*
X115352125Y-64081215D01*
X115350511Y-64036591D01*
X115386711Y-63975517D01*
X115450183Y-63943709D01*
X115462945Y-63942068D01*
X115465335Y-63941884D01*
X115477104Y-63940979D01*
X115477107Y-63940978D01*
X115483247Y-63940506D01*
X115627469Y-63900238D01*
X115658350Y-63891616D01*
X115658353Y-63891615D01*
X115664294Y-63889956D01*
X115669798Y-63887176D01*
X115669800Y-63887175D01*
X115826574Y-63807983D01*
X115826576Y-63807982D01*
X115832075Y-63805204D01*
X115979760Y-63689820D01*
X116045754Y-63663642D01*
X116096267Y-63669276D01*
X116125180Y-63678670D01*
X116311830Y-63700927D01*
X116317965Y-63700455D01*
X116317967Y-63700455D01*
X116493105Y-63686979D01*
X116493109Y-63686978D01*
X116499247Y-63686506D01*
X116558364Y-63670000D01*
X116574650Y-63665453D01*
X116645640Y-63666399D01*
X116690197Y-63690857D01*
X116705214Y-63703637D01*
X116798324Y-63782880D01*
X116803702Y-63785886D01*
X116803704Y-63785887D01*
X116880367Y-63828732D01*
X116962409Y-63874584D01*
X117141180Y-63932670D01*
X117327830Y-63954927D01*
X117333965Y-63954455D01*
X117333967Y-63954455D01*
X117509105Y-63940979D01*
X117509109Y-63940978D01*
X117515247Y-63940506D01*
X117659469Y-63900238D01*
X117690350Y-63891616D01*
X117690353Y-63891615D01*
X117696294Y-63889956D01*
X117701798Y-63887176D01*
X117701800Y-63887175D01*
X117858574Y-63807983D01*
X117858576Y-63807982D01*
X117864075Y-63805204D01*
X118011760Y-63689820D01*
X118077754Y-63663642D01*
X118128267Y-63669276D01*
X118157180Y-63678670D01*
X118343830Y-63700927D01*
X118349965Y-63700455D01*
X118349967Y-63700455D01*
X118525105Y-63686979D01*
X118525109Y-63686978D01*
X118531247Y-63686506D01*
X118590364Y-63670000D01*
X118606650Y-63665453D01*
X118677640Y-63666399D01*
X118722197Y-63690857D01*
X118737214Y-63703637D01*
X118830324Y-63782880D01*
X118835702Y-63785886D01*
X118835704Y-63785887D01*
X118912367Y-63828732D01*
X118994409Y-63874584D01*
X119173180Y-63932670D01*
X119359830Y-63954927D01*
X119365965Y-63954455D01*
X119365967Y-63954455D01*
X119541105Y-63940979D01*
X119541109Y-63940978D01*
X119547247Y-63940506D01*
X119691469Y-63900238D01*
X119722350Y-63891616D01*
X119722353Y-63891615D01*
X119728294Y-63889956D01*
X119733798Y-63887176D01*
X119733800Y-63887175D01*
X119890574Y-63807983D01*
X119890576Y-63807982D01*
X119896075Y-63805204D01*
X120043760Y-63689820D01*
X120109754Y-63663642D01*
X120160267Y-63669276D01*
X120189180Y-63678670D01*
X120375830Y-63700927D01*
X120381965Y-63700455D01*
X120381967Y-63700455D01*
X120557105Y-63686979D01*
X120557109Y-63686978D01*
X120563247Y-63686506D01*
X120657055Y-63660314D01*
X120738350Y-63637616D01*
X120738353Y-63637615D01*
X120744294Y-63635956D01*
X120749798Y-63633176D01*
X120749800Y-63633175D01*
X120906574Y-63553983D01*
X120906576Y-63553982D01*
X120912075Y-63551204D01*
X121060199Y-63435477D01*
X121068944Y-63425346D01*
X121178994Y-63297852D01*
X121178995Y-63297850D01*
X121183023Y-63293184D01*
X121257044Y-63162884D01*
X121308082Y-63113535D01*
X121377700Y-63099612D01*
X121443794Y-63125538D01*
X121485378Y-63183081D01*
X121487718Y-63190392D01*
X121530171Y-63338442D01*
X121532497Y-63346555D01*
X121535312Y-63352032D01*
X121535313Y-63352035D01*
X121615603Y-63508263D01*
X121618418Y-63513740D01*
X121622241Y-63518564D01*
X121622244Y-63518568D01*
X121687137Y-63600441D01*
X121735177Y-63661052D01*
X121739871Y-63665047D01*
X121821054Y-63734139D01*
X121878324Y-63782880D01*
X121883702Y-63785886D01*
X121883704Y-63785887D01*
X121960367Y-63828732D01*
X122042409Y-63874584D01*
X122221180Y-63932670D01*
X122407830Y-63954927D01*
X122413965Y-63954455D01*
X122413967Y-63954455D01*
X122589105Y-63940979D01*
X122589109Y-63940978D01*
X122595247Y-63940506D01*
X122739469Y-63900238D01*
X122770350Y-63891616D01*
X122770353Y-63891615D01*
X122776294Y-63889956D01*
X122781798Y-63887176D01*
X122781800Y-63887175D01*
X122938574Y-63807983D01*
X122938576Y-63807982D01*
X122944075Y-63805204D01*
X123091760Y-63689820D01*
X123157754Y-63663642D01*
X123208267Y-63669276D01*
X123237180Y-63678670D01*
X123423830Y-63700927D01*
X123429965Y-63700455D01*
X123429967Y-63700455D01*
X123605105Y-63686979D01*
X123605109Y-63686978D01*
X123611247Y-63686506D01*
X123670364Y-63670000D01*
X123686650Y-63665453D01*
X123757640Y-63666399D01*
X123802197Y-63690857D01*
X123817214Y-63703637D01*
X123910324Y-63782880D01*
X123915702Y-63785886D01*
X123915704Y-63785887D01*
X123992367Y-63828732D01*
X124074409Y-63874584D01*
X124253180Y-63932670D01*
X124439830Y-63954927D01*
X124445965Y-63954455D01*
X124445967Y-63954455D01*
X124621105Y-63940979D01*
X124621109Y-63940978D01*
X124627247Y-63940506D01*
X124771469Y-63900238D01*
X124802350Y-63891616D01*
X124802353Y-63891615D01*
X124808294Y-63889956D01*
X124813798Y-63887176D01*
X124813800Y-63887175D01*
X124970574Y-63807983D01*
X124970576Y-63807982D01*
X124976075Y-63805204D01*
X125124199Y-63689477D01*
X125132898Y-63679399D01*
X125242994Y-63551852D01*
X125242995Y-63551850D01*
X125247023Y-63547184D01*
X125259690Y-63524887D01*
X125294380Y-63463821D01*
X125339870Y-63383744D01*
X125381121Y-63259740D01*
X125397258Y-63211229D01*
X125399203Y-63205382D01*
X125399976Y-63199266D01*
X125400335Y-63197684D01*
X125434930Y-63135686D01*
X125497552Y-63102235D01*
X125568318Y-63107950D01*
X125624761Y-63151016D01*
X125635270Y-63168002D01*
X125679598Y-63254255D01*
X125679603Y-63254263D01*
X125682418Y-63259740D01*
X125686241Y-63264564D01*
X125686244Y-63264568D01*
X125763023Y-63361438D01*
X125799177Y-63407052D01*
X125803871Y-63411047D01*
X125924535Y-63513740D01*
X125942324Y-63528880D01*
X125947702Y-63531886D01*
X125947704Y-63531887D01*
X125989801Y-63555414D01*
X126106409Y-63620584D01*
X126285180Y-63678670D01*
X126471830Y-63700927D01*
X126477965Y-63700455D01*
X126477967Y-63700455D01*
X126653105Y-63686979D01*
X126653109Y-63686978D01*
X126659247Y-63686506D01*
X126753055Y-63660314D01*
X126834350Y-63637616D01*
X126834353Y-63637615D01*
X126840294Y-63635956D01*
X126845798Y-63633176D01*
X126845800Y-63633175D01*
X127002574Y-63553983D01*
X127002576Y-63553982D01*
X127008075Y-63551204D01*
X127156199Y-63435477D01*
X127164944Y-63425346D01*
X127274994Y-63297852D01*
X127274995Y-63297850D01*
X127279023Y-63293184D01*
X127371870Y-63129744D01*
X127407796Y-63021747D01*
X127448277Y-62963423D01*
X127513866Y-62936243D01*
X127583736Y-62948838D01*
X127589802Y-62954271D01*
X127624506Y-62970000D01*
X129091885Y-62970000D01*
X129107124Y-62965525D01*
X129108329Y-62964135D01*
X129110000Y-62956452D01*
X129110000Y-62951885D01*
X129610000Y-62951885D01*
X129614475Y-62967124D01*
X129615865Y-62968329D01*
X129623548Y-62970000D01*
X131089743Y-62970000D01*
X131103274Y-62966027D01*
X131104409Y-62958129D01*
X131072768Y-62849220D01*
X131066520Y-62834783D01*
X130993181Y-62710773D01*
X130983532Y-62698335D01*
X130881665Y-62596468D01*
X130869227Y-62586819D01*
X130745217Y-62513480D01*
X130730782Y-62507233D01*
X130688952Y-62495080D01*
X130629117Y-62456866D01*
X130599440Y-62392370D01*
X130609344Y-62322068D01*
X130652899Y-62272520D01*
X130652075Y-62271480D01*
X130657808Y-62266936D01*
X130657811Y-62266933D01*
X130669208Y-62257901D01*
X130783739Y-62143171D01*
X130792751Y-62131760D01*
X130877816Y-61993757D01*
X130883963Y-61980576D01*
X130935138Y-61826290D01*
X130938005Y-61812914D01*
X130947672Y-61718562D01*
X130948000Y-61712146D01*
X130948000Y-61524615D01*
X130943525Y-61509376D01*
X130942135Y-61508171D01*
X130934452Y-61506500D01*
X129812115Y-61506500D01*
X129796876Y-61510975D01*
X129795671Y-61512365D01*
X129794000Y-61520048D01*
X129794000Y-62337000D01*
X129773998Y-62405121D01*
X129720342Y-62451614D01*
X129668000Y-62463000D01*
X129628115Y-62463000D01*
X129612876Y-62467475D01*
X129611671Y-62468865D01*
X129610000Y-62476548D01*
X129610000Y-62951885D01*
X129110000Y-62951885D01*
X129110000Y-62548000D01*
X129130002Y-62479879D01*
X129183658Y-62433386D01*
X129236000Y-62422000D01*
X129267885Y-62422000D01*
X129283124Y-62417525D01*
X129284329Y-62416135D01*
X129286000Y-62408452D01*
X129286000Y-61524615D01*
X129281525Y-61509376D01*
X129280135Y-61508171D01*
X129272452Y-61506500D01*
X128150116Y-61506500D01*
X128134877Y-61510975D01*
X128133672Y-61512365D01*
X128132001Y-61520048D01*
X128132001Y-61712095D01*
X128132338Y-61718614D01*
X128142257Y-61814206D01*
X128145149Y-61827600D01*
X128196588Y-61981784D01*
X128202761Y-61994962D01*
X128288063Y-62132807D01*
X128297099Y-62144208D01*
X128399897Y-62246828D01*
X128433976Y-62309111D01*
X128428973Y-62379931D01*
X128386475Y-62436804D01*
X128319977Y-62461672D01*
X128310879Y-62462001D01*
X128173547Y-62462001D01*
X128168611Y-62462195D01*
X128141608Y-62464319D01*
X128129007Y-62466620D01*
X127989220Y-62507232D01*
X127974783Y-62513480D01*
X127965273Y-62519104D01*
X127896457Y-62536564D01*
X127829125Y-62514048D01*
X127784656Y-62458703D01*
X127777167Y-62388103D01*
X127792679Y-62346512D01*
X127816984Y-62305414D01*
X127821018Y-62298593D01*
X127823290Y-62290773D01*
X127863878Y-62151072D01*
X127863879Y-62151069D01*
X127865674Y-62144889D01*
X127868066Y-62114500D01*
X127868307Y-62111438D01*
X127868308Y-62111425D01*
X127868500Y-62108979D01*
X127868499Y-60853161D01*
X127888501Y-60785040D01*
X127905404Y-60764066D01*
X127916905Y-60752565D01*
X127979217Y-60718539D01*
X128050032Y-60723604D01*
X128106868Y-60766151D01*
X128131679Y-60832671D01*
X128132000Y-60841660D01*
X128132000Y-60980385D01*
X128136475Y-60995624D01*
X128137865Y-60996829D01*
X128145548Y-60998500D01*
X129267885Y-60998500D01*
X129283124Y-60994025D01*
X129284329Y-60992635D01*
X129286000Y-60984952D01*
X129286000Y-60980385D01*
X129794000Y-60980385D01*
X129798475Y-60995624D01*
X129799865Y-60996829D01*
X129807548Y-60998500D01*
X130929884Y-60998500D01*
X130945123Y-60994025D01*
X130946328Y-60992635D01*
X130947999Y-60984952D01*
X130947999Y-60792905D01*
X130947662Y-60786386D01*
X130937743Y-60690794D01*
X130934851Y-60677400D01*
X130883412Y-60523216D01*
X130877239Y-60510038D01*
X130791937Y-60372193D01*
X130782901Y-60360792D01*
X130668171Y-60246261D01*
X130656760Y-60237249D01*
X130518757Y-60152184D01*
X130505576Y-60146037D01*
X130351290Y-60094862D01*
X130337914Y-60091995D01*
X130243562Y-60082328D01*
X130237145Y-60082000D01*
X129812115Y-60082000D01*
X129796876Y-60086475D01*
X129795671Y-60087865D01*
X129794000Y-60095548D01*
X129794000Y-60980385D01*
X129286000Y-60980385D01*
X129286000Y-60100116D01*
X129281525Y-60084877D01*
X129280135Y-60083672D01*
X129272452Y-60082001D01*
X128891659Y-60082001D01*
X128823538Y-60061999D01*
X128777045Y-60008343D01*
X128766941Y-59938069D01*
X128796435Y-59873489D01*
X128802564Y-59866906D01*
X129334065Y-59335405D01*
X129396377Y-59301379D01*
X129423160Y-59298500D01*
X130240400Y-59298500D01*
X130243646Y-59298163D01*
X130243650Y-59298163D01*
X130339308Y-59288238D01*
X130339312Y-59288237D01*
X130346166Y-59287526D01*
X130352702Y-59285345D01*
X130352704Y-59285345D01*
X130506998Y-59233868D01*
X130513946Y-59231550D01*
X130664348Y-59138478D01*
X130789305Y-59013303D01*
X130802012Y-58992688D01*
X130878275Y-58868968D01*
X130878276Y-58868966D01*
X130882115Y-58862738D01*
X130919241Y-58750807D01*
X130935632Y-58701389D01*
X130935632Y-58701387D01*
X130937797Y-58694861D01*
X130948500Y-58590400D01*
X130948500Y-57664600D01*
X130937526Y-57558834D01*
X130881550Y-57391054D01*
X130788478Y-57240652D01*
X130663303Y-57115695D01*
X130657072Y-57111854D01*
X130518968Y-57026725D01*
X130518966Y-57026724D01*
X130512738Y-57022885D01*
X130411177Y-56989199D01*
X130352817Y-56948769D01*
X130325580Y-56883204D01*
X130328364Y-56844381D01*
X130328055Y-56844338D01*
X130328692Y-56839802D01*
X130347913Y-56703038D01*
X130352748Y-56668639D01*
X130352748Y-56668636D01*
X130353299Y-56664717D01*
X130353616Y-56642000D01*
X130333397Y-56461745D01*
X130331080Y-56455091D01*
X130276064Y-56297106D01*
X130276062Y-56297103D01*
X130273745Y-56290448D01*
X130177626Y-56136624D01*
X130163941Y-56122843D01*
X130054778Y-56012915D01*
X130054774Y-56012912D01*
X130049815Y-56007918D01*
X130038697Y-56000862D01*
X129990538Y-55970300D01*
X129896666Y-55910727D01*
X129867463Y-55900328D01*
X129732425Y-55852243D01*
X129732420Y-55852242D01*
X129725790Y-55849881D01*
X129718802Y-55849048D01*
X129718799Y-55849047D01*
X129595698Y-55834368D01*
X129545680Y-55828404D01*
X129538677Y-55829140D01*
X129538676Y-55829140D01*
X129372288Y-55846628D01*
X129372286Y-55846629D01*
X129365288Y-55847364D01*
X129193579Y-55905818D01*
X129187575Y-55909512D01*
X129045095Y-55997166D01*
X129045092Y-55997168D01*
X129039088Y-56000862D01*
X129034053Y-56005793D01*
X129034050Y-56005795D01*
X128914525Y-56122843D01*
X128909493Y-56127771D01*
X128811235Y-56280238D01*
X128808826Y-56286858D01*
X128808824Y-56286861D01*
X128756339Y-56431063D01*
X128749197Y-56450685D01*
X128726463Y-56630640D01*
X128744163Y-56811160D01*
X128746386Y-56817842D01*
X128746386Y-56817843D01*
X128750199Y-56829305D01*
X128752721Y-56900257D01*
X128716482Y-56961309D01*
X128670517Y-56988598D01*
X128566054Y-57023450D01*
X128415652Y-57116522D01*
X128290695Y-57241697D01*
X128197885Y-57392262D01*
X128142203Y-57560139D01*
X128131500Y-57664600D01*
X128131500Y-58481840D01*
X128111498Y-58549961D01*
X128094595Y-58570935D01*
X127516454Y-59149076D01*
X127454142Y-59183102D01*
X127392206Y-59180978D01*
X127341075Y-59166123D01*
X127341073Y-59166123D01*
X127334889Y-59164326D01*
X127322238Y-59163330D01*
X127301438Y-59161693D01*
X127301425Y-59161692D01*
X127298979Y-59161500D01*
X127110115Y-59161500D01*
X126921022Y-59161501D01*
X126913234Y-59162114D01*
X126891526Y-59163821D01*
X126891523Y-59163822D01*
X126885111Y-59164326D01*
X126731407Y-59208982D01*
X126699767Y-59227694D01*
X126674139Y-59242850D01*
X126605323Y-59260309D01*
X126545861Y-59242850D01*
X126520234Y-59227694D01*
X126488593Y-59208982D01*
X126463763Y-59201768D01*
X126341072Y-59166122D01*
X126341069Y-59166121D01*
X126334889Y-59164326D01*
X126322238Y-59163330D01*
X126301438Y-59161693D01*
X126301425Y-59161692D01*
X126298979Y-59161500D01*
X126110115Y-59161500D01*
X125921022Y-59161501D01*
X125913234Y-59162114D01*
X125891526Y-59163821D01*
X125891523Y-59163822D01*
X125885111Y-59164326D01*
X125878933Y-59166121D01*
X125878927Y-59166122D01*
X125878111Y-59166359D01*
X125877637Y-59166358D01*
X125872591Y-59167279D01*
X125872420Y-59166343D01*
X125807115Y-59166154D01*
X125747500Y-59127598D01*
X125718193Y-59062933D01*
X125728500Y-58992688D01*
X125776659Y-58938217D01*
X125862120Y-58885332D01*
X125868348Y-58881478D01*
X125993305Y-58756303D01*
X126086115Y-58605738D01*
X126141797Y-58437861D01*
X126152500Y-58333400D01*
X126152500Y-56982600D01*
X126150931Y-56967474D01*
X126142238Y-56883692D01*
X126142237Y-56883688D01*
X126141526Y-56876834D01*
X126130685Y-56844338D01*
X126087868Y-56716002D01*
X126085550Y-56709054D01*
X125992478Y-56558652D01*
X125867303Y-56433695D01*
X125861072Y-56429854D01*
X125722968Y-56344725D01*
X125722966Y-56344724D01*
X125716738Y-56340885D01*
X125584748Y-56297106D01*
X125555389Y-56287368D01*
X125555387Y-56287368D01*
X125548861Y-56285203D01*
X125542025Y-56284503D01*
X125542022Y-56284502D01*
X125498969Y-56280091D01*
X125444400Y-56274500D01*
X124543600Y-56274500D01*
X124540354Y-56274837D01*
X124540350Y-56274837D01*
X124444692Y-56284762D01*
X124444688Y-56284763D01*
X124437834Y-56285474D01*
X124431298Y-56287655D01*
X124431296Y-56287655D01*
X124299194Y-56331728D01*
X124270054Y-56341450D01*
X124119652Y-56434522D01*
X123994695Y-56559697D01*
X123901885Y-56710262D01*
X123846203Y-56878139D01*
X123835500Y-56982600D01*
X123835500Y-58333400D01*
X123835837Y-58336646D01*
X123835837Y-58336650D01*
X123845752Y-58432206D01*
X123846474Y-58439166D01*
X123902450Y-58606946D01*
X123995522Y-58757348D01*
X124120697Y-58882305D01*
X124195219Y-58928241D01*
X124242711Y-58981012D01*
X124254135Y-59051083D01*
X124225861Y-59116207D01*
X124166867Y-59155707D01*
X124129103Y-59161500D01*
X123926447Y-59161501D01*
X123921022Y-59161501D01*
X123913234Y-59162114D01*
X123891526Y-59163821D01*
X123891523Y-59163822D01*
X123885111Y-59164326D01*
X123731407Y-59208982D01*
X123699767Y-59227694D01*
X123674139Y-59242850D01*
X123605323Y-59260309D01*
X123545861Y-59242850D01*
X123520234Y-59227694D01*
X123488593Y-59208982D01*
X123463763Y-59201768D01*
X123341072Y-59166122D01*
X123341069Y-59166121D01*
X123334889Y-59164326D01*
X123322238Y-59163330D01*
X123301438Y-59161693D01*
X123301425Y-59161692D01*
X123298979Y-59161500D01*
X123110115Y-59161500D01*
X122921022Y-59161501D01*
X122913234Y-59162114D01*
X122891526Y-59163821D01*
X122891523Y-59163822D01*
X122885111Y-59164326D01*
X122731407Y-59208982D01*
X122699767Y-59227694D01*
X122674139Y-59242850D01*
X122605323Y-59260309D01*
X122545862Y-59242850D01*
X122518949Y-59226934D01*
X122470496Y-59175042D01*
X122457790Y-59105191D01*
X122484865Y-59039560D01*
X122543211Y-58998956D01*
X122610784Y-58976412D01*
X122623962Y-58970239D01*
X122761807Y-58884937D01*
X122773208Y-58875901D01*
X122887739Y-58761171D01*
X122896751Y-58749760D01*
X122981816Y-58611757D01*
X122987963Y-58598576D01*
X123039138Y-58444290D01*
X123042005Y-58430914D01*
X123051672Y-58336562D01*
X123052000Y-58330146D01*
X123052000Y-57930115D01*
X123047525Y-57914876D01*
X123046135Y-57913671D01*
X123038452Y-57912000D01*
X120754116Y-57912000D01*
X120738877Y-57916475D01*
X120737672Y-57917865D01*
X120736001Y-57925548D01*
X120736001Y-58330095D01*
X120736338Y-58336614D01*
X120746257Y-58432206D01*
X120749149Y-58445600D01*
X120800588Y-58599784D01*
X120806761Y-58612962D01*
X120892063Y-58750807D01*
X120901099Y-58762208D01*
X121015829Y-58876739D01*
X121027240Y-58885751D01*
X121096172Y-58928241D01*
X121143665Y-58981013D01*
X121155089Y-59051085D01*
X121126815Y-59116209D01*
X121067821Y-59155708D01*
X121030058Y-59161501D01*
X120921022Y-59161501D01*
X120913234Y-59162114D01*
X120891526Y-59163821D01*
X120891523Y-59163822D01*
X120885111Y-59164326D01*
X120731407Y-59208982D01*
X120699767Y-59227694D01*
X120674139Y-59242850D01*
X120605323Y-59260309D01*
X120545861Y-59242850D01*
X120520234Y-59227694D01*
X120488593Y-59208982D01*
X120463763Y-59201768D01*
X120341072Y-59166122D01*
X120341069Y-59166121D01*
X120334889Y-59164326D01*
X120322238Y-59163330D01*
X120301438Y-59161693D01*
X120301425Y-59161692D01*
X120298979Y-59161500D01*
X120110115Y-59161500D01*
X119921022Y-59161501D01*
X119913234Y-59162114D01*
X119891526Y-59163821D01*
X119891523Y-59163822D01*
X119885111Y-59164326D01*
X119731407Y-59208982D01*
X119699767Y-59227694D01*
X119674139Y-59242850D01*
X119605323Y-59260309D01*
X119545861Y-59242850D01*
X119520234Y-59227694D01*
X119488593Y-59208982D01*
X119463763Y-59201768D01*
X119341072Y-59166122D01*
X119341069Y-59166121D01*
X119334889Y-59164326D01*
X119322238Y-59163330D01*
X119301438Y-59161693D01*
X119301425Y-59161692D01*
X119298979Y-59161500D01*
X119110115Y-59161500D01*
X118921022Y-59161501D01*
X118913234Y-59162114D01*
X118891526Y-59163821D01*
X118891523Y-59163822D01*
X118885111Y-59164326D01*
X118731407Y-59208982D01*
X118699767Y-59227694D01*
X118674139Y-59242850D01*
X118605323Y-59260309D01*
X118545861Y-59242850D01*
X118520234Y-59227694D01*
X118488593Y-59208982D01*
X118463763Y-59201768D01*
X118341072Y-59166122D01*
X118341069Y-59166121D01*
X118334889Y-59164326D01*
X118322238Y-59163330D01*
X118301438Y-59161693D01*
X118301425Y-59161692D01*
X118298979Y-59161500D01*
X118110115Y-59161500D01*
X117921022Y-59161501D01*
X117913234Y-59162114D01*
X117891526Y-59163821D01*
X117891523Y-59163822D01*
X117885111Y-59164326D01*
X117731407Y-59208982D01*
X117699767Y-59227694D01*
X117674139Y-59242850D01*
X117605323Y-59260309D01*
X117545861Y-59242850D01*
X117520234Y-59227694D01*
X117488593Y-59208982D01*
X117463763Y-59201768D01*
X117341072Y-59166122D01*
X117341069Y-59166121D01*
X117334889Y-59164326D01*
X117322238Y-59163330D01*
X117301438Y-59161693D01*
X117301425Y-59161692D01*
X117298979Y-59161500D01*
X117110115Y-59161500D01*
X116921022Y-59161501D01*
X116913234Y-59162114D01*
X116891526Y-59163821D01*
X116891523Y-59163822D01*
X116885111Y-59164326D01*
X116731407Y-59208982D01*
X116699767Y-59227694D01*
X116674139Y-59242850D01*
X116605323Y-59260309D01*
X116545861Y-59242850D01*
X116520234Y-59227694D01*
X116488593Y-59208982D01*
X116463763Y-59201768D01*
X116341072Y-59166122D01*
X116341069Y-59166121D01*
X116334889Y-59164326D01*
X116322238Y-59163330D01*
X116301438Y-59161693D01*
X116301425Y-59161692D01*
X116298979Y-59161500D01*
X116110115Y-59161500D01*
X115921022Y-59161501D01*
X115913234Y-59162114D01*
X115891526Y-59163821D01*
X115891523Y-59163822D01*
X115885111Y-59164326D01*
X115731407Y-59208982D01*
X115699767Y-59227694D01*
X115674139Y-59242850D01*
X115605323Y-59260309D01*
X115545861Y-59242850D01*
X115520234Y-59227694D01*
X115488593Y-59208982D01*
X115463763Y-59201768D01*
X115341072Y-59166122D01*
X115341069Y-59166121D01*
X115334889Y-59164326D01*
X115322238Y-59163330D01*
X115301438Y-59161693D01*
X115301425Y-59161692D01*
X115298979Y-59161500D01*
X115110115Y-59161500D01*
X114921022Y-59161501D01*
X114913234Y-59162114D01*
X114891526Y-59163821D01*
X114891523Y-59163822D01*
X114885111Y-59164326D01*
X114731407Y-59208982D01*
X114699767Y-59227694D01*
X114674139Y-59242850D01*
X114605323Y-59260309D01*
X114545861Y-59242850D01*
X114520234Y-59227694D01*
X114488593Y-59208982D01*
X114463763Y-59201768D01*
X114341072Y-59166122D01*
X114341069Y-59166121D01*
X114334889Y-59164326D01*
X114322238Y-59163330D01*
X114301438Y-59161693D01*
X114301425Y-59161692D01*
X114298979Y-59161500D01*
X114110115Y-59161500D01*
X113921022Y-59161501D01*
X113913234Y-59162114D01*
X113891526Y-59163821D01*
X113891523Y-59163822D01*
X113885111Y-59164326D01*
X113731407Y-59208982D01*
X113699767Y-59227694D01*
X113674139Y-59242850D01*
X113605323Y-59260309D01*
X113545861Y-59242850D01*
X113520234Y-59227694D01*
X113488593Y-59208982D01*
X113463763Y-59201768D01*
X113341072Y-59166122D01*
X113341069Y-59166121D01*
X113334889Y-59164326D01*
X113322238Y-59163330D01*
X113301438Y-59161693D01*
X113301425Y-59161692D01*
X113298979Y-59161500D01*
X113158897Y-59161500D01*
X113090776Y-59141498D01*
X113044283Y-59087842D01*
X113034179Y-59017568D01*
X113063673Y-58952988D01*
X113092594Y-58928356D01*
X113092782Y-58928240D01*
X113168348Y-58881478D01*
X113293305Y-58756303D01*
X113386115Y-58605738D01*
X113441797Y-58437861D01*
X113452500Y-58333400D01*
X113452500Y-57385885D01*
X120736000Y-57385885D01*
X120740475Y-57401124D01*
X120741865Y-57402329D01*
X120749548Y-57404000D01*
X121621885Y-57404000D01*
X121637124Y-57399525D01*
X121638329Y-57398135D01*
X121640000Y-57390452D01*
X121640000Y-57385885D01*
X122148000Y-57385885D01*
X122152475Y-57401124D01*
X122153865Y-57402329D01*
X122161548Y-57404000D01*
X123033884Y-57404000D01*
X123049123Y-57399525D01*
X123050328Y-57398135D01*
X123051999Y-57390452D01*
X123051999Y-56985905D01*
X123051662Y-56979386D01*
X123041743Y-56883794D01*
X123038851Y-56870400D01*
X122987412Y-56716216D01*
X122981239Y-56703038D01*
X122895937Y-56565193D01*
X122886901Y-56553792D01*
X122772171Y-56439261D01*
X122760760Y-56430249D01*
X122622757Y-56345184D01*
X122609576Y-56339037D01*
X122455290Y-56287862D01*
X122441914Y-56284995D01*
X122347562Y-56275328D01*
X122341145Y-56275000D01*
X122166115Y-56275000D01*
X122150876Y-56279475D01*
X122149671Y-56280865D01*
X122148000Y-56288548D01*
X122148000Y-57385885D01*
X121640000Y-57385885D01*
X121640000Y-56293116D01*
X121635525Y-56277877D01*
X121634135Y-56276672D01*
X121626452Y-56275001D01*
X121446905Y-56275001D01*
X121440386Y-56275338D01*
X121344794Y-56285257D01*
X121331400Y-56288149D01*
X121177216Y-56339588D01*
X121164038Y-56345761D01*
X121026193Y-56431063D01*
X121014792Y-56440099D01*
X120900261Y-56554829D01*
X120891249Y-56566240D01*
X120806184Y-56704243D01*
X120800037Y-56717424D01*
X120748862Y-56871710D01*
X120745995Y-56885086D01*
X120736328Y-56979438D01*
X120736000Y-56985855D01*
X120736000Y-57385885D01*
X113452500Y-57385885D01*
X113452500Y-56982600D01*
X113450931Y-56967474D01*
X113442238Y-56883692D01*
X113442237Y-56883688D01*
X113441526Y-56876834D01*
X113430685Y-56844338D01*
X113387868Y-56716002D01*
X113385550Y-56709054D01*
X113292478Y-56558652D01*
X113167303Y-56433695D01*
X113161072Y-56429854D01*
X113022968Y-56344725D01*
X113022966Y-56344724D01*
X113016738Y-56340885D01*
X112884748Y-56297106D01*
X112855389Y-56287368D01*
X112855387Y-56287368D01*
X112848861Y-56285203D01*
X112842025Y-56284503D01*
X112842022Y-56284502D01*
X112798969Y-56280091D01*
X112744400Y-56274500D01*
X111843600Y-56274500D01*
X111840354Y-56274837D01*
X111840350Y-56274837D01*
X111744692Y-56284762D01*
X111744688Y-56284763D01*
X111737834Y-56285474D01*
X111731298Y-56287655D01*
X111731296Y-56287655D01*
X111599194Y-56331728D01*
X111570054Y-56341450D01*
X111419652Y-56434522D01*
X111294695Y-56559697D01*
X111201885Y-56710262D01*
X111146203Y-56878139D01*
X111135500Y-56982600D01*
X111135500Y-58333400D01*
X111135837Y-58336646D01*
X111135837Y-58336650D01*
X111145752Y-58432206D01*
X111146474Y-58439166D01*
X111202450Y-58606946D01*
X111295522Y-58757348D01*
X111420697Y-58882305D01*
X111426927Y-58886145D01*
X111426928Y-58886146D01*
X111466616Y-58910610D01*
X111514109Y-58963382D01*
X111526500Y-59017870D01*
X111526500Y-59052178D01*
X111506498Y-59120299D01*
X111452842Y-59166792D01*
X111382568Y-59176896D01*
X111365349Y-59173176D01*
X111355360Y-59170273D01*
X111341072Y-59166122D01*
X111341069Y-59166121D01*
X111334889Y-59164326D01*
X111322238Y-59163330D01*
X111301438Y-59161693D01*
X111301425Y-59161692D01*
X111298979Y-59161500D01*
X111110115Y-59161500D01*
X110921022Y-59161501D01*
X110913234Y-59162114D01*
X110891526Y-59163821D01*
X110891523Y-59163822D01*
X110885111Y-59164326D01*
X110731407Y-59208982D01*
X110699767Y-59227694D01*
X110674139Y-59242850D01*
X110605323Y-59260309D01*
X110545861Y-59242850D01*
X110520234Y-59227694D01*
X110488593Y-59208982D01*
X110463763Y-59201768D01*
X110341072Y-59166122D01*
X110341069Y-59166121D01*
X110334889Y-59164326D01*
X110322238Y-59163330D01*
X110301438Y-59161693D01*
X110301425Y-59161692D01*
X110298979Y-59161500D01*
X110292282Y-59161500D01*
X110057945Y-59161501D01*
X109989825Y-59141499D01*
X109943332Y-59087844D01*
X109933227Y-59017570D01*
X109962720Y-58952989D01*
X109991641Y-58928357D01*
X110061810Y-58884934D01*
X110073208Y-58875901D01*
X110187739Y-58761171D01*
X110196751Y-58749760D01*
X110281816Y-58611757D01*
X110287963Y-58598576D01*
X110339138Y-58444290D01*
X110342005Y-58430914D01*
X110351672Y-58336562D01*
X110352000Y-58330146D01*
X110352000Y-57930115D01*
X110347525Y-57914876D01*
X110346135Y-57913671D01*
X110338452Y-57912000D01*
X108054116Y-57912000D01*
X108038877Y-57916475D01*
X108037672Y-57917865D01*
X108036001Y-57925548D01*
X108036001Y-58330095D01*
X108036338Y-58336614D01*
X108046257Y-58432206D01*
X108049149Y-58445600D01*
X108100588Y-58599784D01*
X108106761Y-58612962D01*
X108192063Y-58750807D01*
X108201099Y-58762208D01*
X108315829Y-58876739D01*
X108327240Y-58885751D01*
X108465243Y-58970816D01*
X108478424Y-58976963D01*
X108629758Y-59027159D01*
X108688118Y-59067590D01*
X108715354Y-59133154D01*
X108702820Y-59203036D01*
X108654229Y-59255205D01*
X108600776Y-59286817D01*
X108588335Y-59296468D01*
X108486468Y-59398335D01*
X108476819Y-59410773D01*
X108403480Y-59534783D01*
X108397232Y-59549220D01*
X108356618Y-59689013D01*
X108354320Y-59701600D01*
X108352193Y-59728616D01*
X108352000Y-59733543D01*
X108352000Y-59783459D01*
X108331998Y-59851580D01*
X108278342Y-59898073D01*
X108208068Y-59908177D01*
X108143488Y-59878683D01*
X108106476Y-59823335D01*
X108078412Y-59739216D01*
X108072239Y-59726038D01*
X107986937Y-59588193D01*
X107977901Y-59576792D01*
X107863171Y-59462261D01*
X107851760Y-59453249D01*
X107713757Y-59368184D01*
X107700576Y-59362037D01*
X107546290Y-59310862D01*
X107532914Y-59307995D01*
X107438562Y-59298328D01*
X107432145Y-59298000D01*
X107244615Y-59298000D01*
X107229376Y-59302475D01*
X107228171Y-59303865D01*
X107226500Y-59311548D01*
X107226500Y-62095884D01*
X107230975Y-62111123D01*
X107232365Y-62112328D01*
X107240048Y-62113999D01*
X107432095Y-62113999D01*
X107438614Y-62113662D01*
X107534206Y-62103743D01*
X107547600Y-62100851D01*
X107701784Y-62049412D01*
X107714962Y-62043239D01*
X107852807Y-61957937D01*
X107864208Y-61948901D01*
X107978739Y-61834171D01*
X107987751Y-61822760D01*
X108072816Y-61684757D01*
X108078963Y-61671576D01*
X108106408Y-61588833D01*
X108146839Y-61530473D01*
X108212403Y-61503237D01*
X108282285Y-61515771D01*
X108334297Y-61564096D01*
X108352001Y-61628501D01*
X108352001Y-62106454D01*
X108352195Y-62111389D01*
X108354319Y-62138392D01*
X108356620Y-62150993D01*
X108397230Y-62290773D01*
X108397528Y-62291461D01*
X108397600Y-62292047D01*
X108399444Y-62298393D01*
X108398421Y-62298690D01*
X108406230Y-62361922D01*
X108375456Y-62425903D01*
X108314977Y-62463089D01*
X108243995Y-62461675D01*
X108241699Y-62460819D01*
X108238593Y-62458982D01*
X108230988Y-62456773D01*
X108230987Y-62456772D01*
X108091072Y-62416122D01*
X108091069Y-62416121D01*
X108084889Y-62414326D01*
X108072238Y-62413330D01*
X108051438Y-62411693D01*
X108051425Y-62411692D01*
X108048979Y-62411500D01*
X106860722Y-62411500D01*
X105671022Y-62411501D01*
X105663234Y-62412114D01*
X105641526Y-62413821D01*
X105641523Y-62413822D01*
X105635111Y-62414326D01*
X105481407Y-62458982D01*
X105472383Y-62464319D01*
X105350457Y-62536424D01*
X105350453Y-62536427D01*
X105343637Y-62540458D01*
X105230458Y-62653637D01*
X105226427Y-62660453D01*
X105226424Y-62660457D01*
X105188519Y-62724552D01*
X105148982Y-62791407D01*
X105104326Y-62945111D01*
X105103821Y-62951530D01*
X105101693Y-62978562D01*
X105101692Y-62978575D01*
X105101500Y-62981021D01*
X105101501Y-63358978D01*
X105104326Y-63394889D01*
X105148982Y-63548593D01*
X105179645Y-63600441D01*
X105182850Y-63605861D01*
X105200309Y-63674677D01*
X105182850Y-63734138D01*
X105148982Y-63791407D01*
X105146771Y-63799017D01*
X105106146Y-63938848D01*
X105104326Y-63945111D01*
X105103821Y-63951530D01*
X105101693Y-63978562D01*
X105101692Y-63978575D01*
X105101500Y-63981021D01*
X105101501Y-64358978D01*
X105104326Y-64394889D01*
X105148982Y-64548593D01*
X105182586Y-64605414D01*
X105182850Y-64605861D01*
X105200309Y-64674677D01*
X105182850Y-64734138D01*
X105148982Y-64791407D01*
X105104326Y-64945111D01*
X105103821Y-64951530D01*
X105101693Y-64978562D01*
X105101692Y-64978575D01*
X105101500Y-64981021D01*
X105101501Y-65358978D01*
X105104326Y-65394889D01*
X105148982Y-65548593D01*
X105182586Y-65605414D01*
X105182850Y-65605861D01*
X105200309Y-65674677D01*
X105182850Y-65734138D01*
X105148982Y-65791407D01*
X105104326Y-65945111D01*
X105103821Y-65951530D01*
X105101693Y-65978562D01*
X105101692Y-65978575D01*
X105101500Y-65981021D01*
X105101501Y-66358978D01*
X105104326Y-66394889D01*
X105109136Y-66411443D01*
X105114803Y-66430950D01*
X105114601Y-66501946D01*
X105076047Y-66561563D01*
X105013320Y-66588157D01*
X105013712Y-66590210D01*
X105007664Y-66591363D01*
X105001526Y-66591922D01*
X104995620Y-66593660D01*
X104995616Y-66593661D01*
X104862278Y-66632905D01*
X104821202Y-66644994D01*
X104654621Y-66732080D01*
X104508128Y-66849864D01*
X104387302Y-66993859D01*
X104384338Y-66999251D01*
X104384335Y-66999255D01*
X104310611Y-67133360D01*
X104296746Y-67158580D01*
X104294885Y-67164447D01*
X104294884Y-67164449D01*
X104259646Y-67275532D01*
X104219982Y-67334416D01*
X104154780Y-67362508D01*
X104147245Y-67362940D01*
X104146724Y-67362885D01*
X104074557Y-67369453D01*
X103965665Y-67379363D01*
X103965662Y-67379364D01*
X103959526Y-67379922D01*
X103953620Y-67381660D01*
X103953616Y-67381661D01*
X103852426Y-67411443D01*
X103779202Y-67432994D01*
X103612621Y-67520080D01*
X103466128Y-67637864D01*
X103462170Y-67642582D01*
X103462167Y-67642584D01*
X103397208Y-67720000D01*
X103345302Y-67781859D01*
X103342338Y-67787251D01*
X103342335Y-67787255D01*
X103299868Y-67864503D01*
X103254746Y-67946580D01*
X103197909Y-68125752D01*
X103197223Y-68131871D01*
X103180051Y-68284957D01*
X103152580Y-68350424D01*
X103094076Y-68390646D01*
X103041667Y-68396222D01*
X102910412Y-68382426D01*
X102882852Y-68379529D01*
X102882851Y-68379529D01*
X102876724Y-68378885D01*
X102799673Y-68385897D01*
X102695665Y-68395363D01*
X102695662Y-68395364D01*
X102689526Y-68395922D01*
X102683620Y-68397660D01*
X102683616Y-68397661D01*
X102550518Y-68436834D01*
X102509202Y-68448994D01*
X102342621Y-68536080D01*
X102196128Y-68653864D01*
X102075302Y-68797859D01*
X102072338Y-68803251D01*
X102072335Y-68803255D01*
X102008532Y-68919314D01*
X101984746Y-68962580D01*
X101982885Y-68968447D01*
X101982884Y-68968449D01*
X101972390Y-69001530D01*
X101927909Y-69141752D01*
X101906956Y-69328552D01*
X101909479Y-69358592D01*
X101913917Y-69411443D01*
X101922685Y-69515865D01*
X101974497Y-69696555D01*
X101977312Y-69702032D01*
X101977313Y-69702035D01*
X102023244Y-69791407D01*
X102060418Y-69863740D01*
X102064241Y-69868564D01*
X102064244Y-69868568D01*
X102153375Y-69981022D01*
X102177177Y-70011052D01*
X102320324Y-70132880D01*
X102484409Y-70224584D01*
X102663180Y-70282670D01*
X102849830Y-70304927D01*
X102855965Y-70304455D01*
X102855967Y-70304455D01*
X103031105Y-70290979D01*
X103031109Y-70290978D01*
X103037247Y-70290506D01*
X103070022Y-70281355D01*
X103141010Y-70282302D01*
X103200219Y-70321478D01*
X103228848Y-70386446D01*
X103217809Y-70456580D01*
X103192998Y-70491809D01*
X102262293Y-71422514D01*
X102249902Y-71433382D01*
X102234906Y-71444889D01*
X102225843Y-71451843D01*
X102220818Y-71458392D01*
X102220813Y-71458397D01*
X102202360Y-71482446D01*
X102137344Y-71567177D01*
X102137342Y-71567180D01*
X102132314Y-71573733D01*
X102073519Y-71715676D01*
X102053465Y-71868000D01*
X102054543Y-71876188D01*
X102057422Y-71898056D01*
X102058500Y-71914503D01*
X102058500Y-77725560D01*
X102038498Y-77793681D01*
X101984842Y-77840174D01*
X101914568Y-77850278D01*
X101849988Y-77820784D01*
X101817483Y-77777010D01*
X101817416Y-77776860D01*
X101814949Y-77768229D01*
X101810161Y-77760641D01*
X101810158Y-77760634D01*
X101799170Y-77743220D01*
X101791030Y-77728135D01*
X101787151Y-77719604D01*
X101778792Y-77701218D01*
X101762030Y-77681765D01*
X101750927Y-77666761D01*
X101737224Y-77645042D01*
X101730499Y-77639103D01*
X101730496Y-77639099D01*
X101715062Y-77625468D01*
X101703018Y-77613276D01*
X101689573Y-77597673D01*
X101689570Y-77597671D01*
X101683713Y-77590873D01*
X101662165Y-77576906D01*
X101647291Y-77565615D01*
X101634783Y-77554569D01*
X101634782Y-77554568D01*
X101628049Y-77548622D01*
X101601287Y-77536057D01*
X101586309Y-77527737D01*
X101569017Y-77516529D01*
X101569012Y-77516527D01*
X101561485Y-77511648D01*
X101552892Y-77509078D01*
X101552887Y-77509076D01*
X101536880Y-77504289D01*
X101519436Y-77497628D01*
X101504324Y-77490533D01*
X101504322Y-77490532D01*
X101496200Y-77486719D01*
X101487333Y-77485338D01*
X101487332Y-77485338D01*
X101477690Y-77483837D01*
X101466983Y-77482170D01*
X101450268Y-77478387D01*
X101430534Y-77472485D01*
X101430528Y-77472484D01*
X101421934Y-77469914D01*
X101412963Y-77469859D01*
X101412962Y-77469859D01*
X101402903Y-77469798D01*
X101387494Y-77469704D01*
X101386711Y-77469671D01*
X101385614Y-77469500D01*
X101354623Y-77469500D01*
X101353853Y-77469498D01*
X101280215Y-77469048D01*
X101280214Y-77469048D01*
X101276279Y-77469024D01*
X101274935Y-77469408D01*
X101273590Y-77469500D01*
X96900500Y-77469500D01*
X96832379Y-77449498D01*
X96785886Y-77395842D01*
X96774500Y-77343500D01*
X96774500Y-61406400D01*
X102676500Y-61406400D01*
X102676837Y-61409646D01*
X102676837Y-61409650D01*
X102686548Y-61503237D01*
X102687474Y-61512166D01*
X102689655Y-61518702D01*
X102689655Y-61518704D01*
X102733728Y-61650806D01*
X102743450Y-61679946D01*
X102836522Y-61830348D01*
X102961697Y-61955305D01*
X102967927Y-61959145D01*
X102967928Y-61959146D01*
X103105288Y-62043816D01*
X103112262Y-62048115D01*
X103192005Y-62074564D01*
X103273611Y-62101632D01*
X103273613Y-62101632D01*
X103280139Y-62103797D01*
X103286975Y-62104497D01*
X103286978Y-62104498D01*
X103330031Y-62108909D01*
X103384600Y-62114500D01*
X104310400Y-62114500D01*
X104313646Y-62114163D01*
X104313650Y-62114163D01*
X104409308Y-62104238D01*
X104409312Y-62104237D01*
X104416166Y-62103526D01*
X104422702Y-62101345D01*
X104422704Y-62101345D01*
X104554806Y-62057272D01*
X104583946Y-62047550D01*
X104734348Y-61954478D01*
X104859305Y-61829303D01*
X104868611Y-61814206D01*
X104948275Y-61684968D01*
X104948276Y-61684966D01*
X104952115Y-61678738D01*
X104993787Y-61553101D01*
X105034218Y-61494741D01*
X105099782Y-61467504D01*
X105157297Y-61474670D01*
X105213168Y-61495448D01*
X105287064Y-61505308D01*
X105385980Y-61518507D01*
X105385984Y-61518507D01*
X105392961Y-61519438D01*
X105399972Y-61518800D01*
X105399976Y-61518800D01*
X105548218Y-61505308D01*
X105573600Y-61502998D01*
X105667935Y-61472347D01*
X105738900Y-61470319D01*
X105799698Y-61506982D01*
X105826393Y-61552304D01*
X105866588Y-61672784D01*
X105872761Y-61685962D01*
X105958063Y-61823807D01*
X105967099Y-61835208D01*
X106081829Y-61949739D01*
X106093240Y-61958751D01*
X106231243Y-62043816D01*
X106244424Y-62049963D01*
X106398710Y-62101138D01*
X106412086Y-62104005D01*
X106506438Y-62113672D01*
X106512854Y-62114000D01*
X106700385Y-62114000D01*
X106715624Y-62109525D01*
X106716829Y-62108135D01*
X106718500Y-62100452D01*
X106718500Y-59316116D01*
X106714025Y-59300877D01*
X106712635Y-59299672D01*
X106704952Y-59298001D01*
X106512905Y-59298001D01*
X106506386Y-59298338D01*
X106410794Y-59308257D01*
X106397400Y-59311149D01*
X106243216Y-59362588D01*
X106230038Y-59368761D01*
X106092193Y-59454063D01*
X106080792Y-59463099D01*
X105966261Y-59577829D01*
X105957249Y-59589240D01*
X105872184Y-59727243D01*
X105866037Y-59740424D01*
X105826576Y-59859393D01*
X105786145Y-59917753D01*
X105720580Y-59944989D01*
X105664717Y-59938424D01*
X105602428Y-59916244D01*
X105602422Y-59916243D01*
X105595790Y-59913881D01*
X105588802Y-59913048D01*
X105588799Y-59913047D01*
X105434188Y-59894611D01*
X105415680Y-59892404D01*
X105408677Y-59893140D01*
X105408676Y-59893140D01*
X105242288Y-59910628D01*
X105242286Y-59910629D01*
X105235288Y-59911364D01*
X105156842Y-59938069D01*
X105154219Y-59938962D01*
X105083287Y-59941980D01*
X105021983Y-59906170D01*
X104994091Y-59859561D01*
X104953870Y-59739007D01*
X104953869Y-59739005D01*
X104951550Y-59732054D01*
X104858478Y-59581652D01*
X104733303Y-59456695D01*
X104658804Y-59410773D01*
X104588968Y-59367725D01*
X104588966Y-59367724D01*
X104582738Y-59363885D01*
X104496873Y-59335405D01*
X104421389Y-59310368D01*
X104421387Y-59310368D01*
X104414861Y-59308203D01*
X104408025Y-59307503D01*
X104408022Y-59307502D01*
X104364969Y-59303091D01*
X104310400Y-59297500D01*
X103384600Y-59297500D01*
X103381354Y-59297837D01*
X103381350Y-59297837D01*
X103285692Y-59307762D01*
X103285688Y-59307763D01*
X103278834Y-59308474D01*
X103272298Y-59310655D01*
X103272296Y-59310655D01*
X103255928Y-59316116D01*
X103111054Y-59364450D01*
X102960652Y-59457522D01*
X102835695Y-59582697D01*
X102831855Y-59588927D01*
X102831854Y-59588928D01*
X102766402Y-59695111D01*
X102742885Y-59733262D01*
X102716436Y-59813005D01*
X102689824Y-59893238D01*
X102687203Y-59901139D01*
X102676500Y-60005600D01*
X102676500Y-61406400D01*
X96774500Y-61406400D01*
X96774500Y-57385885D01*
X108036000Y-57385885D01*
X108040475Y-57401124D01*
X108041865Y-57402329D01*
X108049548Y-57404000D01*
X108921885Y-57404000D01*
X108937124Y-57399525D01*
X108938329Y-57398135D01*
X108940000Y-57390452D01*
X108940000Y-57385885D01*
X109448000Y-57385885D01*
X109452475Y-57401124D01*
X109453865Y-57402329D01*
X109461548Y-57404000D01*
X110333884Y-57404000D01*
X110349123Y-57399525D01*
X110350328Y-57398135D01*
X110351999Y-57390452D01*
X110351999Y-56985905D01*
X110351662Y-56979386D01*
X110341743Y-56883794D01*
X110338851Y-56870400D01*
X110287412Y-56716216D01*
X110281239Y-56703038D01*
X110195937Y-56565193D01*
X110186901Y-56553792D01*
X110072171Y-56439261D01*
X110060760Y-56430249D01*
X109922757Y-56345184D01*
X109909576Y-56339037D01*
X109755290Y-56287862D01*
X109741914Y-56284995D01*
X109647562Y-56275328D01*
X109641145Y-56275000D01*
X109466115Y-56275000D01*
X109450876Y-56279475D01*
X109449671Y-56280865D01*
X109448000Y-56288548D01*
X109448000Y-57385885D01*
X108940000Y-57385885D01*
X108940000Y-56293116D01*
X108935525Y-56277877D01*
X108934135Y-56276672D01*
X108926452Y-56275001D01*
X108746905Y-56275001D01*
X108740386Y-56275338D01*
X108644794Y-56285257D01*
X108631400Y-56288149D01*
X108477216Y-56339588D01*
X108464038Y-56345761D01*
X108326193Y-56431063D01*
X108314792Y-56440099D01*
X108200261Y-56554829D01*
X108191249Y-56566240D01*
X108106184Y-56704243D01*
X108100037Y-56717424D01*
X108048862Y-56871710D01*
X108045995Y-56885086D01*
X108036328Y-56979438D01*
X108036000Y-56985855D01*
X108036000Y-57385885D01*
X96774500Y-57385885D01*
X96774500Y-55244500D01*
X96794502Y-55176379D01*
X96848158Y-55129886D01*
X96900500Y-55118500D01*
X138811500Y-55118500D01*
X138879621Y-55138502D01*
G37*
%TD.AperFunction*%
%TA.AperFunction,Conductor*%
G36*
X109293621Y-60690002D02*
G01*
X109340114Y-60743658D01*
X109351500Y-60796000D01*
X109351501Y-61467504D01*
X109351501Y-62108978D01*
X109354326Y-62144889D01*
X109356123Y-62151074D01*
X109357280Y-62157411D01*
X109356471Y-62157559D01*
X109360000Y-62182353D01*
X109360000Y-62312651D01*
X109350583Y-62358528D01*
X109350746Y-62358580D01*
X109293909Y-62537752D01*
X109272956Y-62724552D01*
X109273472Y-62730696D01*
X109283425Y-62849220D01*
X109288685Y-62911865D01*
X109340497Y-63092555D01*
X109343312Y-63098032D01*
X109343313Y-63098035D01*
X109398482Y-63205382D01*
X109426418Y-63259740D01*
X109430241Y-63264564D01*
X109430244Y-63264568D01*
X109507023Y-63361438D01*
X109543177Y-63407052D01*
X109547871Y-63411047D01*
X109668535Y-63513740D01*
X109686324Y-63528880D01*
X109691702Y-63531886D01*
X109691704Y-63531887D01*
X109733801Y-63555414D01*
X109850409Y-63620584D01*
X110029180Y-63678670D01*
X110215830Y-63700927D01*
X110221965Y-63700455D01*
X110221967Y-63700455D01*
X110397105Y-63686979D01*
X110397109Y-63686978D01*
X110403247Y-63686506D01*
X110462364Y-63670000D01*
X110478650Y-63665453D01*
X110549640Y-63666399D01*
X110594197Y-63690857D01*
X110609214Y-63703637D01*
X110702324Y-63782880D01*
X110707702Y-63785886D01*
X110707704Y-63785887D01*
X110784367Y-63828732D01*
X110866409Y-63874584D01*
X111045180Y-63932670D01*
X111231830Y-63954927D01*
X111237965Y-63954455D01*
X111237967Y-63954455D01*
X111413105Y-63940979D01*
X111413109Y-63940978D01*
X111419247Y-63940506D01*
X111563469Y-63900238D01*
X111594350Y-63891616D01*
X111594353Y-63891615D01*
X111600294Y-63889956D01*
X111605798Y-63887176D01*
X111605800Y-63887175D01*
X111762574Y-63807983D01*
X111762576Y-63807982D01*
X111768075Y-63805204D01*
X111916199Y-63689477D01*
X111924898Y-63679399D01*
X112034994Y-63551852D01*
X112034995Y-63551850D01*
X112039023Y-63547184D01*
X112051690Y-63524887D01*
X112086380Y-63463821D01*
X112131870Y-63383744D01*
X112146940Y-63338442D01*
X112187422Y-63280118D01*
X112253010Y-63252939D01*
X112322881Y-63265534D01*
X112374850Y-63313905D01*
X112384002Y-63335113D01*
X112384531Y-63334904D01*
X112386798Y-63340631D01*
X112388497Y-63346555D01*
X112391312Y-63352032D01*
X112391313Y-63352035D01*
X112471603Y-63508263D01*
X112474418Y-63513740D01*
X112478241Y-63518564D01*
X112478244Y-63518568D01*
X112543137Y-63600441D01*
X112591177Y-63661052D01*
X112595871Y-63665047D01*
X112677054Y-63734139D01*
X112734324Y-63782880D01*
X112739702Y-63785886D01*
X112739704Y-63785887D01*
X112816367Y-63828732D01*
X112898409Y-63874584D01*
X113077180Y-63932670D01*
X113263830Y-63954927D01*
X113269965Y-63954455D01*
X113269967Y-63954455D01*
X113445105Y-63940979D01*
X113445109Y-63940978D01*
X113451247Y-63940506D01*
X113457186Y-63938848D01*
X113486131Y-63930766D01*
X113615088Y-63894760D01*
X113686077Y-63895706D01*
X113745286Y-63934881D01*
X113773916Y-63999849D01*
X113767374Y-64059208D01*
X113763197Y-64070685D01*
X113740463Y-64250640D01*
X113758163Y-64431160D01*
X113815418Y-64603273D01*
X113819065Y-64609296D01*
X113819066Y-64609297D01*
X113827276Y-64622853D01*
X113845500Y-64688124D01*
X113845500Y-70266339D01*
X113825498Y-70334460D01*
X113808595Y-70355434D01*
X109524563Y-74639467D01*
X109476074Y-74669650D01*
X109381579Y-74701818D01*
X109329042Y-74734139D01*
X109233095Y-74793166D01*
X109233092Y-74793168D01*
X109227088Y-74796862D01*
X109222053Y-74801793D01*
X109222050Y-74801795D01*
X109181600Y-74841407D01*
X109097493Y-74923771D01*
X108999235Y-75076238D01*
X108996825Y-75082858D01*
X108996824Y-75082861D01*
X108958110Y-75189226D01*
X108928804Y-75235226D01*
X108833595Y-75330435D01*
X108771283Y-75364461D01*
X108700468Y-75359396D01*
X108643632Y-75316849D01*
X108618821Y-75250329D01*
X108618500Y-75241340D01*
X108618499Y-74983496D01*
X108618499Y-74981022D01*
X108615674Y-74945111D01*
X108571018Y-74791407D01*
X108537150Y-74734138D01*
X108519691Y-74665323D01*
X108537150Y-74605861D01*
X108537415Y-74605414D01*
X108571018Y-74548593D01*
X108573229Y-74540983D01*
X108613878Y-74401072D01*
X108613879Y-74401069D01*
X108615674Y-74394889D01*
X108616670Y-74382238D01*
X108618307Y-74361438D01*
X108618308Y-74361425D01*
X108618500Y-74358979D01*
X108618499Y-73981022D01*
X108615674Y-73945111D01*
X108571018Y-73791407D01*
X108537150Y-73734138D01*
X108519691Y-73665323D01*
X108537150Y-73605861D01*
X108537415Y-73605414D01*
X108571018Y-73548593D01*
X108587631Y-73491411D01*
X108613878Y-73401072D01*
X108613879Y-73401069D01*
X108615674Y-73394889D01*
X108616670Y-73382238D01*
X108618307Y-73361438D01*
X108618308Y-73361425D01*
X108618500Y-73358979D01*
X108618499Y-72981022D01*
X108615674Y-72945111D01*
X108571018Y-72791407D01*
X108537150Y-72734138D01*
X108519691Y-72665323D01*
X108537150Y-72605861D01*
X108537415Y-72605414D01*
X108571018Y-72548593D01*
X108573229Y-72540983D01*
X108613878Y-72401072D01*
X108613879Y-72401069D01*
X108615674Y-72394889D01*
X108616670Y-72382238D01*
X108618307Y-72361438D01*
X108618308Y-72361425D01*
X108618500Y-72358979D01*
X108618499Y-71981022D01*
X108615674Y-71945111D01*
X108571018Y-71791407D01*
X108537150Y-71734138D01*
X108519691Y-71665323D01*
X108537150Y-71605861D01*
X108537415Y-71605414D01*
X108571018Y-71548593D01*
X108599127Y-71451843D01*
X108613878Y-71401072D01*
X108613879Y-71401069D01*
X108615674Y-71394889D01*
X108616670Y-71382238D01*
X108618307Y-71361438D01*
X108618308Y-71361425D01*
X108618500Y-71358979D01*
X108618499Y-70981022D01*
X108617208Y-70964614D01*
X108616179Y-70951526D01*
X108616178Y-70951523D01*
X108615674Y-70945111D01*
X108571018Y-70791407D01*
X108537150Y-70734138D01*
X108519691Y-70665323D01*
X108537150Y-70605861D01*
X108537415Y-70605414D01*
X108571018Y-70548593D01*
X108597751Y-70456580D01*
X108613878Y-70401072D01*
X108613879Y-70401069D01*
X108615674Y-70394889D01*
X108616670Y-70382238D01*
X108618307Y-70361438D01*
X108618308Y-70361425D01*
X108618500Y-70358979D01*
X108618499Y-69981022D01*
X108615674Y-69945111D01*
X108571018Y-69791407D01*
X108537150Y-69734138D01*
X108519691Y-69665323D01*
X108537150Y-69605861D01*
X108537415Y-69605414D01*
X108571018Y-69548593D01*
X108573229Y-69540983D01*
X108608836Y-69418427D01*
X108647050Y-69358592D01*
X108711546Y-69328915D01*
X108773750Y-69335483D01*
X108795168Y-69343448D01*
X108878995Y-69354633D01*
X108967980Y-69366507D01*
X108967984Y-69366507D01*
X108974961Y-69367438D01*
X108981972Y-69366800D01*
X108981976Y-69366800D01*
X109124459Y-69353832D01*
X109155600Y-69350998D01*
X109162302Y-69348820D01*
X109162304Y-69348820D01*
X109321409Y-69297124D01*
X109321412Y-69297123D01*
X109328108Y-69294947D01*
X109483912Y-69202069D01*
X109615266Y-69076982D01*
X109715643Y-68925902D01*
X109762233Y-68803255D01*
X109777555Y-68762920D01*
X109777556Y-68762918D01*
X109780055Y-68756338D01*
X109785162Y-68720000D01*
X109801202Y-68605871D01*
X109830490Y-68541197D01*
X109836881Y-68534312D01*
X109853707Y-68517486D01*
X109866098Y-68506618D01*
X109883611Y-68493180D01*
X109890157Y-68488157D01*
X109983686Y-68366267D01*
X110042481Y-68224324D01*
X110057500Y-68110244D01*
X110062535Y-68072000D01*
X110058578Y-68041944D01*
X110057500Y-68025497D01*
X110057500Y-64632503D01*
X110058578Y-64616056D01*
X110061457Y-64594188D01*
X110062535Y-64586000D01*
X110042481Y-64433676D01*
X109983686Y-64291733D01*
X109913640Y-64200446D01*
X109913637Y-64200443D01*
X109890157Y-64169843D01*
X109866102Y-64151385D01*
X109853718Y-64140524D01*
X109503479Y-63790286D01*
X109492611Y-63777893D01*
X109479185Y-63760396D01*
X109474157Y-63753843D01*
X109352267Y-63660314D01*
X109230380Y-63609826D01*
X109217953Y-63604679D01*
X109210324Y-63601519D01*
X109096244Y-63586500D01*
X109058000Y-63581465D01*
X109049812Y-63582543D01*
X109027944Y-63585422D01*
X109011497Y-63586500D01*
X108727822Y-63586500D01*
X108659701Y-63566498D01*
X108613208Y-63512842D01*
X108603104Y-63442568D01*
X108606825Y-63425346D01*
X108613878Y-63401072D01*
X108613879Y-63401067D01*
X108615674Y-63394889D01*
X108616670Y-63382238D01*
X108618307Y-63361438D01*
X108618308Y-63361425D01*
X108618500Y-63358979D01*
X108618499Y-62981022D01*
X108617632Y-62970000D01*
X108616179Y-62951526D01*
X108616178Y-62951523D01*
X108615674Y-62945111D01*
X108571018Y-62791407D01*
X108571985Y-62791126D01*
X108564157Y-62727678D01*
X108594939Y-62663701D01*
X108655422Y-62626523D01*
X108726404Y-62627946D01*
X108738539Y-62632472D01*
X108739227Y-62632770D01*
X108842605Y-62662804D01*
X108856705Y-62662764D01*
X108860000Y-62655494D01*
X108860000Y-60796000D01*
X108880002Y-60727879D01*
X108933658Y-60681386D01*
X108986000Y-60670000D01*
X109225500Y-60670000D01*
X109293621Y-60690002D01*
G37*
%TD.AperFunction*%
%TD*%
M02*
