%TF.GenerationSoftware,KiCad,Pcbnew,(6.0.5)*%
%TF.CreationDate,2023-06-09T12:11:34-05:00*%
%TF.ProjectId,pcchips_apic,70636368-6970-4735-9f61-7069632e6b69,rev?*%
%TF.SameCoordinates,Original*%
%TF.FileFunction,Paste,Top*%
%TF.FilePolarity,Positive*%
%FSLAX46Y46*%
G04 Gerber Fmt 4.6, Leading zero omitted, Abs format (unit mm)*
G04 Created by KiCad (PCBNEW (6.0.5)) date 2023-06-09 12:11:34*
%MOMM*%
%LPD*%
G01*
G04 APERTURE LIST*
G04 Aperture macros list*
%AMRoundRect*
0 Rectangle with rounded corners*
0 $1 Rounding radius*
0 $2 $3 $4 $5 $6 $7 $8 $9 X,Y pos of 4 corners*
0 Add a 4 corners polygon primitive as box body*
4,1,4,$2,$3,$4,$5,$6,$7,$8,$9,$2,$3,0*
0 Add four circle primitives for the rounded corners*
1,1,$1+$1,$2,$3*
1,1,$1+$1,$4,$5*
1,1,$1+$1,$6,$7*
1,1,$1+$1,$8,$9*
0 Add four rect primitives between the rounded corners*
20,1,$1+$1,$2,$3,$4,$5,0*
20,1,$1+$1,$4,$5,$6,$7,0*
20,1,$1+$1,$6,$7,$8,$9,0*
20,1,$1+$1,$8,$9,$2,$3,0*%
G04 Aperture macros list end*
%ADD10RoundRect,0.125000X-0.125000X-1.125000X0.125000X-1.125000X0.125000X1.125000X-0.125000X1.125000X0*%
%ADD11RoundRect,0.125000X1.125000X-0.125000X1.125000X0.125000X-1.125000X0.125000X-1.125000X-0.125000X0*%
%ADD12RoundRect,0.125000X0.125000X1.125000X-0.125000X1.125000X-0.125000X-1.125000X0.125000X-1.125000X0*%
%ADD13RoundRect,0.125000X-1.125000X0.125000X-1.125000X-0.125000X1.125000X-0.125000X1.125000X0.125000X0*%
%ADD14RoundRect,0.250000X0.650000X-0.412500X0.650000X0.412500X-0.650000X0.412500X-0.650000X-0.412500X0*%
%ADD15RoundRect,0.250000X-0.250000X-3.500000X0.250000X-3.500000X0.250000X3.500000X-0.250000X3.500000X0*%
%ADD16RoundRect,0.250000X0.400000X0.625000X-0.400000X0.625000X-0.400000X-0.625000X0.400000X-0.625000X0*%
%ADD17RoundRect,0.250000X0.412500X0.650000X-0.412500X0.650000X-0.412500X-0.650000X0.412500X-0.650000X0*%
G04 APERTURE END LIST*
D10*
%TO.C,U1*%
X127110000Y-60920000D03*
X126110000Y-60920000D03*
X125110000Y-60920000D03*
X124110000Y-60920000D03*
X123110000Y-60920000D03*
X122110000Y-60920000D03*
X121110000Y-60920000D03*
X120110000Y-60920000D03*
X119110000Y-60920000D03*
X118110000Y-60920000D03*
X117110000Y-60920000D03*
X116110000Y-60920000D03*
X115110000Y-60920000D03*
X114110000Y-60920000D03*
X113110000Y-60920000D03*
X112110000Y-60920000D03*
X111110000Y-60920000D03*
X110110000Y-60920000D03*
X109110000Y-60920000D03*
D11*
X106860000Y-63170000D03*
X106860000Y-64170000D03*
X106860000Y-65170000D03*
X106860000Y-66170000D03*
X106860000Y-67170000D03*
X106860000Y-68170000D03*
X106860000Y-69170000D03*
X106860000Y-70170000D03*
X106860000Y-71170000D03*
X106860000Y-72170000D03*
X106860000Y-73170000D03*
X106860000Y-74170000D03*
X106860000Y-75170000D03*
D12*
X109110000Y-77470000D03*
X110110000Y-77470000D03*
X111110000Y-77470000D03*
X112110000Y-77470000D03*
X113110000Y-77470000D03*
X114110000Y-77470000D03*
X115110000Y-77470000D03*
X116110000Y-77470000D03*
X117110000Y-77470000D03*
X118110000Y-77470000D03*
X119110000Y-77470000D03*
X120110000Y-77470000D03*
X121110000Y-77470000D03*
X122110000Y-77470000D03*
X123110000Y-77470000D03*
X124110000Y-77470000D03*
X125110000Y-77470000D03*
X126110000Y-77470000D03*
X127110000Y-77470000D03*
D13*
X129360000Y-75220000D03*
X129360000Y-74220000D03*
X129360000Y-73220000D03*
X129360000Y-72220000D03*
X129360000Y-71220000D03*
X129360000Y-70220000D03*
X129360000Y-69220000D03*
X129360000Y-68220000D03*
X129360000Y-67220000D03*
X129360000Y-66220000D03*
X129360000Y-65220000D03*
X129360000Y-64220000D03*
X129360000Y-63220000D03*
%TD*%
D14*
%TO.C,C3*%
X129540000Y-61252500D03*
X129540000Y-58127500D03*
%TD*%
%TO.C,C4*%
X135636000Y-78270500D03*
X135636000Y-75145500D03*
%TD*%
D15*
%TO.C,.*%
X102642000Y-85542000D03*
X103912000Y-85542000D03*
X105182000Y-85542000D03*
X106452000Y-85542000D03*
X107722000Y-85542000D03*
X108992000Y-85542000D03*
X110262000Y-85542000D03*
X111532000Y-85542000D03*
X112802000Y-85542000D03*
X114072000Y-85542000D03*
X115342000Y-85542000D03*
X116612000Y-85542000D03*
X117882000Y-85542000D03*
X119152000Y-85542000D03*
X120422000Y-85542000D03*
X121692000Y-85542000D03*
X122962000Y-85542000D03*
X124232000Y-85542000D03*
X125502000Y-85542000D03*
X126772000Y-85542000D03*
X128042000Y-85542000D03*
X129312000Y-85542000D03*
X130582000Y-85542000D03*
X131852000Y-85542000D03*
X133122000Y-85542000D03*
%TD*%
D16*
%TO.C,R1*%
X112294000Y-57658000D03*
X109194000Y-57658000D03*
%TD*%
%TO.C,R5*%
X124994000Y-57658000D03*
X121894000Y-57658000D03*
%TD*%
D17*
%TO.C,C1*%
X106972500Y-60706000D03*
X103847500Y-60706000D03*
%TD*%
M02*
