%TF.GenerationSoftware,KiCad,Pcbnew,(6.0.5)*%
%TF.CreationDate,2023-06-09T12:11:34-05:00*%
%TF.ProjectId,pcchips_apic,70636368-6970-4735-9f61-7069632e6b69,rev?*%
%TF.SameCoordinates,Original*%
%TF.FileFunction,Legend,Bot*%
%TF.FilePolarity,Positive*%
%FSLAX46Y46*%
G04 Gerber Fmt 4.6, Leading zero omitted, Abs format (unit mm)*
G04 Created by KiCad (PCBNEW (6.0.5)) date 2023-06-09 12:11:34*
%MOMM*%
%LPD*%
G01*
G04 APERTURE LIST*
%ADD10C,0.152400*%
%ADD11C,0.304800*%
%ADD12C,0.300000*%
%ADD13C,0.150000*%
%ADD14C,0.120000*%
G04 APERTURE END LIST*
D10*
X138136178Y-66513557D02*
X138136178Y-65695557D01*
X138136178Y-66007176D02*
X138058273Y-65968224D01*
X137902463Y-65968224D01*
X137824559Y-66007176D01*
X137785606Y-66046129D01*
X137746654Y-66124033D01*
X137746654Y-66357748D01*
X137785606Y-66435652D01*
X137824559Y-66474605D01*
X137902463Y-66513557D01*
X138058273Y-66513557D01*
X138136178Y-66474605D01*
X137473987Y-65968224D02*
X137279225Y-66513557D01*
X137084463Y-65968224D02*
X137279225Y-66513557D01*
X137357130Y-66708319D01*
X137396082Y-66747271D01*
X137473987Y-66786224D01*
X136149606Y-66513557D02*
X136149606Y-65695557D01*
X135876940Y-66279843D01*
X135604273Y-65695557D01*
X135604273Y-66513557D01*
X134864178Y-66513557D02*
X134864178Y-66085081D01*
X134903130Y-66007176D01*
X134981035Y-65968224D01*
X135136844Y-65968224D01*
X135214749Y-66007176D01*
X134864178Y-66474605D02*
X134942082Y-66513557D01*
X135136844Y-66513557D01*
X135214749Y-66474605D01*
X135253701Y-66396700D01*
X135253701Y-66318795D01*
X135214749Y-66240890D01*
X135136844Y-66201938D01*
X134942082Y-66201938D01*
X134864178Y-66162986D01*
X134591511Y-65968224D02*
X134279892Y-65968224D01*
X134474654Y-65695557D02*
X134474654Y-66396700D01*
X134435701Y-66474605D01*
X134357797Y-66513557D01*
X134279892Y-66513557D01*
X134124082Y-65968224D02*
X133812463Y-65968224D01*
X134007225Y-65695557D02*
X134007225Y-66396700D01*
X133968273Y-66474605D01*
X133890368Y-66513557D01*
X133812463Y-66513557D01*
X133539797Y-66513557D02*
X133539797Y-65695557D01*
X133189225Y-66513557D02*
X133189225Y-66085081D01*
X133228178Y-66007176D01*
X133306082Y-65968224D01*
X133422940Y-65968224D01*
X133500844Y-66007176D01*
X133539797Y-66046129D01*
X132488082Y-66474605D02*
X132565987Y-66513557D01*
X132721797Y-66513557D01*
X132799701Y-66474605D01*
X132838654Y-66396700D01*
X132838654Y-66085081D01*
X132799701Y-66007176D01*
X132721797Y-65968224D01*
X132565987Y-65968224D01*
X132488082Y-66007176D01*
X132449130Y-66085081D01*
X132449130Y-66162986D01*
X132838654Y-66240890D01*
X132176463Y-65968224D02*
X132020654Y-66513557D01*
X131864844Y-66124033D01*
X131709035Y-66513557D01*
X131553225Y-65968224D01*
X130618368Y-66513557D02*
X130618368Y-65695557D01*
X130306749Y-65695557D01*
X130228844Y-65734510D01*
X130189892Y-65773462D01*
X130150940Y-65851367D01*
X130150940Y-65968224D01*
X130189892Y-66046129D01*
X130228844Y-66085081D01*
X130306749Y-66124033D01*
X130618368Y-66124033D01*
X129488749Y-66474605D02*
X129566654Y-66513557D01*
X129722463Y-66513557D01*
X129800368Y-66474605D01*
X129839320Y-66396700D01*
X129839320Y-66085081D01*
X129800368Y-66007176D01*
X129722463Y-65968224D01*
X129566654Y-65968224D01*
X129488749Y-66007176D01*
X129449797Y-66085081D01*
X129449797Y-66162986D01*
X129839320Y-66240890D01*
X129216082Y-65968224D02*
X128904463Y-65968224D01*
X129099225Y-65695557D02*
X129099225Y-66396700D01*
X129060273Y-66474605D01*
X128982368Y-66513557D01*
X128904463Y-66513557D01*
X128631797Y-66513557D02*
X128631797Y-65968224D01*
X128631797Y-66124033D02*
X128592844Y-66046129D01*
X128553892Y-66007176D01*
X128475987Y-65968224D01*
X128398082Y-65968224D01*
X128203320Y-65968224D02*
X128008559Y-66513557D01*
X127813797Y-65968224D02*
X128008559Y-66513557D01*
X128086463Y-66708319D01*
X128125416Y-66747271D01*
X128203320Y-66786224D01*
X137902463Y-68142156D02*
X137941416Y-68103204D01*
X138019320Y-67986347D01*
X138058273Y-67908442D01*
X138097225Y-67791585D01*
X138136178Y-67596823D01*
X138136178Y-67441013D01*
X138097225Y-67246251D01*
X138058273Y-67129394D01*
X138019320Y-67051490D01*
X137941416Y-66934632D01*
X137902463Y-66895680D01*
X137707701Y-67285204D02*
X137396082Y-67285204D01*
X137590844Y-67830537D02*
X137590844Y-67129394D01*
X137551892Y-67051490D01*
X137473987Y-67012537D01*
X137396082Y-67012537D01*
X137123416Y-67830537D02*
X137123416Y-67285204D01*
X137123416Y-67012537D02*
X137162368Y-67051490D01*
X137123416Y-67090442D01*
X137084463Y-67051490D01*
X137123416Y-67012537D01*
X137123416Y-67090442D01*
X136733892Y-67830537D02*
X136733892Y-67285204D01*
X136733892Y-67441013D02*
X136694940Y-67363109D01*
X136655987Y-67324156D01*
X136578082Y-67285204D01*
X136500178Y-67285204D01*
X135915892Y-67791585D02*
X135993797Y-67830537D01*
X136149606Y-67830537D01*
X136227511Y-67791585D01*
X136266463Y-67713680D01*
X136266463Y-67402061D01*
X136227511Y-67324156D01*
X136149606Y-67285204D01*
X135993797Y-67285204D01*
X135915892Y-67324156D01*
X135876940Y-67402061D01*
X135876940Y-67479966D01*
X136266463Y-67557870D01*
X135643225Y-67012537D02*
X135175797Y-67012537D01*
X135409511Y-67830537D02*
X135409511Y-67012537D01*
X134981035Y-67285204D02*
X134825225Y-67830537D01*
X134669416Y-67441013D01*
X134513606Y-67830537D01*
X134357797Y-67285204D01*
X133929320Y-67830537D02*
X134007225Y-67791585D01*
X134046178Y-67752632D01*
X134085130Y-67674728D01*
X134085130Y-67441013D01*
X134046178Y-67363109D01*
X134007225Y-67324156D01*
X133929320Y-67285204D01*
X133812463Y-67285204D01*
X133734559Y-67324156D01*
X133695606Y-67363109D01*
X133656654Y-67441013D01*
X133656654Y-67674728D01*
X133695606Y-67752632D01*
X133734559Y-67791585D01*
X133812463Y-67830537D01*
X133929320Y-67830537D01*
X133150273Y-67012537D02*
X132994463Y-67012537D01*
X132916559Y-67051490D01*
X132838654Y-67129394D01*
X132799701Y-67285204D01*
X132799701Y-67557870D01*
X132838654Y-67713680D01*
X132916559Y-67791585D01*
X132994463Y-67830537D01*
X133150273Y-67830537D01*
X133228178Y-67791585D01*
X133306082Y-67713680D01*
X133345035Y-67557870D01*
X133345035Y-67285204D01*
X133306082Y-67129394D01*
X133228178Y-67051490D01*
X133150273Y-67012537D01*
X132449130Y-67285204D02*
X132449130Y-67830537D01*
X132449130Y-67363109D02*
X132410178Y-67324156D01*
X132332273Y-67285204D01*
X132215416Y-67285204D01*
X132137511Y-67324156D01*
X132098559Y-67402061D01*
X132098559Y-67830537D01*
X131397416Y-67791585D02*
X131475320Y-67830537D01*
X131631130Y-67830537D01*
X131709035Y-67791585D01*
X131747987Y-67713680D01*
X131747987Y-67402061D01*
X131709035Y-67324156D01*
X131631130Y-67285204D01*
X131475320Y-67285204D01*
X131397416Y-67324156D01*
X131358463Y-67402061D01*
X131358463Y-67479966D01*
X131747987Y-67557870D01*
X131007892Y-67830537D02*
X131007892Y-67012537D01*
X130540463Y-67830537D01*
X130540463Y-67012537D01*
X130150940Y-67830537D02*
X130150940Y-67285204D01*
X130150940Y-67012537D02*
X130189892Y-67051490D01*
X130150940Y-67090442D01*
X130111987Y-67051490D01*
X130150940Y-67012537D01*
X130150940Y-67090442D01*
X129761416Y-67285204D02*
X129761416Y-67830537D01*
X129761416Y-67363109D02*
X129722463Y-67324156D01*
X129644559Y-67285204D01*
X129527701Y-67285204D01*
X129449797Y-67324156D01*
X129410844Y-67402061D01*
X129410844Y-67830537D01*
X128709701Y-67791585D02*
X128787606Y-67830537D01*
X128943416Y-67830537D01*
X129021320Y-67791585D01*
X129060273Y-67713680D01*
X129060273Y-67402061D01*
X129021320Y-67324156D01*
X128943416Y-67285204D01*
X128787606Y-67285204D01*
X128709701Y-67324156D01*
X128670749Y-67402061D01*
X128670749Y-67479966D01*
X129060273Y-67557870D01*
X127735892Y-66973585D02*
X128437035Y-68025299D01*
X127580082Y-67012537D02*
X127112654Y-67012537D01*
X127346368Y-67830537D02*
X127346368Y-67012537D01*
X126528368Y-67791585D02*
X126606273Y-67830537D01*
X126762082Y-67830537D01*
X126839987Y-67791585D01*
X126878940Y-67713680D01*
X126878940Y-67402061D01*
X126839987Y-67324156D01*
X126762082Y-67285204D01*
X126606273Y-67285204D01*
X126528368Y-67324156D01*
X126489416Y-67402061D01*
X126489416Y-67479966D01*
X126878940Y-67557870D01*
X125788273Y-67791585D02*
X125866178Y-67830537D01*
X126021987Y-67830537D01*
X126099892Y-67791585D01*
X126138844Y-67752632D01*
X126177797Y-67674728D01*
X126177797Y-67441013D01*
X126138844Y-67363109D01*
X126099892Y-67324156D01*
X126021987Y-67285204D01*
X125866178Y-67285204D01*
X125788273Y-67324156D01*
X125437701Y-67830537D02*
X125437701Y-67012537D01*
X125087130Y-67830537D02*
X125087130Y-67402061D01*
X125126082Y-67324156D01*
X125203987Y-67285204D01*
X125320844Y-67285204D01*
X125398749Y-67324156D01*
X125437701Y-67363109D01*
X123684844Y-67830537D02*
X124074368Y-67830537D01*
X124074368Y-67012537D01*
X123100559Y-67791585D02*
X123178463Y-67830537D01*
X123334273Y-67830537D01*
X123412178Y-67791585D01*
X123451130Y-67713680D01*
X123451130Y-67402061D01*
X123412178Y-67324156D01*
X123334273Y-67285204D01*
X123178463Y-67285204D01*
X123100559Y-67324156D01*
X123061606Y-67402061D01*
X123061606Y-67479966D01*
X123451130Y-67557870D01*
X122827892Y-67285204D02*
X122516273Y-67285204D01*
X122711035Y-67830537D02*
X122711035Y-67129394D01*
X122672082Y-67051490D01*
X122594178Y-67012537D01*
X122516273Y-67012537D01*
X122360463Y-67285204D02*
X122048844Y-67285204D01*
X122243606Y-67012537D02*
X122243606Y-67713680D01*
X122204654Y-67791585D01*
X122126749Y-67830537D01*
X122048844Y-67830537D01*
X120880273Y-67402061D02*
X120763416Y-67441013D01*
X120724463Y-67479966D01*
X120685511Y-67557870D01*
X120685511Y-67674728D01*
X120724463Y-67752632D01*
X120763416Y-67791585D01*
X120841320Y-67830537D01*
X121152940Y-67830537D01*
X121152940Y-67012537D01*
X120880273Y-67012537D01*
X120802368Y-67051490D01*
X120763416Y-67090442D01*
X120724463Y-67168347D01*
X120724463Y-67246251D01*
X120763416Y-67324156D01*
X120802368Y-67363109D01*
X120880273Y-67402061D01*
X121152940Y-67402061D01*
X120023320Y-67791585D02*
X120101225Y-67830537D01*
X120257035Y-67830537D01*
X120334940Y-67791585D01*
X120373892Y-67713680D01*
X120373892Y-67402061D01*
X120334940Y-67324156D01*
X120257035Y-67285204D01*
X120101225Y-67285204D01*
X120023320Y-67324156D01*
X119984368Y-67402061D01*
X119984368Y-67479966D01*
X120373892Y-67557870D01*
X119633797Y-67830537D02*
X119633797Y-67012537D01*
X119283225Y-67830537D02*
X119283225Y-67402061D01*
X119322178Y-67324156D01*
X119400082Y-67285204D01*
X119516940Y-67285204D01*
X119594844Y-67324156D01*
X119633797Y-67363109D01*
X118893701Y-67830537D02*
X118893701Y-67285204D01*
X118893701Y-67012537D02*
X118932654Y-67051490D01*
X118893701Y-67090442D01*
X118854749Y-67051490D01*
X118893701Y-67012537D01*
X118893701Y-67090442D01*
X118504178Y-67285204D02*
X118504178Y-67830537D01*
X118504178Y-67363109D02*
X118465225Y-67324156D01*
X118387320Y-67285204D01*
X118270463Y-67285204D01*
X118192559Y-67324156D01*
X118153606Y-67402061D01*
X118153606Y-67830537D01*
X117413511Y-67830537D02*
X117413511Y-67012537D01*
X117413511Y-67791585D02*
X117491416Y-67830537D01*
X117647225Y-67830537D01*
X117725130Y-67791585D01*
X117764082Y-67752632D01*
X117803035Y-67674728D01*
X117803035Y-67441013D01*
X117764082Y-67363109D01*
X117725130Y-67324156D01*
X117647225Y-67285204D01*
X117491416Y-67285204D01*
X117413511Y-67324156D01*
X117101892Y-68142156D02*
X117062940Y-68103204D01*
X116985035Y-67986347D01*
X116946082Y-67908442D01*
X116907130Y-67791585D01*
X116868178Y-67596823D01*
X116868178Y-67441013D01*
X116907130Y-67246251D01*
X116946082Y-67129394D01*
X116985035Y-67051490D01*
X117062940Y-66934632D01*
X117101892Y-66895680D01*
D11*
X138139714Y-64516000D02*
X137414000Y-64516000D01*
X138284857Y-64951428D02*
X137776857Y-63427428D01*
X137268857Y-64951428D01*
X136760857Y-64951428D02*
X136760857Y-63427428D01*
X136180285Y-63427428D01*
X136035142Y-63500000D01*
X135962571Y-63572571D01*
X135890000Y-63717714D01*
X135890000Y-63935428D01*
X135962571Y-64080571D01*
X136035142Y-64153142D01*
X136180285Y-64225714D01*
X136760857Y-64225714D01*
X135236857Y-64951428D02*
X135236857Y-63427428D01*
X133640285Y-64806285D02*
X133712857Y-64878857D01*
X133930571Y-64951428D01*
X134075714Y-64951428D01*
X134293428Y-64878857D01*
X134438571Y-64733714D01*
X134511142Y-64588571D01*
X134583714Y-64298285D01*
X134583714Y-64080571D01*
X134511142Y-63790285D01*
X134438571Y-63645142D01*
X134293428Y-63500000D01*
X134075714Y-63427428D01*
X133930571Y-63427428D01*
X133712857Y-63500000D01*
X133640285Y-63572571D01*
X131826000Y-64951428D02*
X131826000Y-63427428D01*
X131318000Y-64516000D01*
X130810000Y-63427428D01*
X130810000Y-64951428D01*
X129866571Y-64951428D02*
X130011714Y-64878857D01*
X130084285Y-64806285D01*
X130156857Y-64661142D01*
X130156857Y-64225714D01*
X130084285Y-64080571D01*
X130011714Y-64008000D01*
X129866571Y-63935428D01*
X129648857Y-63935428D01*
X129503714Y-64008000D01*
X129431142Y-64080571D01*
X129358571Y-64225714D01*
X129358571Y-64661142D01*
X129431142Y-64806285D01*
X129503714Y-64878857D01*
X129648857Y-64951428D01*
X129866571Y-64951428D01*
X128052285Y-64951428D02*
X128052285Y-63427428D01*
X128052285Y-64878857D02*
X128197428Y-64951428D01*
X128487714Y-64951428D01*
X128632857Y-64878857D01*
X128705428Y-64806285D01*
X128778000Y-64661142D01*
X128778000Y-64225714D01*
X128705428Y-64080571D01*
X128632857Y-64008000D01*
X128487714Y-63935428D01*
X128197428Y-63935428D01*
X128052285Y-64008000D01*
X126673428Y-63935428D02*
X126673428Y-64951428D01*
X127326571Y-63935428D02*
X127326571Y-64733714D01*
X127254000Y-64878857D01*
X127108857Y-64951428D01*
X126891142Y-64951428D01*
X126746000Y-64878857D01*
X126673428Y-64806285D01*
X125730000Y-64951428D02*
X125875142Y-64878857D01*
X125947714Y-64733714D01*
X125947714Y-63427428D01*
X124568857Y-64878857D02*
X124714000Y-64951428D01*
X125004285Y-64951428D01*
X125149428Y-64878857D01*
X125222000Y-64733714D01*
X125222000Y-64153142D01*
X125149428Y-64008000D01*
X125004285Y-63935428D01*
X124714000Y-63935428D01*
X124568857Y-64008000D01*
X124496285Y-64153142D01*
X124496285Y-64298285D01*
X125222000Y-64443428D01*
X138317428Y-61864761D02*
X138317428Y-59864761D01*
X137650761Y-61293333D01*
X136984095Y-59864761D01*
X136984095Y-61864761D01*
X136222190Y-59864761D02*
X134888857Y-59864761D01*
X135746000Y-61864761D01*
X134222190Y-60055238D02*
X134126952Y-59960000D01*
X133936476Y-59864761D01*
X133460285Y-59864761D01*
X133269809Y-59960000D01*
X133174571Y-60055238D01*
X133079333Y-60245714D01*
X133079333Y-60436190D01*
X133174571Y-60721904D01*
X134317428Y-61864761D01*
X133079333Y-61864761D01*
X131841238Y-59864761D02*
X131650761Y-59864761D01*
X131460285Y-59960000D01*
X131365047Y-60055238D01*
X131269809Y-60245714D01*
X131174571Y-60626666D01*
X131174571Y-61102857D01*
X131269809Y-61483809D01*
X131365047Y-61674285D01*
X131460285Y-61769523D01*
X131650761Y-61864761D01*
X131841238Y-61864761D01*
X132031714Y-61769523D01*
X132126952Y-61674285D01*
X132222190Y-61483809D01*
X132317428Y-61102857D01*
X132317428Y-60626666D01*
X132222190Y-60245714D01*
X132126952Y-60055238D01*
X132031714Y-59960000D01*
X131841238Y-59864761D01*
X128888857Y-59769523D02*
X130603142Y-62340952D01*
X128222190Y-61864761D02*
X128222190Y-59864761D01*
X127460285Y-59864761D01*
X127269809Y-59960000D01*
X127174571Y-60055238D01*
X127079333Y-60245714D01*
X127079333Y-60531428D01*
X127174571Y-60721904D01*
X127269809Y-60817142D01*
X127460285Y-60912380D01*
X128222190Y-60912380D01*
X126222190Y-61864761D02*
X126222190Y-59864761D01*
X125269809Y-61864761D02*
X125269809Y-59864761D01*
X124317428Y-61102857D02*
X122793619Y-61102857D01*
X121936476Y-60055238D02*
X121841238Y-59960000D01*
X121650761Y-59864761D01*
X121174571Y-59864761D01*
X120984095Y-59960000D01*
X120888857Y-60055238D01*
X120793619Y-60245714D01*
X120793619Y-60436190D01*
X120888857Y-60721904D01*
X122031714Y-61864761D01*
X120793619Y-61864761D01*
X120031714Y-60055238D02*
X119936476Y-59960000D01*
X119746000Y-59864761D01*
X119269809Y-59864761D01*
X119079333Y-59960000D01*
X118984095Y-60055238D01*
X118888857Y-60245714D01*
X118888857Y-60436190D01*
X118984095Y-60721904D01*
X120126952Y-61864761D01*
X118888857Y-61864761D01*
X117650761Y-59864761D02*
X117460285Y-59864761D01*
X117269809Y-59960000D01*
X117174571Y-60055238D01*
X117079333Y-60245714D01*
X116984095Y-60626666D01*
X116984095Y-61102857D01*
X117079333Y-61483809D01*
X117174571Y-61674285D01*
X117269809Y-61769523D01*
X117460285Y-61864761D01*
X117650761Y-61864761D01*
X117841238Y-61769523D01*
X117936476Y-61674285D01*
X118031714Y-61483809D01*
X118126952Y-61102857D01*
X118126952Y-60626666D01*
X118031714Y-60245714D01*
X117936476Y-60055238D01*
X117841238Y-59960000D01*
X117650761Y-59864761D01*
X115746000Y-59864761D02*
X115555523Y-59864761D01*
X115365047Y-59960000D01*
X115269809Y-60055238D01*
X115174571Y-60245714D01*
X115079333Y-60626666D01*
X115079333Y-61102857D01*
X115174571Y-61483809D01*
X115269809Y-61674285D01*
X115365047Y-61769523D01*
X115555523Y-61864761D01*
X115746000Y-61864761D01*
X115936476Y-61769523D01*
X116031714Y-61674285D01*
X116126952Y-61483809D01*
X116222190Y-61102857D01*
X116222190Y-60626666D01*
X116126952Y-60245714D01*
X116031714Y-60055238D01*
X115936476Y-59960000D01*
X115746000Y-59864761D01*
D12*
%TO.C,.*%
X136398000Y-58202285D02*
X136325428Y-58274857D01*
X136398000Y-58347428D01*
X136470571Y-58274857D01*
X136398000Y-58202285D01*
X136398000Y-58347428D01*
X104648000Y-63790285D02*
X104575428Y-63862857D01*
X104648000Y-63935428D01*
X104720571Y-63862857D01*
X104648000Y-63790285D01*
X104648000Y-63935428D01*
D13*
%TO.C,C2*%
X112879142Y-67397333D02*
X112926761Y-67349714D01*
X112974380Y-67206857D01*
X112974380Y-67111619D01*
X112926761Y-66968761D01*
X112831523Y-66873523D01*
X112736285Y-66825904D01*
X112545809Y-66778285D01*
X112402952Y-66778285D01*
X112212476Y-66825904D01*
X112117238Y-66873523D01*
X112022000Y-66968761D01*
X111974380Y-67111619D01*
X111974380Y-67206857D01*
X112022000Y-67349714D01*
X112069619Y-67397333D01*
X112069619Y-67778285D02*
X112022000Y-67825904D01*
X111974380Y-67921142D01*
X111974380Y-68159238D01*
X112022000Y-68254476D01*
X112069619Y-68302095D01*
X112164857Y-68349714D01*
X112260095Y-68349714D01*
X112402952Y-68302095D01*
X112974380Y-67730666D01*
X112974380Y-68349714D01*
%TO.C,R3*%
X120382380Y-72997333D02*
X119906190Y-72664000D01*
X120382380Y-72425904D02*
X119382380Y-72425904D01*
X119382380Y-72806857D01*
X119430000Y-72902095D01*
X119477619Y-72949714D01*
X119572857Y-72997333D01*
X119715714Y-72997333D01*
X119810952Y-72949714D01*
X119858571Y-72902095D01*
X119906190Y-72806857D01*
X119906190Y-72425904D01*
X119382380Y-73330666D02*
X119382380Y-73949714D01*
X119763333Y-73616380D01*
X119763333Y-73759238D01*
X119810952Y-73854476D01*
X119858571Y-73902095D01*
X119953809Y-73949714D01*
X120191904Y-73949714D01*
X120287142Y-73902095D01*
X120334761Y-73854476D01*
X120382380Y-73759238D01*
X120382380Y-73473523D01*
X120334761Y-73378285D01*
X120287142Y-73330666D01*
%TO.C,R4*%
X123938380Y-72985333D02*
X123462190Y-72652000D01*
X123938380Y-72413904D02*
X122938380Y-72413904D01*
X122938380Y-72794857D01*
X122986000Y-72890095D01*
X123033619Y-72937714D01*
X123128857Y-72985333D01*
X123271714Y-72985333D01*
X123366952Y-72937714D01*
X123414571Y-72890095D01*
X123462190Y-72794857D01*
X123462190Y-72413904D01*
X123271714Y-73842476D02*
X123938380Y-73842476D01*
X122890761Y-73604380D02*
X123605047Y-73366285D01*
X123605047Y-73985333D01*
%TO.C,R2*%
X116826380Y-72985333D02*
X116350190Y-72652000D01*
X116826380Y-72413904D02*
X115826380Y-72413904D01*
X115826380Y-72794857D01*
X115874000Y-72890095D01*
X115921619Y-72937714D01*
X116016857Y-72985333D01*
X116159714Y-72985333D01*
X116254952Y-72937714D01*
X116302571Y-72890095D01*
X116350190Y-72794857D01*
X116350190Y-72413904D01*
X115921619Y-73366285D02*
X115874000Y-73413904D01*
X115826380Y-73509142D01*
X115826380Y-73747238D01*
X115874000Y-73842476D01*
X115921619Y-73890095D01*
X116016857Y-73937714D01*
X116112095Y-73937714D01*
X116254952Y-73890095D01*
X116826380Y-73318666D01*
X116826380Y-73937714D01*
%TO.C,.*%
G36*
X131856873Y-57063791D02*
G01*
X131870620Y-57209729D01*
X131882981Y-57340418D01*
X131892570Y-57441182D01*
X131895220Y-57468905D01*
X131907096Y-57593575D01*
X131919179Y-57721020D01*
X131929224Y-57827557D01*
X131945515Y-58001146D01*
X131788248Y-58001146D01*
X131711326Y-57999576D01*
X131651657Y-57988597D01*
X131619535Y-57959356D01*
X131606401Y-57903020D01*
X131603692Y-57810758D01*
X131603596Y-57803324D01*
X131599398Y-57732286D01*
X131590265Y-57638007D01*
X131577931Y-57538790D01*
X131552448Y-57356417D01*
X131410154Y-57347356D01*
X131299718Y-57331896D01*
X131213599Y-57295123D01*
X131145690Y-57229527D01*
X131084377Y-57127261D01*
X131075616Y-57109209D01*
X131024487Y-56968945D01*
X130994716Y-56818513D01*
X130992632Y-56781401D01*
X131313922Y-56781401D01*
X131325052Y-56856839D01*
X131348350Y-56915603D01*
X131382573Y-56951800D01*
X131449144Y-56970811D01*
X131488948Y-56967385D01*
X131509523Y-56946885D01*
X131513763Y-56895542D01*
X131513434Y-56877045D01*
X131508496Y-56798784D01*
X131499520Y-56716354D01*
X131495492Y-56688795D01*
X131483228Y-56638549D01*
X131462714Y-56617007D01*
X131425604Y-56612434D01*
X131380737Y-56618813D01*
X131339054Y-56639312D01*
X131330543Y-56651163D01*
X131315555Y-56706954D01*
X131313922Y-56781401D01*
X130992632Y-56781401D01*
X130986257Y-56667847D01*
X130999061Y-56526883D01*
X131033081Y-56405555D01*
X131088270Y-56313798D01*
X131151599Y-56242857D01*
X131463813Y-56235621D01*
X131776028Y-56228386D01*
X131790612Y-56370013D01*
X131793435Y-56397867D01*
X131802197Y-56486840D01*
X131813427Y-56603142D01*
X131825978Y-56734844D01*
X131838702Y-56870018D01*
X131841090Y-56895542D01*
X131843124Y-56917283D01*
X131856873Y-57063791D01*
G37*
G36*
X132329500Y-56338051D02*
G01*
X132336872Y-56391926D01*
X132348790Y-56484604D01*
X132362630Y-56596283D01*
X132376667Y-56713227D01*
X132387504Y-56804760D01*
X132403382Y-56937793D01*
X132418413Y-57062661D01*
X132430418Y-57161199D01*
X132441670Y-57253905D01*
X132456256Y-57375998D01*
X132472207Y-57510922D01*
X132487631Y-57642769D01*
X132490894Y-57670593D01*
X132504426Y-57781112D01*
X132516741Y-57874455D01*
X132526593Y-57941505D01*
X132532737Y-57973148D01*
X132533526Y-57978749D01*
X132516986Y-57991879D01*
X132467188Y-57999001D01*
X132378451Y-58001146D01*
X132214209Y-58001146D01*
X132198732Y-57894753D01*
X132191375Y-57840890D01*
X132179502Y-57748210D01*
X132165730Y-57636527D01*
X132151779Y-57519577D01*
X132142739Y-57443047D01*
X132123934Y-57286490D01*
X132104159Y-57124500D01*
X132086445Y-56982011D01*
X132075500Y-56894129D01*
X132058448Y-56754169D01*
X132042332Y-56618756D01*
X132029544Y-56507831D01*
X132024325Y-56463276D01*
X132012435Y-56373656D01*
X132001347Y-56304174D01*
X131992921Y-56267046D01*
X131992656Y-56266346D01*
X131992079Y-56248403D01*
X132012214Y-56237870D01*
X132061077Y-56232903D01*
X132146682Y-56231658D01*
X132314024Y-56231658D01*
X132329500Y-56338051D01*
G37*
G36*
X132844545Y-56304453D02*
G01*
X132848493Y-56331895D01*
X132858156Y-56405364D01*
X132870160Y-56501554D01*
X132882780Y-56606834D01*
X132909720Y-56836420D01*
X133199825Y-56836420D01*
X133186270Y-56718827D01*
X133185555Y-56712553D01*
X133176739Y-56627940D01*
X133166734Y-56522111D01*
X133157567Y-56416446D01*
X133142420Y-56231658D01*
X133456059Y-56231658D01*
X133470155Y-56360450D01*
X133471201Y-56369953D01*
X133481494Y-56460668D01*
X133494405Y-56571149D01*
X133507395Y-56679630D01*
X133518651Y-56774838D01*
X133533072Y-56900899D01*
X133548504Y-57038932D01*
X133563079Y-57172399D01*
X133576940Y-57300581D01*
X133592331Y-57441796D01*
X133606719Y-57572776D01*
X133618226Y-57676367D01*
X133622304Y-57713679D01*
X133631853Y-57809536D01*
X133638581Y-57889609D01*
X133641231Y-57939550D01*
X133641107Y-57957856D01*
X133635617Y-57982761D01*
X133614922Y-57995627D01*
X133569158Y-58000429D01*
X133488461Y-58001146D01*
X133335293Y-58001146D01*
X133309524Y-57782760D01*
X133304459Y-57739667D01*
X133291134Y-57624907D01*
X133278843Y-57517328D01*
X133269723Y-57435582D01*
X133255692Y-57306790D01*
X133112682Y-57306790D01*
X133068480Y-57306447D01*
X133023667Y-57308034D01*
X132993537Y-57317556D01*
X132976386Y-57341118D01*
X132970507Y-57384828D01*
X132974194Y-57454792D01*
X132985744Y-57557119D01*
X133003448Y-57697914D01*
X133003516Y-57698455D01*
X133016468Y-57803702D01*
X133027073Y-57892516D01*
X133034237Y-57955559D01*
X133036867Y-57983496D01*
X133036321Y-57984933D01*
X133009729Y-57993155D01*
X132951121Y-57998952D01*
X132871527Y-58001146D01*
X132706187Y-58001146D01*
X132690928Y-57805159D01*
X132689536Y-57787717D01*
X132679279Y-57675084D01*
X132667344Y-57563495D01*
X132656036Y-57474780D01*
X132652879Y-57452168D01*
X132642125Y-57367369D01*
X132628814Y-57254609D01*
X132614339Y-57125889D01*
X132600095Y-56993210D01*
X132594762Y-56942870D01*
X132580096Y-56809988D01*
X132565583Y-56685469D01*
X132552654Y-56581385D01*
X132542743Y-56509805D01*
X132534173Y-56448139D01*
X132525186Y-56364187D01*
X132521700Y-56302618D01*
X132521700Y-56231658D01*
X132833250Y-56231658D01*
X132844545Y-56304453D01*
G37*
G36*
X134204968Y-56217352D02*
G01*
X134323637Y-56261647D01*
X134424514Y-56345799D01*
X134509740Y-56471237D01*
X134547624Y-56546651D01*
X134592430Y-56656640D01*
X134624050Y-56770870D01*
X134644445Y-56899400D01*
X134655574Y-57052288D01*
X134659395Y-57239594D01*
X134659347Y-57371547D01*
X134657265Y-57474553D01*
X134652086Y-57551844D01*
X134642777Y-57613157D01*
X134628303Y-57668225D01*
X134607630Y-57726783D01*
X134591546Y-57765927D01*
X134523028Y-57885802D01*
X134440021Y-57973245D01*
X134347890Y-58022153D01*
X134343504Y-58023406D01*
X134213437Y-58039275D01*
X134093018Y-58013210D01*
X133984968Y-57947477D01*
X133892010Y-57844341D01*
X133816867Y-57706066D01*
X133762261Y-57534919D01*
X133734368Y-57414927D01*
X133857501Y-57360472D01*
X133914383Y-57337458D01*
X133970613Y-57319959D01*
X133999797Y-57317860D01*
X134016475Y-57342573D01*
X134032630Y-57391946D01*
X134033419Y-57395360D01*
X134056147Y-57459393D01*
X134090020Y-57526081D01*
X134127631Y-57570738D01*
X134189061Y-57599664D01*
X134251823Y-57589871D01*
X134305321Y-57540642D01*
X134324823Y-57496441D01*
X134343125Y-57404350D01*
X134351049Y-57287583D01*
X134349233Y-57157062D01*
X134338312Y-57023711D01*
X134318923Y-56898452D01*
X134291702Y-56792209D01*
X134257284Y-56715903D01*
X134204400Y-56660582D01*
X134142817Y-56640448D01*
X134084065Y-56658060D01*
X134036359Y-56710781D01*
X134007912Y-56795973D01*
X134001142Y-56830532D01*
X133984204Y-56867615D01*
X133957855Y-56871920D01*
X133931959Y-56866370D01*
X133869476Y-56856389D01*
X133792301Y-56846304D01*
X133662991Y-56831128D01*
X133677402Y-56749779D01*
X133697865Y-56660799D01*
X133734092Y-56547627D01*
X133776911Y-56444038D01*
X133819848Y-56367412D01*
X133827654Y-56356665D01*
X133909002Y-56270948D01*
X134001753Y-56223725D01*
X134116672Y-56209259D01*
X134204968Y-56217352D01*
G37*
G36*
X129699478Y-58583510D02*
G01*
X129699478Y-58337125D01*
X129923464Y-58337125D01*
X132622494Y-58337125D01*
X132882882Y-58337038D01*
X133217296Y-58336665D01*
X133536963Y-58336014D01*
X133839151Y-58335106D01*
X134121127Y-58333958D01*
X134380160Y-58332590D01*
X134613519Y-58331020D01*
X134818471Y-58329268D01*
X134992285Y-58327353D01*
X135132229Y-58325293D01*
X135235572Y-58323107D01*
X135299580Y-58320815D01*
X135321523Y-58318434D01*
X135318091Y-58304625D01*
X135301773Y-58253916D01*
X135274332Y-58173681D01*
X135238331Y-58071375D01*
X135196335Y-57954457D01*
X135168246Y-57876896D01*
X135110548Y-57717205D01*
X135047082Y-57541189D01*
X134983778Y-57365301D01*
X134926569Y-57205996D01*
X134884921Y-57089990D01*
X134833933Y-56948291D01*
X134786236Y-56816063D01*
X134745764Y-56704210D01*
X134716451Y-56623633D01*
X134687365Y-56543351D01*
X134645045Y-56425124D01*
X134600237Y-56298854D01*
X134960127Y-56298854D01*
X134974805Y-56349250D01*
X134980174Y-56366667D01*
X134999643Y-56426348D01*
X135027557Y-56509664D01*
X135059796Y-56604260D01*
X135130110Y-56808872D01*
X135391164Y-56824453D01*
X135481265Y-56830059D01*
X135565215Y-56837062D01*
X135621441Y-56846134D01*
X135659529Y-56859800D01*
X135689067Y-56880587D01*
X135719641Y-56911023D01*
X135801105Y-57016968D01*
X135865259Y-57156927D01*
X135889933Y-57302141D01*
X135890328Y-57334796D01*
X135885449Y-57396966D01*
X135867272Y-57438487D01*
X135829842Y-57476645D01*
X135824102Y-57481515D01*
X135786703Y-57507399D01*
X135743395Y-57522312D01*
X135681234Y-57529141D01*
X135587278Y-57530776D01*
X135407558Y-57530776D01*
X135423540Y-57603571D01*
X135432296Y-57638920D01*
X135454516Y-57716698D01*
X135480765Y-57799559D01*
X135497496Y-57852762D01*
X135515389Y-57919846D01*
X135522560Y-57961949D01*
X135522717Y-57965501D01*
X135529135Y-57981396D01*
X135550394Y-57991759D01*
X135593982Y-57997740D01*
X135667385Y-58000486D01*
X135778088Y-58001146D01*
X136033066Y-58001146D01*
X136111254Y-57914601D01*
X136161723Y-57848887D01*
X136228930Y-57707870D01*
X136264232Y-57544128D01*
X136268127Y-57362776D01*
X136241114Y-57168932D01*
X136183691Y-56967714D01*
X136182575Y-56965114D01*
X136354584Y-56965114D01*
X136383186Y-57148318D01*
X136397250Y-57197518D01*
X136461677Y-57362776D01*
X136463179Y-57366628D01*
X136554285Y-57541554D01*
X136661921Y-57706959D01*
X136777441Y-57847511D01*
X136923040Y-58001146D01*
X137197414Y-58001146D01*
X137204828Y-58001139D01*
X137308773Y-57999510D01*
X137393626Y-57995425D01*
X137450820Y-57989474D01*
X137471788Y-57982247D01*
X137471595Y-57979794D01*
X137467447Y-57961988D01*
X137456954Y-57927263D01*
X137438883Y-57872004D01*
X137412003Y-57792597D01*
X137375080Y-57685427D01*
X137326881Y-57546881D01*
X137266174Y-57373343D01*
X137191725Y-57161199D01*
X137171642Y-57103959D01*
X137120036Y-56956311D01*
X137068089Y-56807023D01*
X137020887Y-56670722D01*
X136983510Y-56562037D01*
X136901195Y-56321252D01*
X136754113Y-56321252D01*
X136750136Y-56321254D01*
X136669759Y-56323242D01*
X136617963Y-56332545D01*
X136579183Y-56354400D01*
X136537856Y-56394048D01*
X136474902Y-56473377D01*
X136402107Y-56619527D01*
X136361446Y-56786145D01*
X136354584Y-56965114D01*
X136182575Y-56965114D01*
X136096357Y-56764237D01*
X135979611Y-56563619D01*
X135960322Y-56535452D01*
X135869921Y-56425446D01*
X135782537Y-56354745D01*
X135758705Y-56341173D01*
X135722698Y-56324063D01*
X135683069Y-56312313D01*
X135646871Y-56307115D01*
X137068613Y-56307115D01*
X137068967Y-56308620D01*
X137079043Y-56339144D01*
X137101147Y-56403208D01*
X137132773Y-56493719D01*
X137171415Y-56603580D01*
X137214566Y-56725695D01*
X137259721Y-56852970D01*
X137304373Y-56978309D01*
X137346017Y-57094616D01*
X137382145Y-57194797D01*
X137417948Y-57294159D01*
X137455073Y-57398439D01*
X137485471Y-57485124D01*
X137504817Y-57541975D01*
X137521794Y-57591981D01*
X137551338Y-57676366D01*
X137588022Y-57779504D01*
X137627521Y-57889153D01*
X137661272Y-57982247D01*
X137687034Y-58053306D01*
X137736229Y-58189145D01*
X137773621Y-58292631D01*
X137782900Y-58318434D01*
X137800996Y-58368757D01*
X137820142Y-58422515D01*
X137832848Y-58458899D01*
X137840901Y-58482901D01*
X137846090Y-58499515D01*
X137860536Y-58521614D01*
X137902585Y-58538712D01*
X137920779Y-58537638D01*
X137932674Y-58530917D01*
X137936725Y-58513327D01*
X137931738Y-58479645D01*
X137916519Y-58424649D01*
X137889870Y-58343114D01*
X137850598Y-58229820D01*
X137797508Y-58079541D01*
X137768220Y-57996725D01*
X137725274Y-57874805D01*
X137687525Y-57767081D01*
X137658241Y-57682889D01*
X137640692Y-57631570D01*
X137639740Y-57628726D01*
X137621860Y-57576468D01*
X137592196Y-57490911D01*
X137553606Y-57380251D01*
X137508948Y-57252683D01*
X137461077Y-57116402D01*
X137412097Y-56976960D01*
X137361964Y-56833782D01*
X137315913Y-56701831D01*
X137277552Y-56591444D01*
X137250489Y-56512963D01*
X137245729Y-56499119D01*
X137214190Y-56414018D01*
X137188072Y-56361737D01*
X137161632Y-56333096D01*
X137155889Y-56330590D01*
X137322310Y-56330590D01*
X137323102Y-56332717D01*
X137335624Y-56367444D01*
X137360267Y-56436358D01*
X137394613Y-56532681D01*
X137436244Y-56649629D01*
X137482742Y-56780423D01*
X137527687Y-56906865D01*
X137584978Y-57067879D01*
X137641236Y-57225839D01*
X137691810Y-57367691D01*
X137732051Y-57480379D01*
X137799594Y-57669316D01*
X137872033Y-57872103D01*
X137931622Y-58039133D01*
X137979634Y-58173979D01*
X138017338Y-58280211D01*
X138046006Y-58361401D01*
X138066911Y-58421120D01*
X138071597Y-58434395D01*
X138098833Y-58498737D01*
X138111050Y-58513327D01*
X138125275Y-58530316D01*
X138158376Y-58538712D01*
X138180281Y-58538103D01*
X138197043Y-58529605D01*
X138194451Y-58501876D01*
X138174427Y-58443518D01*
X138158665Y-58399735D01*
X138126223Y-58308707D01*
X138085727Y-58194389D01*
X138040054Y-58064973D01*
X137992081Y-57928646D01*
X137944685Y-57793598D01*
X137900742Y-57668018D01*
X137863129Y-57560096D01*
X137834722Y-57478021D01*
X137818398Y-57429982D01*
X137817446Y-57427105D01*
X137799637Y-57374823D01*
X137769999Y-57289263D01*
X137731388Y-57178615D01*
X137686662Y-57051069D01*
X137638678Y-56914815D01*
X137633598Y-56900410D01*
X137586276Y-56765437D01*
X137542993Y-56640615D01*
X137506495Y-56533956D01*
X137479524Y-56453475D01*
X137464827Y-56407186D01*
X137452837Y-56371890D01*
X137424327Y-56331947D01*
X137382711Y-56317650D01*
X137571897Y-56317650D01*
X137574045Y-56341789D01*
X137581876Y-56361752D01*
X137605192Y-56424001D01*
X137637391Y-56511748D01*
X137674626Y-56614328D01*
X137713047Y-56721071D01*
X137748807Y-56821312D01*
X137778055Y-56904381D01*
X137796944Y-56959612D01*
X137813988Y-57009610D01*
X137843595Y-57093997D01*
X137880321Y-57197137D01*
X137919835Y-57306790D01*
X137946776Y-57381228D01*
X138006609Y-57547376D01*
X138068470Y-57720127D01*
X138129478Y-57891361D01*
X138186752Y-58052957D01*
X138237409Y-58196796D01*
X138278568Y-58314757D01*
X138307347Y-58398721D01*
X138328128Y-58457271D01*
X138352326Y-58508727D01*
X138373587Y-58529605D01*
X138376809Y-58532769D01*
X138408293Y-58538712D01*
X138418055Y-58538537D01*
X138449114Y-58529165D01*
X138446063Y-58499515D01*
X138434576Y-58468994D01*
X138411042Y-58403683D01*
X138379728Y-58315275D01*
X138344257Y-58213933D01*
X138338757Y-58198141D01*
X138296368Y-58076924D01*
X138245755Y-57932820D01*
X138192794Y-57782533D01*
X138143360Y-57642769D01*
X138045419Y-57365326D01*
X137899439Y-56946755D01*
X137768249Y-56563952D01*
X137754117Y-56522500D01*
X137721763Y-56431639D01*
X137696955Y-56373148D01*
X137675247Y-56339408D01*
X137652192Y-56322800D01*
X137623342Y-56315706D01*
X137600351Y-56312985D01*
X137571897Y-56317650D01*
X137382711Y-56317650D01*
X137377122Y-56315730D01*
X137333484Y-56315045D01*
X137322310Y-56330590D01*
X137155889Y-56330590D01*
X137129129Y-56318912D01*
X137087293Y-56308948D01*
X137068613Y-56307115D01*
X135646871Y-56307115D01*
X135631585Y-56304920D01*
X135560009Y-56300881D01*
X135460108Y-56299193D01*
X135323646Y-56298854D01*
X134960127Y-56298854D01*
X134600237Y-56298854D01*
X134598982Y-56295316D01*
X134555044Y-56170405D01*
X134459178Y-55896366D01*
X132191321Y-55896022D01*
X129923464Y-55895679D01*
X129923464Y-58337125D01*
X129699478Y-58337125D01*
X129699478Y-55716490D01*
X138524522Y-55716490D01*
X138524522Y-58583510D01*
X129699478Y-58583510D01*
G37*
G36*
X130440954Y-56194153D02*
G01*
X130569534Y-56228045D01*
X130674867Y-56299034D01*
X130755417Y-56405183D01*
X130809648Y-56544553D01*
X130836022Y-56715208D01*
X130836455Y-56868550D01*
X130811988Y-56997773D01*
X130758333Y-57101845D01*
X130671745Y-57187901D01*
X130548478Y-57263076D01*
X130463203Y-57312121D01*
X130403579Y-57366408D01*
X130377414Y-57427153D01*
X130379119Y-57502249D01*
X130402370Y-57583497D01*
X130443401Y-57628916D01*
X130507248Y-57642769D01*
X130553394Y-57637150D01*
X130585346Y-57613153D01*
X130604765Y-57561962D01*
X130617421Y-57474780D01*
X130629019Y-57362787D01*
X130749939Y-57369379D01*
X130820954Y-57374659D01*
X130891041Y-57388493D01*
X130929236Y-57415641D01*
X130943145Y-57462779D01*
X130940373Y-57536586D01*
X130937562Y-57563835D01*
X130911526Y-57717682D01*
X130870267Y-57834601D01*
X130811281Y-57919914D01*
X130732060Y-57978943D01*
X130725282Y-57982372D01*
X130637101Y-58011037D01*
X130536356Y-58022555D01*
X130444005Y-58012363D01*
X130325847Y-57962167D01*
X130223123Y-57871892D01*
X130138718Y-57743563D01*
X130120551Y-57706511D01*
X130094022Y-57641648D01*
X130077482Y-57575941D01*
X130067803Y-57494740D01*
X130061858Y-57383396D01*
X130059957Y-57328146D01*
X130059283Y-57234989D01*
X130064484Y-57168901D01*
X130076951Y-57117853D01*
X130098073Y-57069816D01*
X130124640Y-57022593D01*
X130185073Y-56945950D01*
X130265743Y-56883309D01*
X130378653Y-56824162D01*
X130456751Y-56783019D01*
X130518496Y-56730624D01*
X130541799Y-56673340D01*
X130530113Y-56606199D01*
X130502492Y-56561915D01*
X130453127Y-56545238D01*
X130443825Y-56545465D01*
X130393118Y-56560696D01*
X130359617Y-56605240D01*
X130337070Y-56686715D01*
X130321095Y-56772196D01*
X130172676Y-56756754D01*
X130097524Y-56747720D01*
X130035653Y-56737882D01*
X130004697Y-56729841D01*
X129999731Y-56725137D01*
X129991302Y-56685196D01*
X129997100Y-56619018D01*
X130014696Y-56538509D01*
X130041665Y-56455576D01*
X130075578Y-56382124D01*
X130123475Y-56309147D01*
X130202565Y-56235143D01*
X130298997Y-56197852D01*
X130421488Y-56192498D01*
X130440954Y-56194153D01*
G37*
G36*
X100309770Y-59890053D02*
G01*
X100297044Y-59954924D01*
X100232050Y-59993017D01*
X100084991Y-60002442D01*
X99955249Y-59996079D01*
X99879062Y-59963582D01*
X99860212Y-59890053D01*
X99841742Y-59817399D01*
X99747823Y-59777663D01*
X99860212Y-59777663D01*
X100309770Y-59777663D01*
X100309770Y-59103327D01*
X99860212Y-59103327D01*
X99860212Y-59777663D01*
X99747823Y-59777663D01*
X99698044Y-59771465D01*
X99657549Y-59730566D01*
X99639535Y-59628811D01*
X99635434Y-59440495D01*
X99637500Y-59291157D01*
X99651133Y-59169672D01*
X99685051Y-59115630D01*
X99747823Y-59103327D01*
X99820477Y-59084856D01*
X99860212Y-58990938D01*
X99872939Y-58926067D01*
X99937933Y-58887973D01*
X100084991Y-58878548D01*
X100214733Y-58884911D01*
X100290920Y-58917409D01*
X100309770Y-58990938D01*
X100328241Y-59063591D01*
X100422159Y-59103327D01*
X100471939Y-59109526D01*
X100512434Y-59150424D01*
X100530448Y-59252180D01*
X100534549Y-59440495D01*
X100532483Y-59589833D01*
X100518850Y-59711318D01*
X100484931Y-59765361D01*
X100422159Y-59777663D01*
X100349506Y-59796134D01*
X100309770Y-59890053D01*
G37*
G36*
X102451187Y-58653816D02*
G01*
X102500330Y-58663497D01*
X102531470Y-58704186D01*
X102548675Y-58796224D01*
X102556015Y-58959953D01*
X102557558Y-59215717D01*
X102557548Y-59245812D01*
X102555612Y-59491525D01*
X102547474Y-59647224D01*
X102529067Y-59733252D01*
X102496321Y-59769951D01*
X102445168Y-59777663D01*
X102372514Y-59796134D01*
X102332779Y-59890053D01*
X102320053Y-59954924D01*
X102255058Y-59993017D01*
X102108000Y-60002442D01*
X101978258Y-59996079D01*
X101902071Y-59963582D01*
X101883221Y-59890053D01*
X101895948Y-59825182D01*
X101960942Y-59787088D01*
X102108000Y-59777663D01*
X102332779Y-59777663D01*
X102332779Y-59328106D01*
X102108000Y-59328106D01*
X101978258Y-59321743D01*
X101902071Y-59289246D01*
X101883221Y-59215717D01*
X101895948Y-59150846D01*
X101960942Y-59112752D01*
X102108000Y-59103327D01*
X102332779Y-59103327D01*
X102332779Y-58878548D01*
X102339142Y-58748807D01*
X102371639Y-58672619D01*
X102445168Y-58653770D01*
X102451187Y-58653816D01*
G37*
G36*
X103602150Y-57082715D02*
G01*
X103638976Y-57104083D01*
X103662215Y-57163337D01*
X103674971Y-57279101D01*
X103680349Y-57469998D01*
X103681451Y-57754655D01*
X103681052Y-57953180D01*
X103677491Y-58174137D01*
X103667615Y-58313572D01*
X103648321Y-58390110D01*
X103616505Y-58422375D01*
X103569062Y-58428991D01*
X103519283Y-58422792D01*
X103478788Y-58381894D01*
X103460773Y-58280138D01*
X103456673Y-58091823D01*
X103456673Y-57754655D01*
X103007115Y-57754655D01*
X103007115Y-58091823D01*
X103005049Y-58241161D01*
X102991416Y-58362646D01*
X102957497Y-58416688D01*
X102894726Y-58428991D01*
X102844946Y-58422792D01*
X102804451Y-58381894D01*
X102786437Y-58280138D01*
X102782336Y-58091823D01*
X102784403Y-57942485D01*
X102798035Y-57821000D01*
X102831954Y-57766957D01*
X102894726Y-57754655D01*
X102967379Y-57736184D01*
X103007115Y-57642265D01*
X103019841Y-57577394D01*
X103084835Y-57539301D01*
X103231894Y-57529876D01*
X103456673Y-57529876D01*
X103456673Y-57305097D01*
X103463036Y-57175355D01*
X103495533Y-57099168D01*
X103569062Y-57080318D01*
X103602150Y-57082715D01*
G37*
G36*
X101552072Y-58878594D02*
G01*
X101601215Y-58888276D01*
X101632355Y-58928965D01*
X101649560Y-59021003D01*
X101656900Y-59184732D01*
X101658443Y-59440495D01*
X101658433Y-59470591D01*
X101656497Y-59716303D01*
X101648359Y-59872003D01*
X101629952Y-59958031D01*
X101597206Y-59994730D01*
X101546053Y-60002442D01*
X101496274Y-59996244D01*
X101455779Y-59955345D01*
X101437765Y-59853589D01*
X101433664Y-59665274D01*
X101431598Y-59515936D01*
X101417965Y-59394451D01*
X101384046Y-59340408D01*
X101321274Y-59328106D01*
X101248621Y-59309635D01*
X101208885Y-59215717D01*
X101196159Y-59150846D01*
X101131165Y-59112752D01*
X100984106Y-59103327D01*
X100854365Y-59096964D01*
X100778177Y-59064467D01*
X100759327Y-58990938D01*
X100772054Y-58926067D01*
X100837048Y-58887973D01*
X100984106Y-58878548D01*
X101113848Y-58884911D01*
X101190035Y-58917409D01*
X101208885Y-58990938D01*
X101227356Y-59063591D01*
X101321274Y-59103327D01*
X101393928Y-59084856D01*
X101433664Y-58990938D01*
X101452135Y-58918284D01*
X101546053Y-58878548D01*
X101552072Y-58878594D01*
G37*
G36*
X102557558Y-57867044D02*
G01*
X102555491Y-58016382D01*
X102541859Y-58137867D01*
X102507940Y-58191910D01*
X102445168Y-58204212D01*
X102372514Y-58222683D01*
X102332779Y-58316601D01*
X102326580Y-58366381D01*
X102285682Y-58406876D01*
X102183926Y-58424890D01*
X101995611Y-58428991D01*
X101846273Y-58426925D01*
X101724788Y-58413292D01*
X101670745Y-58379373D01*
X101658443Y-58316601D01*
X101664641Y-58266822D01*
X101705540Y-58226327D01*
X101807295Y-58208313D01*
X101995611Y-58204212D01*
X102144949Y-58202146D01*
X102266434Y-58188513D01*
X102320476Y-58154594D01*
X102332779Y-58091823D01*
X102326580Y-58042043D01*
X102285682Y-58001548D01*
X102183926Y-57983534D01*
X101995611Y-57979433D01*
X101658443Y-57979433D01*
X101658443Y-57754655D01*
X101663955Y-57642265D01*
X101883221Y-57642265D01*
X101895948Y-57707136D01*
X101960942Y-57745230D01*
X102108000Y-57754655D01*
X102237742Y-57748291D01*
X102313929Y-57715794D01*
X102332779Y-57642265D01*
X102320053Y-57577394D01*
X102255058Y-57539301D01*
X102108000Y-57529876D01*
X101978258Y-57536239D01*
X101902071Y-57568736D01*
X101883221Y-57642265D01*
X101663955Y-57642265D01*
X101664806Y-57624913D01*
X101697303Y-57548726D01*
X101770832Y-57529876D01*
X101843486Y-57511405D01*
X101883221Y-57417486D01*
X101895948Y-57352616D01*
X101960942Y-57314522D01*
X102108000Y-57305097D01*
X102237742Y-57311460D01*
X102313929Y-57343957D01*
X102332779Y-57417486D01*
X102351250Y-57490140D01*
X102445168Y-57529876D01*
X102494948Y-57536074D01*
X102535443Y-57576973D01*
X102547002Y-57642265D01*
X102553457Y-57678729D01*
X102557558Y-57867044D01*
G37*
G36*
X104947367Y-60228875D02*
G01*
X104992051Y-60251445D01*
X105016970Y-60318548D01*
X105027778Y-60452790D01*
X105030124Y-60676778D01*
X105029710Y-60795308D01*
X105024068Y-60974044D01*
X105007292Y-61073722D01*
X104973732Y-61116950D01*
X104917735Y-61126336D01*
X104852864Y-61139062D01*
X104814770Y-61204056D01*
X104805345Y-61351115D01*
X104798982Y-61480856D01*
X104766485Y-61557044D01*
X104692956Y-61575894D01*
X104628085Y-61563167D01*
X104589991Y-61498173D01*
X104580566Y-61351115D01*
X104574203Y-61221373D01*
X104541706Y-61145186D01*
X104468177Y-61126336D01*
X104403306Y-61139062D01*
X104365213Y-61204056D01*
X104355788Y-61351115D01*
X104349425Y-61480856D01*
X104316928Y-61557044D01*
X104243398Y-61575894D01*
X104178527Y-61563167D01*
X104140434Y-61498173D01*
X104131009Y-61351115D01*
X104124646Y-61221373D01*
X104092149Y-61145186D01*
X104018620Y-61126336D01*
X103988987Y-61124682D01*
X103944303Y-61102112D01*
X103919384Y-61035009D01*
X103908577Y-60900767D01*
X103906230Y-60676778D01*
X103906644Y-60558249D01*
X103912286Y-60379513D01*
X103929062Y-60279835D01*
X103962622Y-60236607D01*
X104018620Y-60227221D01*
X104048252Y-60228875D01*
X104092936Y-60251445D01*
X104117855Y-60318548D01*
X104128663Y-60452790D01*
X104131009Y-60676778D01*
X104131422Y-60795308D01*
X104137065Y-60974044D01*
X104153841Y-61073722D01*
X104187401Y-61116950D01*
X104243398Y-61126336D01*
X104316052Y-61107865D01*
X104355788Y-61013947D01*
X104374258Y-60941293D01*
X104468177Y-60901557D01*
X104540831Y-60920028D01*
X104580566Y-61013947D01*
X104599037Y-61086600D01*
X104692956Y-61126336D01*
X104722588Y-61124682D01*
X104767272Y-61102112D01*
X104792192Y-61035009D01*
X104802999Y-60900767D01*
X104805345Y-60676778D01*
X104805759Y-60558249D01*
X104811401Y-60379513D01*
X104828177Y-60279835D01*
X104861737Y-60236607D01*
X104917735Y-60227221D01*
X104947367Y-60228875D01*
G37*
G36*
X107015084Y-63505897D02*
G01*
X107003825Y-63593576D01*
X106990642Y-63640914D01*
X106975395Y-63655097D01*
X106924714Y-63676161D01*
X106868266Y-63767486D01*
X106834483Y-63832700D01*
X106749323Y-63879876D01*
X106705155Y-63890914D01*
X106659770Y-63964168D01*
X106656753Y-63981007D01*
X106623966Y-64009664D01*
X106542249Y-64029098D01*
X106395745Y-64040948D01*
X106168596Y-64046855D01*
X105844947Y-64048460D01*
X105743702Y-64048501D01*
X105454929Y-64049936D01*
X105256729Y-64055165D01*
X105132125Y-64066529D01*
X105064140Y-64086370D01*
X105035799Y-64117030D01*
X105030124Y-64160849D01*
X105017398Y-64225720D01*
X104952404Y-64263814D01*
X104805345Y-64273239D01*
X104785770Y-64273289D01*
X104650705Y-64282982D01*
X104592835Y-64323212D01*
X104580566Y-64413725D01*
X104575503Y-64483887D01*
X104540675Y-64531291D01*
X104448507Y-64550565D01*
X104271496Y-64554212D01*
X104266769Y-64554212D01*
X104092124Y-64557217D01*
X104001627Y-64576256D01*
X103967615Y-64626419D01*
X103962425Y-64722796D01*
X103962428Y-64730487D01*
X103968442Y-64822947D01*
X104004546Y-64870774D01*
X104098174Y-64888681D01*
X104276757Y-64891380D01*
X104361734Y-64892168D01*
X104510042Y-64904235D01*
X104586657Y-64938285D01*
X104620479Y-65003770D01*
X104628183Y-65027561D01*
X104695744Y-65096609D01*
X104839997Y-65116159D01*
X104946322Y-65121992D01*
X105014735Y-65160472D01*
X105030124Y-65256646D01*
X105030204Y-65268880D01*
X105045714Y-65353296D01*
X105110082Y-65389464D01*
X105254903Y-65397132D01*
X105384644Y-65403496D01*
X105460832Y-65435993D01*
X105479681Y-65509522D01*
X105479610Y-65516087D01*
X105475821Y-65538442D01*
X105460149Y-65557404D01*
X105424216Y-65573253D01*
X105359647Y-65586267D01*
X105258068Y-65596726D01*
X105111103Y-65604908D01*
X104910376Y-65611094D01*
X104647513Y-65615563D01*
X104314136Y-65618593D01*
X103901873Y-65620463D01*
X103402345Y-65621454D01*
X102807180Y-65621843D01*
X102108000Y-65621911D01*
X101911030Y-65621909D01*
X101240388Y-65621783D01*
X100671529Y-65621260D01*
X100196076Y-65620062D01*
X99805654Y-65617910D01*
X99491888Y-65614524D01*
X99246402Y-65609625D01*
X99060822Y-65602934D01*
X98926771Y-65594172D01*
X98835873Y-65583060D01*
X98779755Y-65569318D01*
X98750040Y-65552667D01*
X98738353Y-65532828D01*
X98736319Y-65509522D01*
X98749045Y-65444651D01*
X98814039Y-65406557D01*
X98961097Y-65397132D01*
X98980673Y-65397082D01*
X99115738Y-65387389D01*
X99173607Y-65347159D01*
X99185876Y-65256646D01*
X99193770Y-65178081D01*
X99245848Y-65127530D01*
X99376004Y-65116159D01*
X99416480Y-65115283D01*
X99540940Y-65086019D01*
X99595521Y-65003770D01*
X99605651Y-64973460D01*
X99652971Y-64921560D01*
X99754535Y-64897350D01*
X99939244Y-64891380D01*
X99953583Y-64891379D01*
X100125979Y-64888153D01*
X100215154Y-64868789D01*
X100248542Y-64818575D01*
X100253575Y-64722796D01*
X100253575Y-64720218D01*
X100248067Y-64624957D01*
X100213162Y-64575595D01*
X100121195Y-64557043D01*
X99944504Y-64554212D01*
X99790149Y-64551911D01*
X99685861Y-64536080D01*
X99643457Y-64494185D01*
X99635434Y-64413725D01*
X99635353Y-64401491D01*
X99619844Y-64317075D01*
X99555476Y-64280907D01*
X99410655Y-64273239D01*
X99280913Y-64266876D01*
X99204726Y-64234378D01*
X99185876Y-64160849D01*
X99185783Y-64152496D01*
X99177320Y-64110426D01*
X99142828Y-64081539D01*
X99065037Y-64063366D01*
X98926675Y-64053440D01*
X98710470Y-64049294D01*
X98399151Y-64048460D01*
X98340676Y-64048447D01*
X98046189Y-64047238D01*
X97843976Y-64042310D01*
X97716765Y-64031197D01*
X97647284Y-64011431D01*
X97618261Y-63980545D01*
X97612425Y-63936070D01*
X97593954Y-63863417D01*
X97500035Y-63823681D01*
X97427382Y-63805210D01*
X97387646Y-63711292D01*
X97369175Y-63638638D01*
X97275257Y-63598902D01*
X97267248Y-63598778D01*
X97246629Y-63594705D01*
X97228921Y-63579052D01*
X97213902Y-63544063D01*
X97201352Y-63481985D01*
X97191049Y-63385062D01*
X97190400Y-63374124D01*
X98736319Y-63374124D01*
X99410655Y-63374124D01*
X99410655Y-63261734D01*
X101208885Y-63261734D01*
X101221611Y-63326605D01*
X101286605Y-63364699D01*
X101433664Y-63374124D01*
X101563406Y-63367760D01*
X101639593Y-63335263D01*
X101658443Y-63261734D01*
X101883221Y-63261734D01*
X101895948Y-63326605D01*
X101960942Y-63364699D01*
X102108000Y-63374124D01*
X102237742Y-63367760D01*
X102313929Y-63335263D01*
X102332779Y-63261734D01*
X102557558Y-63261734D01*
X102570284Y-63326605D01*
X102635278Y-63364699D01*
X102782336Y-63374124D01*
X102912078Y-63367760D01*
X102988265Y-63335263D01*
X103007115Y-63261734D01*
X102994389Y-63196863D01*
X102929395Y-63158770D01*
X102782336Y-63149345D01*
X102652595Y-63155708D01*
X102576407Y-63188205D01*
X102557558Y-63261734D01*
X102332779Y-63261734D01*
X102320053Y-63196863D01*
X102255058Y-63158770D01*
X102108000Y-63149345D01*
X101978258Y-63155708D01*
X101902071Y-63188205D01*
X101883221Y-63261734D01*
X101658443Y-63261734D01*
X101645716Y-63196863D01*
X101580722Y-63158770D01*
X101433664Y-63149345D01*
X101303922Y-63155708D01*
X101227735Y-63188205D01*
X101208885Y-63261734D01*
X99410655Y-63261734D01*
X99410655Y-62699787D01*
X98736319Y-62699787D01*
X98736319Y-63374124D01*
X97190400Y-63374124D01*
X97182771Y-63245541D01*
X97176297Y-63055666D01*
X97171405Y-62807684D01*
X97167873Y-62493840D01*
X97165480Y-62106378D01*
X97164005Y-61637545D01*
X97163225Y-61079587D01*
X97162920Y-60424748D01*
X97162867Y-59665274D01*
X97162870Y-59440495D01*
X98511540Y-59440495D01*
X98511565Y-59802340D01*
X98511902Y-60347570D01*
X98512966Y-60795482D01*
X98515175Y-61155640D01*
X98518944Y-61437609D01*
X98524688Y-61650951D01*
X98532824Y-61805232D01*
X98543767Y-61910015D01*
X98557933Y-61974864D01*
X98575738Y-62009344D01*
X98597598Y-62023018D01*
X98623929Y-62025451D01*
X98696583Y-62043922D01*
X98736319Y-62137840D01*
X98736390Y-62144406D01*
X98740179Y-62166761D01*
X98755852Y-62185723D01*
X98791784Y-62201571D01*
X98856353Y-62214585D01*
X98957932Y-62225044D01*
X99104897Y-62233227D01*
X99305624Y-62239413D01*
X99568487Y-62243881D01*
X99901864Y-62246911D01*
X100314128Y-62248782D01*
X100813655Y-62249772D01*
X101408820Y-62250162D01*
X102108000Y-62250230D01*
X102304970Y-62250227D01*
X102975612Y-62250101D01*
X103544471Y-62249579D01*
X104019924Y-62248381D01*
X104410346Y-62246229D01*
X104724112Y-62242843D01*
X104969598Y-62237944D01*
X105155178Y-62231253D01*
X105289230Y-62222491D01*
X105380127Y-62211378D01*
X105436245Y-62197636D01*
X105465960Y-62180985D01*
X105477647Y-62161146D01*
X105479681Y-62137840D01*
X105498152Y-62065187D01*
X105592071Y-62025451D01*
X105607803Y-62024869D01*
X105631509Y-62017131D01*
X105650983Y-61992644D01*
X105666642Y-61941844D01*
X105678902Y-61855167D01*
X105688178Y-61723049D01*
X105694885Y-61535927D01*
X105699441Y-61284235D01*
X105702261Y-60958410D01*
X105703760Y-60548888D01*
X105704354Y-60046104D01*
X105704460Y-59440495D01*
X105704435Y-59078651D01*
X105704098Y-58533421D01*
X105703034Y-58085509D01*
X105700825Y-57725350D01*
X105697057Y-57443382D01*
X105691312Y-57230040D01*
X105683177Y-57075759D01*
X105672233Y-56970976D01*
X105658067Y-56906126D01*
X105640262Y-56871646D01*
X105618402Y-56857972D01*
X105592071Y-56855540D01*
X105519417Y-56837069D01*
X105479681Y-56743150D01*
X105479610Y-56736584D01*
X105475821Y-56714230D01*
X105460149Y-56695268D01*
X105424216Y-56679419D01*
X105359647Y-56666405D01*
X105258068Y-56655946D01*
X105111103Y-56647764D01*
X104910376Y-56641578D01*
X104647513Y-56637109D01*
X104314136Y-56634079D01*
X103901873Y-56632209D01*
X103402345Y-56631218D01*
X102807180Y-56630829D01*
X102108000Y-56630761D01*
X101911030Y-56630763D01*
X101240388Y-56630889D01*
X100671529Y-56631412D01*
X100196076Y-56632610D01*
X99805654Y-56634762D01*
X99491888Y-56638148D01*
X99246402Y-56643047D01*
X99060822Y-56649738D01*
X98926771Y-56658500D01*
X98835873Y-56669612D01*
X98779755Y-56683354D01*
X98750040Y-56700005D01*
X98738353Y-56719844D01*
X98736319Y-56743150D01*
X98717848Y-56815804D01*
X98623929Y-56855540D01*
X98608197Y-56856122D01*
X98584491Y-56863860D01*
X98565017Y-56888347D01*
X98549358Y-56939147D01*
X98537098Y-57025823D01*
X98527822Y-57157941D01*
X98521115Y-57345064D01*
X98516559Y-57596756D01*
X98513739Y-57922581D01*
X98512240Y-58332103D01*
X98511646Y-58834886D01*
X98511540Y-59440495D01*
X97162870Y-59440495D01*
X97162871Y-59384977D01*
X97162987Y-58663293D01*
X97163434Y-58043509D01*
X97164434Y-57517871D01*
X97166208Y-57078623D01*
X97168977Y-56718011D01*
X97172963Y-56428281D01*
X97178388Y-56201679D01*
X97185474Y-56030449D01*
X97194441Y-55906838D01*
X97205511Y-55823090D01*
X97218906Y-55771451D01*
X97234848Y-55744167D01*
X97253557Y-55733484D01*
X97275257Y-55731646D01*
X97347910Y-55713175D01*
X97387646Y-55619256D01*
X97406117Y-55546603D01*
X97500035Y-55506867D01*
X97572689Y-55488396D01*
X97612425Y-55394478D01*
X97612545Y-55386775D01*
X97616365Y-55367358D01*
X97631020Y-55350504D01*
X97663763Y-55336031D01*
X97721848Y-55323758D01*
X97812530Y-55313503D01*
X97943062Y-55305086D01*
X98120697Y-55298325D01*
X98352691Y-55293039D01*
X98646297Y-55289045D01*
X99008768Y-55286164D01*
X99447359Y-55284213D01*
X99969324Y-55283011D01*
X100581917Y-55282378D01*
X101292391Y-55282130D01*
X102108000Y-55282088D01*
X102416091Y-55282091D01*
X103192773Y-55282187D01*
X103866947Y-55282553D01*
X104445868Y-55283372D01*
X104936789Y-55284824D01*
X105346965Y-55287091D01*
X105683649Y-55290354D01*
X105954095Y-55294795D01*
X106165557Y-55300595D01*
X106325290Y-55307935D01*
X106440546Y-55316997D01*
X106518580Y-55327962D01*
X106566647Y-55341011D01*
X106591998Y-55356325D01*
X106601890Y-55374087D01*
X106603575Y-55394478D01*
X106622046Y-55467131D01*
X106715965Y-55506867D01*
X106788618Y-55525338D01*
X106828354Y-55619256D01*
X106846825Y-55691910D01*
X106940743Y-55731646D01*
X106949871Y-55731820D01*
X106970270Y-55736285D01*
X106987789Y-55752690D01*
X107002647Y-55788759D01*
X107015062Y-55852221D01*
X107025255Y-55950803D01*
X107033444Y-56092232D01*
X107039849Y-56284233D01*
X107044688Y-56534536D01*
X107048182Y-56850866D01*
X107050549Y-57240950D01*
X107052008Y-57712516D01*
X107052779Y-58273290D01*
X107053081Y-58930999D01*
X107053116Y-59440495D01*
X107053133Y-59693371D01*
X107053133Y-59715883D01*
X107052839Y-60489966D01*
X107051890Y-61159040D01*
X107050146Y-61730292D01*
X107047466Y-62210907D01*
X107043708Y-62608068D01*
X107038732Y-62928963D01*
X107032397Y-63180776D01*
X107029057Y-63261734D01*
X107024561Y-63370692D01*
X107015084Y-63505897D01*
G37*
G36*
X105026163Y-59747588D02*
G01*
X105016287Y-59887024D01*
X104996994Y-59963562D01*
X104965177Y-59995826D01*
X104917735Y-60002442D01*
X104852864Y-59989716D01*
X104814770Y-59924722D01*
X104805345Y-59777663D01*
X104805345Y-59552885D01*
X104580566Y-59552885D01*
X104450825Y-59559248D01*
X104374637Y-59591745D01*
X104355788Y-59665274D01*
X104337317Y-59737928D01*
X104243398Y-59777663D01*
X104170745Y-59796134D01*
X104131009Y-59890053D01*
X104112538Y-59962707D01*
X104018620Y-60002442D01*
X103945966Y-59983971D01*
X103906230Y-59890053D01*
X103924701Y-59817399D01*
X104018620Y-59777663D01*
X104083490Y-59764937D01*
X104121584Y-59699943D01*
X104131009Y-59552885D01*
X104124646Y-59423143D01*
X104092149Y-59346956D01*
X104018620Y-59328106D01*
X104131009Y-59328106D01*
X104805345Y-59328106D01*
X104805345Y-58878548D01*
X104131009Y-58878548D01*
X104131009Y-59328106D01*
X104018620Y-59328106D01*
X103953749Y-59315380D01*
X103915655Y-59250386D01*
X103906230Y-59103327D01*
X103912593Y-58973585D01*
X103945090Y-58897398D01*
X104018620Y-58878548D01*
X104091273Y-58860078D01*
X104131009Y-58766159D01*
X104132663Y-58736527D01*
X104155233Y-58691843D01*
X104222336Y-58666923D01*
X104356578Y-58656116D01*
X104580566Y-58653770D01*
X105030124Y-58653770D01*
X105030124Y-59328106D01*
X105029725Y-59526631D01*
X105026163Y-59747588D01*
G37*
G36*
X102220389Y-61575894D02*
G01*
X102071051Y-61573827D01*
X101949566Y-61560194D01*
X101895524Y-61526276D01*
X101883221Y-61463504D01*
X101864751Y-61390850D01*
X101770832Y-61351115D01*
X101883221Y-61351115D01*
X102332779Y-61351115D01*
X102332779Y-60901557D01*
X101883221Y-60901557D01*
X101883221Y-61351115D01*
X101770832Y-61351115D01*
X101705961Y-61338389D01*
X101667867Y-61273394D01*
X101658443Y-61126336D01*
X101664806Y-60996594D01*
X101697303Y-60920407D01*
X101770832Y-60901557D01*
X101843486Y-60883086D01*
X101883221Y-60789168D01*
X101895948Y-60724297D01*
X101960942Y-60686203D01*
X102108000Y-60676778D01*
X102332779Y-60676778D01*
X102332779Y-60452000D01*
X102339142Y-60322258D01*
X102371639Y-60246071D01*
X102445168Y-60227221D01*
X102478256Y-60229617D01*
X102515082Y-60250986D01*
X102538321Y-60310240D01*
X102551077Y-60426003D01*
X102556455Y-60616901D01*
X102557558Y-60901557D01*
X102557558Y-61575894D01*
X102220389Y-61575894D01*
G37*
G36*
X103681451Y-61013947D02*
G01*
X103679385Y-61163285D01*
X103665752Y-61284770D01*
X103631834Y-61338812D01*
X103569062Y-61351115D01*
X103496408Y-61369586D01*
X103456673Y-61463504D01*
X103450474Y-61513283D01*
X103409575Y-61553778D01*
X103307820Y-61571793D01*
X103119504Y-61575894D01*
X102970166Y-61573827D01*
X102848681Y-61560194D01*
X102794639Y-61526276D01*
X102782336Y-61463504D01*
X102788535Y-61413725D01*
X102829434Y-61373230D01*
X102931189Y-61355216D01*
X103119504Y-61351115D01*
X103268842Y-61349049D01*
X103390328Y-61335416D01*
X103444370Y-61301497D01*
X103456673Y-61238725D01*
X103450474Y-61188946D01*
X103409575Y-61148451D01*
X103307820Y-61130437D01*
X103119504Y-61126336D01*
X102782336Y-61126336D01*
X102782336Y-60901557D01*
X102787848Y-60789168D01*
X103007115Y-60789168D01*
X103019841Y-60854039D01*
X103084835Y-60892132D01*
X103231894Y-60901557D01*
X103361636Y-60895194D01*
X103437823Y-60862697D01*
X103456673Y-60789168D01*
X103443946Y-60724297D01*
X103378952Y-60686203D01*
X103231894Y-60676778D01*
X103102152Y-60683142D01*
X103025965Y-60715639D01*
X103007115Y-60789168D01*
X102787848Y-60789168D01*
X102788699Y-60771815D01*
X102821197Y-60695628D01*
X102894726Y-60676778D01*
X102967379Y-60658308D01*
X103007115Y-60564389D01*
X103019841Y-60499518D01*
X103084835Y-60461425D01*
X103231894Y-60452000D01*
X103361636Y-60458363D01*
X103437823Y-60490860D01*
X103456673Y-60564389D01*
X103475143Y-60637043D01*
X103569062Y-60676778D01*
X103618841Y-60682977D01*
X103659336Y-60723876D01*
X103670895Y-60789168D01*
X103677351Y-60825631D01*
X103681451Y-61013947D01*
G37*
G36*
X103681451Y-59440495D02*
G01*
X103679385Y-59589833D01*
X103665752Y-59711318D01*
X103631834Y-59765361D01*
X103569062Y-59777663D01*
X103496408Y-59796134D01*
X103456673Y-59890053D01*
X103450474Y-59939832D01*
X103409575Y-59980327D01*
X103307820Y-59998341D01*
X103119504Y-60002442D01*
X102970166Y-60000376D01*
X102848681Y-59986743D01*
X102794639Y-59952825D01*
X102782336Y-59890053D01*
X102788535Y-59840273D01*
X102829434Y-59799778D01*
X102931189Y-59781764D01*
X103119504Y-59777663D01*
X103268842Y-59775597D01*
X103390328Y-59761964D01*
X103444370Y-59728046D01*
X103456673Y-59665274D01*
X103450474Y-59615495D01*
X103409575Y-59575000D01*
X103307820Y-59556985D01*
X103119504Y-59552885D01*
X102782336Y-59552885D01*
X102782336Y-59328106D01*
X102787848Y-59215717D01*
X103007115Y-59215717D01*
X103019841Y-59280587D01*
X103084835Y-59318681D01*
X103231894Y-59328106D01*
X103361636Y-59321743D01*
X103437823Y-59289246D01*
X103456673Y-59215717D01*
X103443946Y-59150846D01*
X103378952Y-59112752D01*
X103231894Y-59103327D01*
X103102152Y-59109690D01*
X103025965Y-59142187D01*
X103007115Y-59215717D01*
X102787848Y-59215717D01*
X102788699Y-59198364D01*
X102821197Y-59122177D01*
X102894726Y-59103327D01*
X102967379Y-59084856D01*
X103007115Y-58990938D01*
X103019841Y-58926067D01*
X103084835Y-58887973D01*
X103231894Y-58878548D01*
X103361636Y-58884911D01*
X103437823Y-58917409D01*
X103456673Y-58990938D01*
X103475143Y-59063591D01*
X103569062Y-59103327D01*
X103618841Y-59109526D01*
X103659336Y-59150424D01*
X103670896Y-59215717D01*
X103677351Y-59252180D01*
X103681451Y-59440495D01*
G37*
G36*
X100653078Y-61351528D02*
G01*
X100831814Y-61357171D01*
X100931492Y-61373946D01*
X100974721Y-61407507D01*
X100984106Y-61463504D01*
X100982452Y-61493136D01*
X100959882Y-61537820D01*
X100892780Y-61562740D01*
X100758538Y-61573547D01*
X100534549Y-61575894D01*
X100416019Y-61575480D01*
X100237284Y-61569837D01*
X100137605Y-61553062D01*
X100094377Y-61519501D01*
X100084991Y-61463504D01*
X100086645Y-61433872D01*
X100109216Y-61389188D01*
X100176318Y-61364268D01*
X100310560Y-61353461D01*
X100534549Y-61351115D01*
X100653078Y-61351528D01*
G37*
G36*
X104498273Y-57080327D02*
G01*
X104743985Y-57082264D01*
X104899684Y-57090402D01*
X104985712Y-57108809D01*
X105022411Y-57141555D01*
X105030124Y-57192708D01*
X105017398Y-57257579D01*
X104952404Y-57295672D01*
X104805345Y-57305097D01*
X104580566Y-57305097D01*
X104580566Y-57867044D01*
X104580557Y-57897140D01*
X104578621Y-58142852D01*
X104570483Y-58298551D01*
X104552076Y-58384579D01*
X104519330Y-58421278D01*
X104468177Y-58428991D01*
X104462158Y-58428945D01*
X104413015Y-58419263D01*
X104381876Y-58378575D01*
X104364670Y-58286537D01*
X104357330Y-58122807D01*
X104355788Y-57867044D01*
X104355788Y-57305097D01*
X104131009Y-57305097D01*
X104001267Y-57298734D01*
X103925080Y-57266237D01*
X103906230Y-57192708D01*
X103906276Y-57186689D01*
X103915958Y-57137546D01*
X103956646Y-57106406D01*
X104048684Y-57089201D01*
X104212414Y-57081861D01*
X104468177Y-57080318D01*
X104498273Y-57080327D01*
G37*
D14*
%TO.C,C2*%
X115464000Y-68021252D02*
X115464000Y-66598748D01*
X113644000Y-68021252D02*
X113644000Y-66598748D01*
%TO.C,R3*%
X119020000Y-73891064D02*
X119020000Y-72436936D01*
X117200000Y-73891064D02*
X117200000Y-72436936D01*
%TO.C,R4*%
X120756000Y-73879064D02*
X120756000Y-72424936D01*
X122576000Y-73879064D02*
X122576000Y-72424936D01*
%TO.C,R2*%
X113644000Y-73879064D02*
X113644000Y-72424936D01*
X115464000Y-73879064D02*
X115464000Y-72424936D01*
%TD*%
M02*
